<svg xmlns="http://www.w3.org/2000/svg" viewBox="0 0 916 110">
  <path d="M0 110V0h108v66.9H26.3v21.6H108v21.6c-36-.1-72-.1-108-.1zm81-65.1V21.4H26.3v23.5H81zM808 0h108v110H808V44.9h80.8v-24H808V0zm81 67h-54.7v20.9H889V67zm-377 43H403c.1-1.1.4-2.3.4-3.4V3.5c0-1.1-.3-2.3-.4-3.4h109c-.1 8.5-.2 16.9-.2 25.4 0 28.1.1 56.3.2 84.5zm-81.6-22h54.4V21.6h-54.4V88zM673 66.4h81.3v21.7H673v21.8h108V45h-80.9V21.2H781V-.1H673v66.5zm-26.6-15.8v-5.4h-81V21.3h80.7V0h-108v66.5h81.6v21.7h-81.6V110h108c0-19.8.1-39.6.3-59.4zM350 0h27v110H269V20.8h81V0zm-54.8 88h54.6V42.6h-54.6V88zM160.3 33.5V21.4H216V110h27c-.1-28.4-.2-56.7-.2-85.1 0-8.3.1-16.6.2-24.9H134c.1 1.1.4 2.3.4 3.4v103.1c0 1.1-.3 2.3-.4 3.4h26c.1-25.4.2-50.9.3-76.4z"/>
</svg>
