<svg xmlns="http://www.w3.org/2000/svg" viewBox="0 0 200 60">
  <path d="M27.4 1.1C14.3 1.1 3.5 11.9 3.5 25.2s10.7 24.1 23.9 24.1 23.9-10.8 23.9-24.1S40.6 1.1 27.4 1.1zm0 48.8C14 49.9 3 38.8 3 25.2S14 .6 27.4.6c13.5 0 24.4 11.1 24.4 24.6.1 13.6-10.9 24.7-24.4 24.7z"/>
  <path d="M75.8 1.1c-13.2 0-23.9 10.8-23.9 24.1s10.7 24.1 23.9 24.1 23.9-10.8 23.9-24.1S89 1.1 75.8 1.1m0 48.8c-13.5 0-24.4-11.1-24.4-24.6C51.4 11.7 62.4.7 75.8.7c13.5 0 24.4 11.1 24.4 24.6S89.3 49.9 75.8 49.9"/>
  <path d="M124.1 1.1c-13.1 0-23.9 10.8-23.9 24.1s10.7 24.1 23.9 24.1S148 38.5 148 25.2 137.3 1.1 124.1 1.1m0 48.8c-13.5 0-24.4-11.1-24.4-24.6 0-13.6 11-24.6 24.4-24.6 13.5 0 24.4 11.1 24.4 24.6.1 13.5-10.9 24.6-24.4 24.6"/>
  <path d="M172.5 1.1c-13.2 0-23.9 10.8-23.9 24.1s10.7 24.1 23.9 24.1 23.9-10.8 23.9-24.1-10.7-24.1-23.9-24.1m0 48.8C159 49.9 148 38.8 148 25.2S159 .6 172.4.6c13.5 0 24.4 11.1 24.4 24.6.1 13.6-10.8 24.7-24.3 24.7M12.3 3.9c-3.2 0-5.8 2.6-5.8 5.8s2.6 5.8 5.8 5.8 5.8-2.6 5.8-5.8-2.6-5.8-5.8-5.8m0 12.2C8.9 16.1 6 13.3 6 9.8s2.8-6.4 6.3-6.4 6.3 2.9 6.3 6.4c.1 3.5-2.8 6.3-6.3 6.3m27-12.2c-3.2 0-5.8 2.6-5.8 5.8s2.6 5.8 5.8 5.8 5.8-2.6 5.8-5.8-2.6-5.8-5.8-5.8m0 12.2c-3.5 0-6.3-2.9-6.3-6.4s2.8-6.4 6.3-6.4 6.3 2.9 6.3 6.4c0 3.6-2.8 6.4-6.3 6.4M19.6 40.4c-2.2 0-4 1.8-4 4s1.8 4 4 4 4-1.8 4-4-1.8-4-4-4m0 8.5c-2.5 0-4.5-2-4.5-4.5s2-4.5 4.5-4.5 4.5 2 4.5 4.5-2 4.5-4.5 4.5m13.9-8.5c-2.2 0-4 1.8-4 4s1.8 4 4 4 4-1.8 4-4-1.8-4-4-4m0 8.5c-2.5 0-4.5-2-4.5-4.5s2-4.5 4.5-4.5 4.5 2 4.5 4.5-2 4.5-4.5 4.5m24.4-8.5c-2.2 0-4 1.8-4 4s1.8 4 4 4 4-1.8 4-4-1.8-4-4-4m0 8.5c-2.5 0-4.5-2-4.5-4.5s2-4.5 4.5-4.5 4.5 2 4.5 4.5-2 4.5-4.5 4.5m13.7-8.5c-2.2 0-4 1.8-4 4s1.8 4 4 4 4-1.8 4-4-1.9-4-4-4m0 8.5c-2.5 0-4.5-2-4.5-4.5s2-4.5 4.5-4.5 4.5 2 4.5 4.5-2.1 4.5-4.5 4.5"/>
  <path d="M158 41.6c-1.9 0-3.5 1.6-3.5 3.5s1.5 3.5 3.5 3.5 3.5-1.6 3.5-3.5c-.1-1.9-1.6-3.5-3.5-3.5m0 7.5c-2.2 0-4-1.8-4-4s1.8-4 4-4 4 1.8 4 4-1.8 4-4 4m21.1-25.5c-1.9 0-3.5 1.6-3.5 3.5s1.5 3.5 3.5 3.5c1.9 0 3.5-1.6 3.5-3.5 0-2-1.6-3.5-3.5-3.5m0 7.5c-2.2 0-4-1.8-4-4s1.8-4 4-4 4 1.8 4 4-1.8 4-4 4m1.2-16.7c-1.9 0-3.5 1.6-3.5 3.5s1.5 3.5 3.5 3.5c1.9 0 3.5-1.6 3.5-3.5s-1.6-3.5-3.5-3.5m0 7.5c-2.2 0-4-1.8-4-4s1.8-4 4-4 4 1.8 4 4-1.8 4-4 4m-122-20c-1.9 0-3.5 1.6-3.5 3.5s1.5 3.5 3.5 3.5c1.9 0 3.5-1.6 3.5-3.5-.1-2-1.6-3.5-3.5-3.5m0 7.5c-2.2 0-4-1.8-4-4s1.8-4 4-4 4 1.8 4 4-1.8 4-4 4m43.5-7.5c-1.9 0-3.5 1.6-3.5 3.5s1.5 3.5 3.5 3.5 3.5-1.6 3.5-3.5c-.1-2-1.6-3.5-3.5-3.5m0 7.5c-2.2 0-4-1.8-4-4s1.8-4 4-4 4 1.8 4 4-1.8 4-4 4m13-7.5c-1.9 0-3.5 1.6-3.5 3.5s1.5 3.5 3.5 3.5c1.9 0 3.5-1.6 3.5-3.5 0-2-1.6-3.5-3.5-3.5m0 7.5c-2.2 0-4-1.8-4-4s1.8-4 4-4 4 1.8 4 4-1.8 4-4 4m20.9-7.5c-1.9 0-3.5 1.6-3.5 3.5s1.5 3.5 3.5 3.5c1.9 0 3.5-1.6 3.5-3.5 0-2-1.6-3.5-3.5-3.5m0 7.5c-2.2 0-4-1.8-4-4s1.8-4 4-4 4 1.8 4 4-1.8 4-4 4m11.4-7.5c-1.9 0-3.5 1.6-3.5 3.5s1.5 3.5 3.5 3.5 3.5-1.6 3.5-3.5c0-2-1.6-3.5-3.5-3.5m0 7.5c-2.2 0-4-1.8-4-4s1.8-4 4-4 4 1.8 4 4-1.8 4-4 4M158 1.9c-1.9 0-3.5 1.6-3.5 3.5s1.5 3.5 3.5 3.5 3.5-1.6 3.5-3.5c-.1-2-1.6-3.5-3.5-3.5m0 7.5c-2.2 0-4-1.8-4-4s1.8-4 4-4 4 1.8 4 4-1.8 4-4 4M29.2 30.9c0 6.2-.1 11.5.2 14.2.2 1.9 1.2 3 3.2 3.5.9.2 1.8.2 2.3.2.4 0 .5.2.5.4 0 .3-.3.8-1 .8H20c-.7 0-1-.1-1-.5 0-.2.1-.6.5-.6.6 0 1.3-.1 1.8-.4 1.2-.6 1.8-1 2.2-2.3.8-2.9.4-9 .4-15.2V3.6H12.4c-1.8 0-3.3.6-4.5 2.1-.9 1.1-1 1.7-1.2 2.1-.2.5-.3.6-.6.6-.2 0-.3-.2-.3-.6 0-.6 1.3-6.2 1.4-6.8 0-.2.4-.2.6-.2H46c.3 0 .5-.1.5.2 0 1.9-.2 6.4-.2 7.1 0 .6-.2.8-.4.8-.3 0-.2-.3-.4-.9L45 6.8c-1-1.9-3-3.3-5.4-3.3H29.3l-.1 27.4z"/>
  <path d="M67.2 25.1c0 .3.1.6.4.8 1 .6 3.9 1 6.8 1 1.5 0 3.3-.2 4.8-1.2 2.3-1.6 3.9-5.1 3.9-10 0-8.1-4.3-13-11.1-13-1.9 0-3.7.2-4.3.4-.3.1-.5.4-.5.8v21.2zM62 19.4c0-10.1 0-11.9-.1-14-.1-1.6-.9-3.2-2.9-3.7-.5-.1-1.5-.2-2-.2-.3 0-.5-.1-.5-.4 0-.4.3-.4 1-.4h14.9c4.1 0 8.4.3 11.8 2.7 1.6 1.2 4.4 4.3 4.4 8.8 0 4.8-2 9.6-7.8 15 3.7 5.5 7.1 10 10.4 13.9 4.2 5 8.3 9.2 13 12.5 4 2.9 8.5 4.5 14.3 4.7 1.4.1 2.4-.1 2.8-.1.3 0 .6.2.6.4-.2 0-1.1.2-1.6.3-1.9.3-4.3.3-4.3.3-3.8 0-8.4-.8-12-2.3-3.4-1.5-10.6-5.4-19.7-16.6-3.2-3.9-6.6-9.3-7.9-11-.3-.3-.4-.4-.8-.4l-7.9-.1c-.3 0-.4.2-.4.5v1.6c0 6.2-.1 11.5.2 14.2.2 1.9 1.1 2.9 2.6 3.4.8.3 2.6.1 3.2.1.4 0 .5.3.5.5 0 .3-.3.7-1 .7H58.5c-.7 0-1-.2-1-.8 0-.3.6-.4 1-.4.6 0 1.2-.1 1.8-.6 1.1-.7 1.5-1.5 1.7-2.7.6-2.7.2-8.4.2-14.6L62 19.4z"/>
  <path d="M105.4 19.4c0-10.8.1-12.6.1-14 0-1.5-.9-3.2-3-3.7-.5-.1-.4-.1-1-.2-.3-.1-.5-.1-.5-.4 0-.4.3-.4 1-.4h12.5c.7 0 1 0 1 .4 0 .3-.2.4-.4.4-.4 0-1.1 0-1.8.4-1.5.6-2.3 2-2.3 3.4 0 2.1-.1 4-.1 14.1v8.5c0 9.3 2.1 13.4 4.8 16 3.2 3 6.1 3.6 9.7 3.6 3.9 0 7.8-1.9 10.1-4.7 3-3.7 3.7-9.2 3.7-15.9l.1-7.5v-14c0-1.9-1.2-3.4-3.1-3.7-.5-.1-1.6-.2-2.2-.2-.3 0-.5-.1-.5-.4 0-.4.3-.4 1-.4h11.3c.7 0 1 0 1 .4 0 .3-.1.4-.7.5-1.8.3-3.1 1.5-3.2 3.8-.1 2.1.2 3.9.2 14l.1 6.3c0 7-.4 14.7-5.6 19.3-4.6 4.2-10.1 4.8-13.9 4.8-2.2 0-8.4-.2-12.9-4.5-3.2-3-5.5-7.6-5.5-17.1l.1-8.8zm56.5 0c0-10.1-.1-12-.1-14.1 0-1.3-.9-3.2-2.8-3.6-.5-.1-1.6-.2-2.2-.2-.3 0-.5-.1-.5-.4 0-.4.3-.4 1-.4 1.5 0 3.2-.1 4.6 0h23.5c.2 0 .2 0 .2.3 0 .4-.2.8-.4 2.6-.1.6-.2 3.5-.3 4.3-.1.3-.2.7-.4.7-.4 0-.5-.3-.5-.8s-.1-1.6-.4-2.3c-.4-1-1.1-1.8-4.6-2.2-1.1-.1-10.7-.2-11.4-.2-.3 0-.4.2-.4.6v16.9c0 .4.1.6.4.6.8 0 11.7.2 13.2.2.9 0 1.9-.5 2.5-1.2.4-.5.9-.9 1.1-.9.2 0 .3.1.3.5s-.3 1.5-.5 3.6c-.1 1.3-.3 3.7-.3 4.2s0 1.2-.4 1.2c-.3 0-.4-.3-.4-.6 0-.6 0-1.3-.3-2.1-.3-.7-1.4-2.2-3.1-2.3-1.8-.1-11-.3-12.1-.3-.3 0-.4.2-.4.5v5.7c0 2.2-.1 10.8 0 12.1.2 4.5 3.8 5.3 10.1 5.3 1.7 0 4.5 0 6.2-.7s2.5-2 2.9-4.7c.1-.7.3-1 .6-1 .4 0 .4.5.4 1s-.5 4.9-.8 6.3c-.4 1.7-1 1.8-3.5 1.8-4.8 0-11-.1-13.5-.1h-5c-.1 0-1.2-.1-2.6 0h-3.7c-.7 0-1-.1-1-.5 0-.2.1-.4.5-.4.6 0 1.1 0 1.8-.3 1.2-.5 2.2-1.6 2.3-3.8.1-2.9 0-7.8 0-14.1V19.4z"/>
  <path d="M173 49.6h-.5l.3-48.7h.6m-49.7 48.7L123.3.9h.5l.5 48.7m-97.6 0h-.6L26.6.9h.5m48.3 48.7L74.9.9h.6l.5 48.7"/>
  <path d="M3.3 25.5h194V25H3.3"/>
</svg>
