<svg xmlns="http://www.w3.org/2000/svg" viewBox="0 0 154 26">
  <path d="M41.7.6c-1.4.1-2 .8-2 2.2 0 5.4.1 10.8-.1 16.3-.1 4 3.4 6.9 6.8 6.9h21.2c4.1 0 6.9-2.9 6.9-6.9v-17c0-.4 0-.8-.1-1.3h-4.5c-1.8 0-2.5.7-2.5 2.5V17c0 2.1-.6 2.7-2.7 2.7H49.4c-2.2 0-2.8-.6-2.8-2.7V.6h-4.9zm44.8 9.5h19.6c.8 0 1.1-.4 1.1-1.2 0-1.3-.7-1.9-2.3-1.9H86.5v3.1zm25.4 4.7c2.9 2.4 2.2 6.3 2.2 9.6 0 .5-1 1.5-1.6 1.5h-5.3v-6.6c0-2.3-.5-2.8-2.8-2.8h-18v5.4c0 4 0 4-4.1 4h-3V3.4c.1-2.1.7-2.8 2.9-2.8h24.5c1.9 0 3.8.4 5.3 1.7 1.5 1.2 2.3 2.8 2.2 4.7v2c.2 2.3-.3 4.3-2.3 5.8zM26.3 7.3c-3.3.9-6.6 1.9-9.9 2.8-3.8 1.1-7.7 2.2-11.5 3.3-2.8.8-4.6 3-4.9 5.6-.2 2.5 1.1 4.9 3.5 6 1.2.6 2.5.9 3.7.9 7.7.1 15.4 0 23.1 0h2.6c1 0 1.7-.6 1.8-1.6.1-1.6 0-3.2 0-4.8H8.2c.6-.4 1.2-.6 1.8-.8 6.7-1.9 13.3-3.8 20-5.8 3.2-.9 5-3.5 4.7-6.5-.1-2.8-2.5-5.3-5.7-5.6-2.3-.2-4.6-.2-6.9-.2H2.4C1 .6.1 1.2.1 2.4 0 3.9.1 5.4.1 7h26.3c-.1.1-.1.2-.1.3zm100 2.8h14.5c.3 0 .8-.6.9-.9.2-1.3-.6-2.1-2-2.1h-13.4v3zm0 9.4h19.6c.3 0 .8-.3.9-.6.2-.5-.1-1.5-.5-2-.3-.4-1-.5-1.6-.5h-18.5v3.1h.1zm-7.1 6.3V3.4c0-2.1.6-2.8 2.7-2.8h19.4c2 0 3.8.5 5.3 1.9 1.2 1.2 2 2.6 1.9 4.3v3c1 .4 2 .5 2.7 1 1.9 1.2 2.6 3.1 2.7 5.3V19c.3 3.9-3.1 6.8-6.3 6.8-9.3.1-18.7 0-28 0-.1.1-.2 0-.4 0z"/>
</svg>
