<svg xmlns="http://www.w3.org/2000/svg" viewBox="0 0 176 81">
  <g>
    <path d="M173.6 73.7c0-.4-.1-.7-.3-.9s-.4-.3-.8-.3c-.3 0-.6.1-.8.3s-.3.5-.4.8l2.3.1zm1.5.4v.7h-3.6c0 1.1.5 1.6 1.6 1.6.3 0 .6 0 .9-.1.3-.1.6-.2.8-.3l.1 1.2c-.3.1-.6.2-1 .3s-.7.1-1.1.1c-.9 0-1.6-.2-2.1-.7s-.7-1.2-.7-2.3c0-.4.1-.9.2-1.2.1-.4.3-.7.5-1s.5-.5.9-.6c.3-.2.7-.2 1.2-.2.4 0 .8.1 1.1.2s.6.3.8.6c.2.2.3.5.4.8-.1.2 0 .5 0 .9zm-7.9-1.3c-.1 0-.3-.1-.4-.1h-.4c-.4 0-.8.1-1.1.5-.3.3-.4.8-.4 1.5 0 1.1.3 1.7 1 1.7.2 0 .4-.1.5-.2.2-.1.3-.2.4-.4.1-.2.2-.4.2-.6.1-.2.1-.5.1-.7l.1-1.7zm2.5 4.5c-.4 0-.8.1-1.2.1h-1.2v-.5s0-.3.1-.5c-.2.3-.4.6-.7.8s-.7.3-1.1.3c-.7 0-1.2-.2-1.6-.7-.4-.5-.5-1.2-.5-2 0-.5.1-.9.2-1.3s.3-.8.6-1.1.6-.5 1-.7.8-.2 1.3-.2h.8V70c-.1 0-.3 0-.5-.1-.2 0-.4 0-.5-.1v-.9c.4 0 .8-.1 1.2-.1h1.3v7.4c.1 0 .3 0 .5.1.2 0 .4 0 .5.1v.9h-.2zm-10.5-6.5l-.5-.9 2.1-1.3.6 1-2.2 1.2zm2.8 6.6h-1.2v-.5s0-.4.1-.5c-.2.4-.4.6-.8.9-.3.2-.7.3-1.2.3-.3 0-.6 0-.8-.1s-.4-.2-.5-.4l-.3-.6s-.1-.5-.1-.7v-2.9c-.1 0-.3 0-.5-.1-.2 0-.4 0-.5-.1v-.9c.4 0 .8-.1 1.2-.1h1.3v3.7c0 .3.1.5.2.7.1.2.3.3.6.3.2 0 .4-.1.5-.2.2-.1.3-.2.4-.4l.3-.6s.1-.5.1-.7v-2.8h1.5v4.7c.1 0 .3 0 .5.1.2 0 .4 0 .5.1v.9c-.5-.1-.9-.1-1.3-.1zm-8.1-2.6c-.4 0-.7 0-1 .1s-.4.1-.6.2l-.3.3s-.1.2-.1.3c0 .2.1.3.2.4.1.1.3.2.5.2s.4 0 .5-.1c.2-.1.3-.2.4-.3.1-.1.2-.3.3-.4.1-.2.1-.3.1-.5v-.2zm2.5 2.5c-.4 0-.8.1-1.2.1H154v-1c-.1.3-.4.6-.7.8s-.7.3-1.2.3-.9-.1-1.2-.4-.4-.7-.4-1.1.1-.7.2-.9c.2-.3.4-.5.7-.7s.7-.3 1.1-.4c.4-.1.9-.1 1.4-.1v-.3c0-.3-.1-.5-.3-.7s-.5-.2-.9-.2c-.3 0-.6 0-.9.1l-.9.3-.1-1.3c.3-.1.6-.2 1-.3s.7-.1 1.1-.1c.5 0 .9 0 1.2.1s.6.2.7.4c.2.2.3.4.4.6.1.3.1.5.1.9v2.8c.1 0 .3 0 .5.1.2 0 .4 0 .5.1l.1.9zm-6.4-1.7c0 .3-.1.6-.2.8-.1.2-.3.4-.5.6s-.5.3-.8.4-.7.1-1.1.1h-.6c-.2 0-.4 0-.6-.1v-1.2c.2 0 .4.1.6.1.2 0 .4.1.7.1s.5-.1.7-.2.3-.3.3-.5-.1-.3-.2-.4c-.1-.1-.3-.2-.4-.2-.2-.1-.4-.1-.6-.2l-.6-.3c-.2-.1-.3-.3-.4-.5-.1-.2-.2-.5-.2-.8s.1-.5.2-.7c.1-.2.3-.4.5-.6s.5-.3.8-.4.7-.1 1.1-.1h.5s.4 0 .5.1v1.2c-.2 0-.3-.1-.5-.1h-.6c-.3 0-.5.1-.7.2-.1.1-.2.3-.2.4 0 .2.1.3.2.4.1.1.3.2.4.3.2.1.4.2.6.2l.6.3c.2.1.3.3.4.5.1.1.1.3.1.6zm-8.8 1.8v-3.7c0-.3 0-.6-.1-.7-.1-.2-.3-.3-.5-.3s-.3 0-.5.1-.3.2-.4.4l-.3.6s-.1.5-.1.8v2.8h-1.5v-3.7c0-.3 0-.5-.1-.7s-.3-.3-.6-.3c-.2 0-.3 0-.5.1s-.3.2-.4.4l-.3.6c-.1.2-.1.5-.1.8v2.8h-1.5v-4.7c-.1 0-.3 0-.5-.1-.2 0-.4 0-.5-.1v-.8c.4 0 .8-.1 1.2-.1h1.2v.5s0 .4-.1.6c.2-.4.4-.6.8-.9.3-.2.7-.3 1.2-.3.3 0 .5 0 .7.1s.3.2.5.3c.1.1.2.2.3.4s.1.3.2.4c.1-.1.2-.3.3-.4.1-.1.2-.3.4-.4.2-.1.3-.2.5-.3s.4-.1.7-.1c.6 0 1 .2 1.3.5s.4.8.4 1.5v4l-1.7-.1zm-9.8-3.7c0-.4-.1-.7-.3-.9-.2-.2-.4-.3-.8-.3-.3 0-.6.1-.8.3-.2.2-.3.5-.4.8l2.3.1zm1.5.4v.7h-3.6c0 1.1.5 1.6 1.6 1.6.3 0 .6 0 .9-.1s.6-.2.8-.3l.1 1.2c-.3.1-.6.2-1 .3s-.7.1-1.1.1c-.9 0-1.6-.2-2.1-.7s-.7-1.2-.7-2.3c0-.4.1-.9.2-1.2.1-.4.3-.7.5-1s.5-.5.9-.6c.3-.2.7-.2 1.2-.2.4 0 .8.1 1.1.2.3.1.6.3.8.6.2.2.3.5.4.8v.9zm-10.3.7c-.4 0-.7 0-1 .1-.2.1-.4.1-.6.2l-.3.3c-.1.1-.1.2-.1.3 0 .2.1.3.2.4s.3.2.5.2.4 0 .5-.1c.2-.1.3-.2.4-.3s.2-.3.3-.4c.1-.2.1-.3.1-.5v-.2zm2.5 2.5c-.4 0-.8.1-1.2.1h-1.2v-1c-.1.3-.4.6-.7.8-.3.2-.7.3-1.2.3s-.9-.1-1.2-.4c-.3-.3-.4-.7-.4-1.1s.1-.7.2-.9c.2-.3.4-.5.7-.7.3-.2.7-.3 1.1-.4s.9-.1 1.4-.1v-.3c0-.3-.1-.5-.3-.7-.2-.2-.5-.2-.9-.2-.3 0-.6 0-.9.1l-.9.3-.1-1.3c.3-.1.6-.2 1-.3s.7-.1 1.1-.1c.5 0 .9 0 1.2.1.3.1.6.2.7.4.2.2.3.4.4.6.1.3.1.5.1.9v2.8c.1 0 .3 0 .5.1.2 0 .4 0 .5.1v.9h.1zm-6.5-7.4c0 .2-.1.5-.3.6-.2.2-.4.3-.7.3-.3 0-.5-.1-.7-.3s-.3-.4-.3-.6c0-.1 0-.2.1-.4.1-.1.1-.2.2-.3s.2-.1.3-.2c.1 0 .2-.1.4-.1.3 0 .5.1.7.3s.3.5.3.7zm-.2 7.5h-1.5v-4.7c-.1 0-.3 0-.5-.1-.2 0-.4 0-.5-.1v-.9c.4 0 .8-.1 1.2-.1h1.3v5.9zm-4.5-4.6c-.2-.1-.5-.1-.8-.1-.4 0-.8.1-1.1.4s-.4.8-.4 1.5c0 1.1.3 1.6 1 1.6.2 0 .4-.1.5-.2.2-.1.3-.2.4-.4s.2-.4.2-.6c.1-.2.1-.5.1-.7v-1.5c0 .1.1.1.1 0zm1.5 4.8c0 .3 0 .7-.1 1s-.3.6-.5.9-.6.5-1 .6c-.4.2-1 .2-1.6.2-.3 0-.6 0-1-.1-.3 0-.6-.1-.8-.2l.1-1.4c.3.1.5.2.9.2.3.1.6.1.9.1.6 0 1-.1 1.3-.3s.4-.6.4-1.1v-.7s0-.3.1-.4c-.2.3-.4.6-.7.8-.3.2-.6.3-1 .3-.7 0-1.2-.2-1.6-.7s-.6-1.1-.6-2c0-.5.1-.9.2-1.3s.3-.8.6-1.1c.3-.3.6-.5 1-.7s.9-.2 1.4-.2h1.1c.3 0 .7.1 1 .1v6h-.1zm-7.4-3.1c0-.6-.1-1-.3-1.3-.2-.3-.5-.4-1-.4-.2 0-.3 0-.5.1s-.3.2-.4.3-.2.3-.3.5c-.1.2-.1.5-.1.8 0 1.2.4 1.8 1.3 1.8.4 0 .7-.1.9-.4.3-.4.4-.8.4-1.4zm1.6-.1c0 .5-.1.9-.2 1.3s-.4.7-.6 1-.6.5-.9.7c-.4.2-.8.2-1.2.2-.4 0-.8-.1-1.1-.2-.3-.1-.6-.3-.9-.5-.2-.2-.4-.5-.5-.9s-.2-.8-.2-1.3.1-.9.2-1.3.3-.7.6-1c.3-.3.6-.5.9-.7.4-.2.8-.2 1.2-.2.8 0 1.5.2 2 .7.4.5.7 1.2.7 2.2zm-6.5 3h-1.5V70c-.1 0-.3 0-.5-.1-.2 0-.4 0-.5-.1v-.9c.4 0 .8-.1 1.2-.1h1.3v8.6zm-3.9-2.9c0-.6-.1-1-.3-1.3-.2-.3-.5-.4-1-.4-.2 0-.3 0-.5.1s-.3.2-.4.3-.2.3-.3.5c-.1.2-.1.5-.1.8 0 1.2.4 1.8 1.3 1.8.4 0 .7-.1.9-.4.3-.4.4-.8.4-1.4zm1.6-.1c0 .5-.1.9-.2 1.3s-.4.7-.6 1c-.3.3-.6.5-.9.7-.4.2-.8.2-1.2.2-.4 0-.8-.1-1.1-.2-.3-.1-.6-.3-.9-.5-.2-.2-.4-.5-.5-.9s-.2-.8-.2-1.3.1-.9.2-1.3.3-.7.6-1c.3-.3.6-.5.9-.7.4-.2.8-.2 1.2-.2.8 0 1.5.2 2 .7.4.5.7 1.2.7 2.2zm-10.2-2.8v.5s0 .4-.1.5c.2-.4.4-.6.8-.9.3-.2.7-.3 1.2-.3.3 0 .6 0 .8.1.2.1.4.2.5.4l.3.6c.1.2.1.5.1.7v4.1h-1.5v-3.7c0-.3-.1-.5-.2-.7s-.3-.3-.6-.3c-.2 0-.4.1-.5.2-.2.1-.3.2-.4.4l-.3.6c-.1.2-.1.5-.1.7v2.8h-1.5v-4.7c-.1 0-.3 0-.5-.1-.2 0-.4 0-.5-.1v-.9c.4 0 .8-.1 1.2-.1.5.2.9.2 1.3.2zm-3.4 5.9c-.3.1-.6.1-.9.1-.4 0-.8-.1-1.1-.2-.3-.1-.6-.3-.8-.5-.2-.2-.4-.5-.5-.9s-.2-.8-.2-1.3.1-.9.2-1.3.3-.7.6-1c.2-.3.6-.5.9-.7.4-.2.8-.2 1.3-.2.4 0 .8.1 1.2.2l-.2 1.3c-.2-.1-.3-.1-.5-.2-.2 0-.4-.1-.6-.1-.5 0-.8.2-1.1.5-.2.3-.4.8-.4 1.3s.1.9.3 1.2c.2.3.6.5 1.1.5.2 0 .4 0 .6-.1.2 0 .4-.1.5-.2l.1 1.3c0 .1-.3.2-.5.3zm-5.6-3.8c0-.4-.1-.7-.3-.9-.2-.2-.4-.3-.8-.3-.3 0-.6.1-.8.3-.2.2-.3.5-.4.8l2.3.1zm1.5.4v.7h-3.6c0 1.1.5 1.6 1.6 1.6.3 0 .6 0 .9-.1s.6-.2.8-.3l.1 1.2c-.3.1-.6.2-1 .3s-.7.1-1.1.1c-.9 0-1.6-.2-2.1-.7s-.7-1.2-.7-2.3c0-.4.1-.9.2-1.2.1-.4.3-.7.5-1s.5-.5.9-.6c.3-.2.7-.2 1.2-.2.4 0 .8.1 1.1.2.3.1.6.3.8.6.2.2.3.5.4.8v.9zM77 77.5h-.6c-.3 0-.6 0-.8-.1s-.4-.2-.5-.3-.2-.3-.3-.6c-.1-.2-.1-.5-.1-.9v-3h-1v-1.2h1v-1.6l1.5-.4v2.2h1.4v1.2h-1.4v2.6c0 .4.1.6.2.8.1.1.3.2.5.2.3 0 .5 0 .7-.1v1.2c-.2-.1-.4 0-.6 0zm63.2-31.1c-2.3 0-4.2.1-5.7.4s-2.6.7-3.4 1.2c-.8.5-1.4 1.1-1.7 1.7-.3.6-.5 1.3-.5 2 0 1.1.4 2 1.1 2.6.7.7 1.7 1 3 1 1.1 0 2.1-.2 3-.7s1.7-1.1 2.3-1.8c.6-.7 1.1-1.6 1.5-2.6.3-1 .5-2 .5-3v-.8h-.1zm11.5 8.6c1.1.1 2.1.2 3.1.3v5.5c-2.2.3-4.5.5-7 .6s-4.8.1-7 0c0-1 0-2 .1-3 0-1 .1-1.9.3-2.8l-.1-.1c-.8 1.9-2.2 3.5-4.1 4.7s-4.2 1.8-6.7 1.8c-3.1 0-5.5-.8-7.2-2.4s-2.5-3.8-2.5-6.5c0-2.1.5-3.8 1.4-5.4 1-1.5 2.3-2.8 4-3.9 1.7-1 3.8-1.8 6.2-2.4 2.4-.5 5.1-.8 7.9-.8v-1.8c0-1.8-.5-3.1-1.5-4s-2.7-1.4-5.2-1.4c-1.6 0-3.3.2-5.1.7-1.8.5-3.5 1.1-5 1.9l-.8-7.3c1.7-.6 3.6-1.1 5.7-1.5s4.2-.6 6.4-.6c1.8 0 3.4.1 4.8.3 2 4 5.2 7.2 9.1 9.1.1.7.1 1.5.1 2.3v16.2c1.1.3 2 .4 3.1.5zm9 1c-.7.7-1 1.5-1 2.4 0 1 .3 1.8 1 2.4.7.7 1.5 1 2.4 1 1 0 1.8-.3 2.4-1 .7-.7 1-1.5 1-2.4 0-1-.3-1.8-1-2.4-.7-.7-1.5-1-2.4-1s-1.7.4-2.4 1zm-50 0c-.7.7-1 1.5-1 2.4 0 1 .3 1.8 1 2.4.7.7 1.5 1 2.4 1 1 0 1.8-.3 2.4-1 .7-.7 1-1.5 1-2.4 0-1-.3-1.8-1-2.4-.7-.7-1.5-1-2.4-1s-1.7.4-2.4 1zm-6.1-.7v5.5c-2.2.3-6.3.5-8.8.6-2.5.1-5 .1-7.5 0V18.2l-2.3-.7v-6.2h11v43.2c.8.1 3.5.3 4.6.4.9.2 2 .3 3 .4z"/>
    <path d="M167.9 16c0-.6-.1-1.3-.3-1.9s-.4-1.1-.8-1.6-.9-.8-1.5-1.1-1.4-.4-2.3-.4c-.7 0-1.3.1-1.9.4-.6.2-1.2.6-1.6 1-.5.5-.8 1-1.1 1.6s-.4 1.4-.4 2.2c0 .9.1 1.7.4 2.3.3.6.6 1.1 1 1.5s.9.7 1.5.9 1.2.3 1.9.3 1.4-.1 2-.4c.6-.2 1.2-.6 1.7-1 .5-.5.9-1 1.1-1.6s.3-1.4.3-2.2zm-1.2 8.7c0-.1 0-.2-.1-.3 0-.1-.1-.1-.2-.2s-.2-.1-.2-.1c-.1 0-.2-.1-.2-.1-.1 0-.1-.1-.2-.1 0 0-.1-.1-.1-.2s0-.1.1-.2c.1 0 .1-.1.3-.1h.4v-.5h-.4c-.2 0-.3 0-.4.1-.1 0-.2.1-.3.2s-.1.2-.2.2c0 .1-.1.2-.1.3 0 .1 0 .2.1.3 0 .1.1.2.2.2.1.1.1.1.2.1s.2.1.2.1c.1 0 .1.1.2.1 0 0 .1.1.1.2s0 .1-.1.2c-.1 0-.2.1-.3.1h-.3s-.2 0-.2-.1v.5h.5c.2 0 .3 0 .4-.1.1 0 .2-.1.3-.2l.2-.2c.1 0 .1-.1.1-.2zm-4.1-.5c0-.4-.1-.7-.3-.9s-.5-.3-.8-.3c-.2 0-.4 0-.5.1-.2.1-.3.2-.4.3-.1.1-.2.3-.3.4-.1.2-.1.3-.1.5s0 .4.1.5c.1.2.1.3.2.4.1.1.2.2.4.2.1 0 .3.1.5.1s.3 0 .5-.1.3-.2.4-.3c.1-.1.2-.3.3-.4v-.5zm-5-.5v-.3l-.1-.2-.2-.2c-.1 0-.2-.1-.3-.1-.2 0-.4 0-.5.1s-.2.2-.3.4V23h-1v.4h.4v1.9h.6v-1.5l.1-.2c0-.1.1-.1.2-.2.1 0 .1-.1.2-.1s.2 0 .2.1.1.2.1.3v1.5h.6v-1.5zm-4.7 1.3h-.4v-1.6c0-.1-.1-.2-.2-.3-.1-.1-.2-.1-.3-.2-.1 0-.3-.1-.5-.1h-.5c-.1 0-.3.1-.4.1l.1.5c.1-.1.2-.1.4-.1.1 0 .3-.1.4-.1.2 0 .3 0 .4.1.1.1.1.2.1.3v.1c-.2 0-.4 0-.6.1-.2 0-.3.1-.4.2l-.3.3s-.1.2-.1.4.1.3.2.5c.1.1.3.2.5.2s.3 0 .5-.1l.3-.3v.4h1V25h-.2zm-3.2-4h7.5v-2.2h-2.3s-1.3 0-1.9.1l1.4-1.1c.8-.6 1.4-1.2 1.8-1.8.4-.6.6-1.2.6-1.9 0-.9-.3-1.6-1-2.2-.6-.6-1.6-.8-2.8-.8-.6 0-1.2.1-1.7.2s-1 .3-1.5.5l.3 2c.3-.2.6-.3 1-.5.4-.1.8-.2 1.2-.2.6 0 1 .1 1.3.4s.4.6.4 1c0 .2 0 .4-.1.6-.1.2-.2.4-.5.7l-.8.8s-.7.6-1.2.9l-1.9 1.5v2h.2zm26.3-3c0 10-8.1 18-18 18-10 0-18-8.1-18-18 0-10 8.1-18 18-18s18 8 18 18zm-14.6 5.5h-.2c-.1 0-.1.1-.2.1-.1.1-.1.1-.1.2v.3c0 .5.2.7.5.7.2 0 .3-.1.4-.2.1-.1.2-.3.2-.6 0-.2 0-.4-.1-.5-.1.1-.3 0-.5 0zm-10.2 1c-.1 0-.1.1-.1.1v.1c0 .1 0 .1.1.2.1 0 .1.1.2.1s.1 0 .2-.1c.1 0 .1-.1.2-.1 0-.1.1-.1.1-.2v-.3h-.4c-.1.1-.2.1-.3.2zm13.6-10.6c.4.6.6 1.3.6 2.2 0 .5-.1.9-.2 1.3s-.3.7-.6 1-.5.5-.8.6-.7.2-1 .2c-.4 0-.8-.1-1.1-.2-.3-.2-.6-.4-.8-.6-.2-.3-.4-.6-.5-1s-.2-.8-.2-1.2c0-.5.1-.9.2-1.3s.3-.7.6-.9c.3-.2.5-.5.8-.6s.7-.2 1-.2c1-.1 1.6.2 2 .7zm-121 33.6v23.2h-14V47.5H7.4V33.4h22.4V10.2h14.1v23.2h22.4v14.1H43.8zm-7-43.8C16.5 3.7 0 20.1 0 40.4s16.5 36.7 36.8 36.7 36.8-16.4 36.8-36.7S57.1 3.7 36.8 3.7z"/>
  </g>
</svg>
