<svg xmlns="http://www.w3.org/2000/svg" viewBox="0 0 210 39">
  <g>
    <path d="M.5 4.5v4.7h9.6v25.1h5.3V9.2H25V4.5"/>
    <path d="M36.4 21c-.1-2.9-1.8-4.5-4.1-4.5-2.7 0-4.5 1.7-5 4.5h9.1zm-4-8.5c6 0 9.3 4.5 9.3 10.2 0 .6-.1 2.1-.1 2.1H27.1c.3 3.7 3.2 5.7 6.3 5.7 3.4 0 6-2.4 6-2.4l2 3.8S38.2 35 33 35c-6.9 0-11.2-5.1-11.2-11.2-.1-6.7 4.3-11.3 10.6-11.3zM46.6 28s2.3 2.4 5.7 2.4c1.5 0 2.8-.7 2.8-1.9 0-3.2-10.2-2.8-10.2-9.7 0-4 3.5-6.3 8-6.3 4.7 0 7 2.4 7 2.4L58 18.8S56.1 17 52.9 17c-1.4 0-2.7.6-2.7 1.9 0 3 10.2 2.6 10.2 9.5 0 3.6-3 6.4-8 6.4-5.2 0-8.1-3.1-8.1-3.1l2.3-3.7zm82.9 2.4c2.9 0 5.3-2.4 5.3-6.6 0-4.1-2.1-6.7-5.2-6.7-2.7 0-5.3 2-5.3 6.8 0 3.2 1.7 6.5 5.2 6.5zM119.2 4.6h5.2v9.2c0 1.1-.1 1.8-.1 1.8h.1s1.8-3.1 6.3-3.1c5.7 0 9.3 4.6 9.3 11.2 0 6.8-4.1 11.2-9.6 11.2-4.4 0-6.2-3.2-6.2-3.2h-.2s.1.6.1 1.5v1.4h-4.9v-30zm25.1 29.8h5.2V13h-5.2v21.4zm0-25.1h5.2V4.6h-5.2v4.7zm35 25.1h5.2V13h-5.2v21.4zm0-25.1h5.2V4.6h-5.2v4.7zm-23.2 8.2h-2.7v-4.2h2.8V7.1h5.1v6.2h4.8v4.2h-4.8v8.3c0 3.5 2.7 4 4.1 4 .6 0 .9-.1.9-.1v4.7s-.6.1-1.6.1c-2.9 0-8.7-.9-8.7-8.1v-8.9zM176.3 31c0 2.1-1.6 3.7-3.6 3.7S169 33 169 31s1.6-3.7 3.6-3.7 3.7 1.6 3.7 3.7m22-.7c-3.5 0-6.1-2.9-6.1-6.8 0-3.7 2.6-6.5 6.1-6.5 3.5 0 6.1 2.8 6.1 6.5 0 3.9-2.6 6.8-6.1 6.8m0-18.1c-6.2 0-11.1 4.9-11.1 11.2 0 6.5 4.9 11.5 11.1 11.5 6.2 0 11.1-5.1 11.1-11.5.1-6.3-4.8-11.2-11.1-11.2m-93.8 21.5c-.7-.6-1.2-1.3-1.8-2.2-2.1 1.4-4.6 2.2-7.3 2.2-2.6 0-5.1-.8-7.2-2.1-.5.9-1.1 1.5-1.7 2.1-.6.5-1.3.9-2 1.3 3.1 2.3 6.8 3.6 10.9 3.6 4.1 0 7.9-1.4 11-3.7-.7-.4-1.3-.8-1.9-1.2m8.1-4.6s-.6 0-1.4-.1c-1.2-.2-2.2-.5-2.7-1-.7-.7-2-4.5-2.7-6.7-.7-2-1.3-4-2.1-5.8-1.9-4.4-5.5-6-8.1-6-2 0-4.5.9-6.5 3.2l3.8 3.4c.9-.9 2-1.2 2.7-1.2.9 0 2.8.6 3.8 2.9.6 1.5 1.3 3.5 1.9 5.3 1.6 4.7 2.6 7.7 4.3 9.1 1.2 1.1 2.9 1.7 5.1 2 .9.1 1.6.1 1.9.1h4.3v-5.4h-4.3zm-26.9-8.6l-.3.9c-.7 2.3-2 6-2.7 6.7-.5.4-1.5.8-2.7 1-.8.1-1.4.1-1.5.1h-4.2v5.4h4.2c.1 0 1 0 2.1-.1 2.1-.3 3.8-1 5.1-2 1.6-1.4 2.6-4.1 4.1-8.4l-4.1-3.6z"/>
    <path d="M95.5.4C85.2.4 76.9 8.9 76.9 19.5c0 2.9.6 5.6 1.7 8 .2 0 .6 0 1.1-.1 1-.1 1.6-.4 1.9-.5.2-.4.6-1.3 1-2.3-.6-1.6-.9-3.3-.9-5.1 0-1.4.2-2.8.6-4.1l13.3 11.8 4.1-3.8c-.3-1-1.2-3.7-1.7-4.8 0-.1-.1-.1-.1-.2l-2.3 2.2-10.9-9.7c2.5-3.3 6.5-5.5 10.9-5.5 4.3 0 8.2 2.1 10.8 5.3l-2.3 2.1c.5.7.9 1.4 1.2 2.2.3.6.6 1.5.9 2.5l2.5-2.3c.4 1.4.7 2.8.7 4.4 0 1.7-.3 3.3-.8 4.8.4 1.2.8 2.2 1.1 2.6.2.2.8.4 1.9.5.4.1.7.1.9.1 1.1-2.4 1.7-5.2 1.7-8C114.1 9 105.7.4 95.5.4M64.2 4.6h5.2v21.7c0 1.5.2 2.9 2.1 2.9h.8v5.4h-1.6c-2.9 0-6.4-.7-6.4-6.9V4.6z"/>
  </g>
</svg>
