<svg xmlns="http://www.w3.org/2000/svg" viewBox="0 0 173 38">
  <path d="M10,14.3c-1,0-1.8,0.4-2.4,1.3S6.7,17.9,6.7,20c0,1.1,0.1,2.1,0.2,2.8c0.1,0.7,0.3,1.3,0.6,1.7c0.3,0.4,0.6,0.7,1,0.9
	c0.4,0.2,0.8,0.3,1.3,0.3c0.6,0,1.1-0.2,1.7-0.5c0.5-0.4,1-0.9,1.4-1.5v-7.8c-0.4-0.5-0.8-0.8-1.2-1.1C11.1,14.5,10.6,14.3,10,14.3
	 M8.6,10.3c0.8,0,1.6,0.1,2.3,0.4s1.3,0.7,1.9,1.2V3.1l5.5,0.6v25.4h-4.8l-0.3-2c-0.5,0.7-1.2,1.3-2.1,1.8S9.2,29.7,8,29.7
	S5.8,29.5,4.9,29s-1.6-1.1-2.2-2s-1-1.9-1.3-3.1S1,21.4,1,19.9c0-1.4,0.2-2.7,0.5-3.9c0.3-1.2,0.8-2.2,1.5-3.1s1.4-1.5,2.4-2
	C6.3,10.6,7.4,10.3,8.6,10.3 M28.2,25.8c0.6,0,1.1-0.2,1.6-0.5s0.9-0.8,1.3-1.5v-2.9h-1c-1.5,0-2.6,0.2-3.2,0.7s-0.9,1.1-0.9,2
	c0,0.7,0.2,1.2,0.5,1.6C27,25.6,27.5,25.8,28.2,25.8z M36.4,23.9c0,0.7,0.1,1.2,0.3,1.5s0.5,0.5,0.9,0.7l-1.1,3.6
	c-1.1-0.1-2-0.3-2.7-0.7c-0.7-0.4-1.3-0.9-1.7-1.7c-0.7,0.8-1.5,1.5-2.5,1.8s-2,0.6-3.1,0.6c-0.9,0-1.8-0.1-2.5-0.4
	c-0.8-0.3-1.4-0.7-1.9-1.2s-0.9-1.1-1.2-1.8c-0.3-0.7-0.4-1.5-0.4-2.3c0-2,0.7-3.5,2.2-4.6s3.6-1.6,6.5-1.6h2.1v-0.7
	c0-1.1-0.2-1.8-0.7-2.2c-0.5-0.4-1.4-0.6-2.6-0.6c-0.5,0-1.2,0.1-2.1,0.2c-0.8,0.2-1.7,0.4-2.7,0.7L22,11.6c1.2-0.5,2.4-0.8,3.6-1
	s2.3-0.3,3.3-0.3c2.8,0,4.7,0.5,5.9,1.6s1.8,2.7,1.8,4.8v7.2C36.6,23.9,36.4,23.9,36.4,23.9z M39.8,29.1h5.5V10.9h-5.5V29.1z
	 M45.8,4.5c0,0.9-0.3,1.6-0.9,2.2s-1.4,0.9-2.3,0.9c-1,0-1.7-0.3-2.3-0.9s-0.9-1.3-0.9-2.2s0.3-1.6,0.9-2.2s1.4-0.9,2.3-0.9
	c1,0,1.7,0.3,2.3,0.9C45.5,2.8,45.8,3.5,45.8,4.5z M56.9,29.1c-0.5,0.2-1,0.3-1.6,0.4s-1.2,0.2-1.9,0.2c-1.5,0-2.7-0.4-3.6-1.3
	c-0.9-0.9-1.3-2.2-1.3-4V3.7L54,3.1V24c0,0.5,0.1,0.9,0.2,1.1c0.2,0.2,0.4,0.3,0.7,0.3s0.6-0.1,0.9-0.2
	C55.8,25.2,56.9,29.1,56.9,29.1z M68.3,29.1c-0.7,2.3-1.9,4.1-3.5,5.4s-3.9,2-6.7,2.2l-0.6-3.9c0.9-0.1,1.7-0.3,2.3-0.4
	c0.6-0.2,1.2-0.4,1.6-0.7c0.5-0.3,0.8-0.7,1.1-1.1s0.6-0.9,0.8-1.5h-1.9l-5.5-18.2h5.8l3.1,14.4H65l3.4-14.4h5.7
	C74.1,10.9,68.3,29.1,68.3,29.1z M80.8,29.1h-5.5V3.7l5.5-0.5v9.6c0.8-0.8,1.6-1.4,2.5-1.8s1.8-0.6,2.9-0.6c1.6,0,2.8,0.5,3.7,1.4
	c0.8,0.9,1.3,2.3,1.3,4v13.3h-5.5V16.6c0-0.8-0.1-1.4-0.4-1.8c-0.3-0.3-0.7-0.5-1.3-0.5c-0.5,0-1.1,0.2-1.6,0.6s-1,0.9-1.5,1.6
	C80.9,16.4,80.8,29,80.8,29.1z M102.1,14c-0.9,0-1.6,0.3-2.1,1s-0.9,1.8-1,3.3h6c0-0.6-0.1-1.2-0.2-1.8c-0.1-0.5-0.3-1-0.5-1.4
	s-0.5-0.7-0.9-0.9S102.6,14,102.1,14z M99,21.6c0.2,1.5,0.6,2.5,1.4,3.2c0.7,0.6,1.6,0.9,2.7,0.9c0.7,0,1.4-0.1,2.1-0.4
	s1.4-0.7,2.2-1.3l2.3,3.1c-0.9,0.7-1.9,1.3-3.1,1.8s-2.5,0.7-3.9,0.7c-1.6,0-2.9-0.2-4.1-0.7s-2.1-1.1-2.9-2c-0.8-0.8-1.3-1.8-1.7-3
	s-0.6-2.5-0.6-3.9c0-1.3,0.2-2.6,0.5-3.8c0.4-1.2,0.9-2.2,1.6-3.1s1.6-1.6,2.7-2.1s2.3-0.8,3.7-0.8c2.6,0,4.6,0.8,6.1,2.4
	s2.2,3.9,2.2,6.9v1c0,0.4,0,0.7-0.1,0.9H99C99,21.3,99,21.5,99,21.6z M120.9,29.1c-0.5,0.2-1,0.3-1.6,0.4s-1.2,0.2-1.9,0.2
	c-1.5,0-2.7-0.4-3.6-1.3s-1.3-2.2-1.3-4V3.7l5.5-0.6V24c0,0.5,0.1,0.9,0.2,1.1c0.2,0.2,0.4,0.3,0.7,0.3c0.3,0,0.6-0.1,0.9-0.2
	C119.8,25.2,120.9,29.1,120.9,29.1z M130.5,25.7c1,0,1.8-0.4,2.3-1.3c0.6-0.9,0.9-2.3,0.9-4.4c0-1.1-0.1-2.1-0.2-2.8
	c-0.1-0.7-0.3-1.3-0.6-1.7c-0.3-0.4-0.6-0.7-0.9-0.9c-0.4-0.2-0.8-0.3-1.2-0.3c-0.6,0-1.1,0.2-1.7,0.5c-0.5,0.4-1,0.9-1.4,1.5V24
	C128.4,25.1,129.3,25.6,130.5,25.7z M122.2,36.7V10.9h4.8l0.3,2c0.7-1,1.6-1.6,2.5-2s1.8-0.6,2.7-0.6c1.2,0,2.2,0.2,3.1,0.7
	c0.9,0.4,1.6,1.1,2.2,1.9s1,1.9,1.3,3.1s0.4,2.5,0.4,4c0,1.4-0.2,2.7-0.5,3.9c-0.3,1.2-0.8,2.2-1.4,3.1s-1.4,1.5-2.3,2
	s-1.9,0.7-3,0.7c-1.8,0-3.3-0.6-4.4-1.9v8.4C127.9,36.2,122.2,36.7,122.2,36.7z M149.6,13.9c-0.9,0-1.6,0.3-2.1,1s-0.9,1.8-1,3.3h6
	c0-0.6-0.1-1.2-0.2-1.8c-0.1-0.5-0.3-1-0.5-1.4s-0.5-0.7-0.9-0.9S150.1,13.9,149.6,13.9z M146.5,21.5c0.2,1.5,0.6,2.5,1.4,3.2
	c0.7,0.6,1.6,0.9,2.7,0.9c0.7,0,1.4-0.1,2.1-0.4c0.7-0.3,1.4-0.7,2.2-1.3l2.3,3.1c-0.9,0.7-1.9,1.3-3.1,1.8
	c-1.2,0.5-2.5,0.7-3.9,0.7c-1.6,0-2.9-0.2-4.1-0.7c-1.2-0.5-2.1-1.1-2.9-2s-1.3-1.9-1.7-3.1s-0.6-2.5-0.6-3.9c0-1.3,0.2-2.6,0.5-3.8
	c0.4-1.2,0.9-2.2,1.6-3.1s1.6-1.6,2.7-2.1s2.3-0.8,3.7-0.8c2.6,0,4.6,0.8,6.1,2.4s2.2,3.9,2.2,6.9v1c0,0.4,0,0.7-0.1,0.9h-11.1
	L146.5,21.5L146.5,21.5z M160.2,29V10.9h4.9l0.4,3.4c0.4-1.2,1.1-2.2,1.9-2.9c0.8-0.7,1.7-1,2.8-1c0.3,0,0.6,0,0.9,0.1
	c0.3,0,0.6,0.1,0.9,0.2l-0.9,5.3c-0.5-0.2-1.1-0.2-1.6-0.2s-1,0.1-1.4,0.3c-0.4,0.2-0.8,0.5-1,0.9s-0.5,0.8-0.7,1.4
	c-0.2,0.5-0.4,1.1-0.5,1.7v9L160.2,29L160.2,29z"/>
</svg>
