<svg viewBox="0 0 236 26" xmlns="http://www.w3.org/2000/svg">
  <path d="M226.2455 5.3807c-.5324 0-1.02.1-1.4607.2798-.436.1884-.8325.4488-1.177.78-.343.337-.6104.729-.798 1.176-.1887.452-.2775.934-.2775 1.4412 0 .4738.103.9404.2966 1.3955.2027.4482.4683.8515.7987 1.195.331.3443.7275.6176 1.1754.8177.456.2034.9356.299 1.4425.299.981 0 1.838-.3506 2.571-1.0578.7274-.7024 1.097-1.5846 1.097-2.6495 0-.5073-.1028-.9893-.299-1.4413-.201-.447-.4677-.8388-.798-1.1758-.3292-.3313-.727-.5917-1.1752-.78-.455-.18-.923-.28-1.3958-.28zm6.6165 15.521c.2654.2652.4592.5722.584.9026.1173.331.1754.6692.1754 1.014 0 .349-.058.6865-.1753 1.0176-.1248.3328-.3186.629-.584.8966-.5258.5077-1.1636.7593-1.8907.7593-.7335 0-1.364-.2517-1.895-.7594l-6.544-6.539v4.5844c0 .7726-.2685 1.4154-.7993 1.935-.5342.5207-1.1704.779-1.9157.779-.7138 0-1.3374-.2583-1.8715-.779-.5326-.5196-.798-1.1624-.798-1.935V9.0577c.026-1.2027.273-2.3503.7338-3.4552.467-1.1043 1.1113-2.0653 1.9357-2.8888.8228-.825 1.7852-1.4857 2.876-1.975C223.783.247 224.9658 0 226.2456 0c1.1695 0 2.298.2396 3.3892.7198 1.0914.4748 2.045 1.124 2.87 1.9345.8262.8115 1.4826 1.7687 1.973 2.8714.4948 1.102.7405 2.278.7405 3.532 0 1.916-.5184 3.623-1.5596 5.1234-1.0292 1.507-2.4144 2.6298-4.148 3.3697l3.3514 3.351zm-37.6556-8.1758c0 1.0386.188 2.007.5773 2.9103.3826.9093.9172 1.699 1.592 2.3763.681.6748 1.4732 1.2074 2.3762 1.5975.9024.3815 1.8765.5767 2.9162.5767 1.0315 0 1.9993-.1952 2.8885-.5766.8894-.39 1.675-.9226 2.3503-1.5974.682-.6772 1.2133-1.467 1.5988-2.3763.3878-.9032.5776-1.8717.5776-2.9104 0-1.039-.1898-2-.5776-2.8968-.3855-.8888-.9167-1.6743-1.5988-2.3494-.6753-.6758-1.461-1.2088-2.3503-1.5993-.8892-.3822-1.857-.577-2.8885-.577-1.0397 0-2.0138.1948-2.9163.577-.903.3905-1.6954.9235-2.3762 1.5993-.675.675-1.2095 1.4606-1.592 2.3494-.3895.897-.5774 1.858-.5774 2.8967zm-5.267 0c0-1.7524.33-3.4032.993-4.9467.6716-1.5408 1.5725-2.891 2.715-4.0535 1.1434-1.1573 2.4936-2.0637 4.0527-2.7282C199.251.3286 200.9086 0 202.6683 0c1.7517 0 3.402.3286 4.9384.9976 1.5478.6645 2.892 1.571 4.0352 2.7282 1.1408 1.1625 2.045 2.5127 2.7137 4.0535.663 1.5435.9915 3.1943.9915 4.9466 0 1.7537-.3286 3.4033-.9915 4.9484-.6688 1.5384-1.573 2.8897-2.7137 4.0445-1.143 1.163-2.4874 2.07-4.0352 2.7337-1.5363.6683-3.1867.9988-4.9384.9988-1.7597 0-3.417-.3305-4.968-.9988-1.5592-.6638-2.9094-1.5706-4.0527-2.7338-1.1426-1.155-2.0435-2.5062-2.715-4.0446-.663-1.545-.993-3.1947-.993-4.9485zM188.1418 0c.7656 0 1.4143.265 1.9353.7975.519.5342.7715 1.1684.7715 1.9162 0 .7715-.2526 1.4094-.7714 1.915-.521.5074-1.1696.752-1.9352.752h-4.467V22.778c0 .7726-.2535 1.4154-.762 1.935-.5045.5207-1.1426.779-1.9148.779-.7733 0-1.409-.2583-1.9162-.779-.5043-.5196-.7593-1.1624-.7593-1.935V5.3807h-4.5052c-.7474 0-1.377-.2446-1.896-.752-.5205-.5056-.781-1.1435-.781-1.915 0-.7478.2605-1.382.781-1.9162C172.4404.265 173.07 0 173.8174 0h14.3245zM166.874.0398c.7222 0 1.3374.265 1.8578.796.5206.5334.772 1.1572.772 1.878V22.818c0 .744-.2514 1.3752-.772 1.8947-.5204.5207-1.1356.779-1.8577.779-.7714 0-1.4138-.2583-1.9342-.779-.5192-.5196-.777-1.1508-.777-1.8948V2.7137c0-.7207.2578-1.3445.777-1.878.5204-.531 1.1628-.796 1.9343-.796zm-14.5965.0756c1.271 0 2.5018.2347 3.6686.7024 1.1683.4667 2.1964 1.1165 3.0716 1.9537.8763.8384 1.585 1.8308 2.1172 2.9742.532 1.1446.798 2.3764.798 3.7054v13.4494c0 .6895-.246 1.2858-.7406 1.7917-.493.5085-1.0957.7746-1.816.8-.7148 0-1.3303-.2345-1.851-.6994-.5203-.4623-.7805-1.0554-.7805-1.7748V9.7708c0-.6097-.1147-1.1872-.336-1.733-.2293-.5444-.546-1.0194-.961-1.4167-.4105-.4013-.8893-.7197-1.436-.9605-.5455-.2335-1.1353-.357-1.773-.357-.5923 0-1.1486.1187-1.6737.3385-.5348.227-1.0017.5265-1.3965.9034-.4023.3688-.7216.8242-.9617 1.3498-.2406.532-.3578 1.0902-.3578 1.6826v13.3226c0 .6895-.265 1.293-.7984 1.8125-.5314.5207-1.1415.779-1.8378.779-.6875 0-1.2998-.241-1.831-.72-.533-.4744-.7985-1.0594-.7985-1.7542V9.7708c.025-1.3297.2864-2.5783.779-3.7453.485-1.1684 1.1677-2.196 2.0332-3.0726.8632-.8814 1.8805-1.571 3.0514-2.0764 1.1694-.5064 2.4482-.7612 3.8305-.7612zM120.642 12.726c0 1.0386.188 2.007.579 2.9103.3822.9093.915 1.699 1.588 2.3763.683.6748 1.4756 1.2074 2.3786 1.5975.903.3815 1.8742.5767 2.915.5767 1.0333 0 1.9988-.1952 2.8896-.5766.891-.39 1.6766-.9226 2.352-1.5974.6817-.6772 1.2132-1.467 1.595-2.3763.3893-.9032.5795-1.8717.5795-2.9104 0-1.039-.1902-2-.5794-2.8968-.382-.8888-.9134-1.6743-1.595-2.3494-.6755-.6758-1.461-1.2088-2.352-1.5993-.891-.3822-1.8564-.577-2.8898-.577-1.0407 0-2.012.1948-2.915.577-.903.3905-1.6954.9235-2.3784 1.5993-.673.675-1.2058 1.4606-1.588 2.3494-.391.897-.579 1.858-.579 2.8967zm-5.2658 0c0-1.7524.3307-3.4032.992-4.9467.669-1.5408 1.5713-2.891 2.7142-4.0535 1.1426-1.1573 2.4928-2.0637 4.0533-2.7282 1.552-.669 3.206-.9976 4.9668-.9976 1.754 0 3.4013.3286 4.9423.9976 1.5435.6645 2.889 1.571 4.0318 2.7282 1.1442 1.1625 2.044 2.5127 2.715 4.0535.662 1.5435.9928 3.1943.9928 4.9466 0 1.7537-.3307 3.4033-.9927 4.9484-.671 1.5384-1.571 2.8897-2.715 4.0445-1.143 1.163-2.4884 2.07-4.032 2.7337-1.541.6683-3.188.9988-4.9422.9988-1.7608 0-3.4147-.3305-4.9668-.9988-1.5605-.6638-2.9107-1.5706-4.0533-2.7338-1.143-1.155-2.0452-2.5062-2.7142-4.0446-.6613-1.545-.992-3.1947-.992-4.9485zM94.6282 0c1.0675.0255 2.0387.2202 2.9354.577.8887.3563 1.7213.858 2.494 1.4946.714-.6896 1.5378-1.208 2.4683-1.5537C103.4593.1736 104.4 0 105.3617 0c1.1165 0 2.1712.2202 3.15.6557.9876.4418 1.8438 1.0308 2.5706 1.7784.735.741 1.313 1.6028 1.7398 2.5715.4226.974.6516 1.9995.6762 3.0907V22.778c0 .7467-.2726 1.384-.8185 1.914-.5448.5347-1.1754.8-1.8957.8-.7393 0-1.383-.2653-1.9144-.8-.535-.53-.7926-1.1673-.7926-1.914V8.3758c0-.7413-.2602-1.3757-.7797-1.8963-.519-.5127-1.1688-.773-1.936-.773-.7206 0-1.3365.2603-1.857.773-.5182.5206-.779 1.155-.779 1.8963v3.2725c0 .747-.2576 1.383-.7793 1.9164-.513.5308-1.1487.7986-1.8887.7986-.7728 0-1.4226-.2678-1.935-.7986-.5216-.5333-.7793-1.1693-.7793-1.9164V8.3758c0-.7413-.2722-1.3757-.8177-1.8963-.5477-.5127-1.1762-.773-1.8976-.773-.7213 0-1.3515.2603-1.8958.773-.5445.5206-.8172 1.155-.8172 1.8963V22.778c0 .7467-.2545 1.384-.7616 1.914-.4984.5347-1.1415.8-1.9082.8-.7465 0-1.3703-.2653-1.875-.8-.506-.53-.7615-1.1673-.7615-1.914V8.0962c.0788-1.1445.332-2.2076.7616-3.1878.4203-.9868.9854-1.8453 1.6933-2.5768.7015-.7275 1.5254-1.3 2.474-1.7146C92.479.2082 93.5106 0 94.628 0zM81.6616 20.1097c.7668 0 1.4082.265 1.9144.792.5017.5306.754 1.1623.754 1.8763 0 .7726-.2523 1.4154-.754 1.935-.506.5207-1.1475.779-1.9143.779H67.6175c-.535-.0254-1.0033-.1684-1.396-.4227-.403-.2466-.71-.577-.9164-.973-.2144-.3964-.3267-.8377-.3267-1.3183 0-.4807.137-.9543.4023-1.435l.0406-.038L76.356 5.3808h-8.8185c-.7198 0-1.3432-.2446-1.8778-.752-.5305-.5056-.798-1.1435-.798-1.915 0-.7478.2675-1.382.798-1.9162C66.1943.265 66.8177 0 67.5375 0h14.04c.5065.0255.9682.1737 1.3747.4404.4168.268.734.6026.961 1.0132.2284.4154.3402.8633.3402 1.3568 0 .4926-.1506.9816-.443 1.454L72.8038 20.1098h8.858zm-21.7397 0c.765 0 1.4096.265 1.9153.792.499.5306.752 1.1623.752 1.8763 0 .7726-.253 1.4154-.752 1.935-.5057.5207-1.1503.779-1.9153.779H45.8755c-.5337-.0254-.9987-.1684-1.3953-.4227-.4032-.2466-.7085-.577-.917-.973-.213-.3964-.3234-.8377-.3234-1.3183 0-.4807.1364-.9543.403-1.435l.038-.038L54.6164 5.3808h-8.818c-.7216 0-1.346-.2446-1.877-.752-.5338-.5056-.7992-1.1435-.7992-1.915 0-.7478.2655-1.382.7994-1.9162C44.4524.265 45.0767 0 45.7984 0h14.0375c.506.0255.968.1737 1.3775.4404.4146.268.735.6026.9603 1.0132.2277.4154.34.8633.34 1.3568 0 .4926-.152.9816-.443 1.454L51.0642 20.1098h8.8578zm-28.6433 5.265c-1.3823 0-2.6627-.2537-3.832-.758-1.169-.5068-2.189-1.1962-3.0516-2.0777-.8645-.8786-1.546-1.896-2.0313-3.0728-.4932-1.1697-.7555-2.4154-.7792-3.7468V2.472c0-.692.2656-1.2774.7993-1.7522C22.9138.2396 23.5265 0 24.214 0c.6943 0 1.306.258 1.836.7785.5348.519.7998 1.1214.7998 1.8108V15.916c0 .5883.1167 1.147.359 1.6746.238.5304.5575.9866.96 1.3552.397.3774.8623.677 1.3965.9034.5238.222 1.0823.3375 1.6754.3375.635 0 1.2264-.1224 1.771-.3564.5457-.2403 1.027-.5588 1.4367-.962.4138-.396.7322-.8675.96-1.416.221-.5444.337-1.1235.337-1.733V2.472c0-.7202.2605-1.311.7813-1.7703C37.0433.2315 37.6633 0 38.3754 0c.7216.0255 1.3242.2905 1.818.7975.4948.507.7415 1.1024.7415 1.7918l-.0002 13.4483c0 1.3315-.2665 2.5654-.7984 3.7066-.532 1.144-1.2402 2.1367-2.1176 2.9762-.8768.837-1.9018 1.4864-3.071 1.954-1.1693.4665-2.3982.7003-3.669.7003zM9.175 12.565c0-.7153.2583-1.332.7784-1.853.5204-.517 1.1377-.7794 1.8584-.7794.661-.0512 1.206-.2958 1.6366-.7394.42-.435.6342-.9586.6342-1.5768 0-.6114-.219-1.137-.6552-1.5704-.4414-.4435-.9685-.6653-1.576-.6653H5.3496v14.8455h6.462c.6863 0 1.285-.2487 1.7708-.7413.4972-.487.741-1.0806.741-1.771 0-.6632-.2328-1.2402-.693-1.7154-.469-.4798-1.0736-.746-1.8187-.7978-.7207 0-1.338-.2613-1.8584-.7794-.52-.5195-.7785-1.138-.7785-1.8564zM11.8512.0772c1.0383 0 2.017.1997 2.9547.5983.927.4003 1.7335.9403 2.4084 1.6152.6827.6814 1.22 1.488 1.6162 2.4155.404.9297.5963 1.915.5963 2.956 0 .927-.156 1.81-.4717 2.6476-.3187.8398-.7612 1.59-1.3202 2.2552.611.6932 1.0933 1.4722 1.4357 2.3375.3447.861.5206 1.799.5206 2.8115 0 1.0893-.209 2.1095-.6186 3.0504-.4167.94-.967 1.7604-1.6547 2.4565-.6963.6883-1.5198 1.239-2.4736 1.6545-.9624.4095-1.968.6164-3.0326.6164H2.7144c-.7725 0-1.4166-.2583-1.936-.779C.2605 24.1933 0 23.562 0 22.818V2.7512C0 2.0314.2604 1.409.7785.8766 1.2978.3422 1.942.0772 2.7145.0772h9.1368z"/>
</svg>
