<svg xmlns="http://www.w3.org/2000/svg" viewBox="0 0 75 86">
  <g fill-rule="evenodd">
    <path d="M71.832 61.5135c0-.8296.0295-2.1334-.416-2.9037-.2382-.4148-.8617-1.037-2.0217-1.037-.297 0-.9506.0293-1.5453.5035-1.0102.8003-1.0403 2.1928-1.0403 4.623v1.452c0 2.0146 0 4.03.03 6.0448 0 1.512 0 2.401.2082 3.052.208.623.713 1.541 2.259 1.541.861 0 1.693-.385 2.05-1.214.416-.889.446-2.607.475-4.918.029-.919.029-1.838.029-2.785 0-1.452 0-2.9033-.03-4.356zm2.5863 8.0597c0 .623-.03 1.245-.0595 1.8674-.119 1.5112-.3566 3.3185-1.5755 4.3856-.6837.593-1.724 1.0964-3.6265 1.0964-.594 0-2.8237.0887-4.072-1.6893-.1786-.2367-.4462-.6516-.6242-1.3332-.327-1.155-.327-3.586-.327-6.608 0-1.896.0293-3.762.0595-5.659.06-2.4.387-3.585 1.13-4.533.654-.829 1.872-1.718 4.25-1.718.624 0 3.211.0298 4.31 2.312.297.592.446 1.2144.506 1.8666.179 1.4816.179 4.86.149 6.312 0 1.2445-.089 2.459-.118 3.7034zM50.134 59.4694c-.5352-1.5112-2.14-1.393-3.4185-1.393h-1.2778v7.3193h1.3668c1.16 0 1.724-.03 2.2892-.2375 1.3078-.5335 1.2784-2.3702 1.2784-3.4666 0-.711 0-1.5412-.238-2.2222zm1.0402 17.157l-3.567-9.186h-2.1695v9.186h-2.5862V55.706h4.5778c1.3372 0 2.7936.0594 3.9235.9777 1.7534 1.4226 1.6343 4.1783 1.6343 4.593 0 .889-.058 1.748-.208 2.6077-.208 1.185-.534 1.778-.861 2.1928-.654.7997-1.427.9777-1.753 1.0664l3.745 9.483h-2.735zm-28.7785 0V55.706h9.2445v2.341h-6.629v6.223h5.7968v2.37h-5.7967v7.645h6.837v2.3415h-9.4526zm-14.1127 0V66.877H3.498v9.7495H.882V55.706h2.616v8.8894h4.785V55.706h2.6157v20.9205H8.283zm61.1737 8.643v-3.2132h.378v2.875h1.916v.3382h-2.294zM64.687 82.593l-.602 1.418h1.1726l-.5706-1.418zm1.1024 2.6764l-.404-.9517H63.963l-.4033.9517h-.3846l1.391-3.2132h.27l1.358 3.2132h-.404zm-6.259 0l-1.992-2.817.0186 2.817h-.3712v-3.2132h.487l1.8958 2.683-.032-2.683h.3592v3.2132h-.3653zm-7.3338-3.0025c-.7045 0-1.1533.536-1.1533 1.379 0 .869.4355 1.406 1.134 1.406.7117 0 1.16-.53 1.16-1.387 0-.843-.455-1.399-1.1407-1.399zm-.0127 3.097c-.936 0-1.557-.683-1.557-1.699 0-1.035.627-1.706 1.582-1.706.942 0 1.544.645 1.544 1.641 0 1.067-.616 1.763-1.57 1.763zm-5.371-.096h.384v-3.213h-.385v3.213zm-4.401-2.894v2.893h-.378v-2.893H40.9v-.3195h2.64v.3194h-1.127zm-5.547.217l-.603 1.418h1.172l-.57-1.418zm1.102 2.676l-.404-.952H36.14l-.403.9513h-.3846l1.3905-3.213h.269l1.358 3.2135h-.404zm-6.259 0l-1.993-2.817.019 2.817h-.3715v-3.213h.487l1.8963 2.683-.032-2.683h.3584v3.213h-.365zm-6.38-2.76c-.077-.051-.161-.0958-.257-.108-.141-.026-.25-.026-.596-.026h-.6985V83.6h.6983c.038 0 .109 0 .2116-.006.2753-.0065.371-.0192.5054-.0705.231-.0826.366-.2807.366-.5554 0-.198-.083-.364-.23-.46zm.211 2.7593l-.961-1.348h-.801v1.348h-.385v-3.213h1.096c.519 0 .7306.0137.91.077.346.1214.57.4475.57.8436 0 .5364-.339.85-.9734.92l1.032 1.3732h-.487zm-7.928 0v-3.213h2.313v.339H17.99v1.041h1.75v.332h-1.749v1.163h2.07v.3386h-2.4477zm-4.4-2.893v2.894h-.378v-2.894H11.7v-.3194h2.639v.3195h-1.127zm-5.148 2.894l-1.992-2.817.019 2.817h-.372v-3.213h.487l1.8963 2.683-.032-2.683h.359v3.2133h-.365zm-6.306 0h.385v-3.213h-.384v3.2132z"/>
    <path opacity=".3" d="M19.8006 39.3573h5.887V33.143h-5.887"/>
    <path opacity=".6" d="M18.761 40.393h5.887v-5.8688h-5.887"/>
    <path opacity=".3" d="M19.8006 22.7858h5.887v-6.2143h-5.887"/>
    <path opacity=".6" d="M18.761 23.1306h5.887v-5.8688h-5.887"/>
    <path opacity=".3" d="M19.8006 8.6312h5.887V2.417h-5.887"/>
    <path opacity=".6" d="M18.761 7.2494h5.887v-5.869h-5.887"/>
    <path opacity=".3" d="M47.8513 39.3573h5.887V33.143h-5.887"/>
    <path opacity=".6" d="M48.8902 40.393h5.887v-5.8688H48.89"/>
    <path opacity=".3" d="M47.8513 22.7858h5.887v-6.2143h-5.887"/>
    <path opacity=".6" d="M48.8902 23.1306h5.887v-5.8688H48.89"/>
    <path d="M33.999 22.7858h6.2333v-6.2143H33.999"/>
    <path d="M33.999 23.1306h6.2333v-5.8688H33.999"/>
    <path opacity=".3" d="M47.8513 8.6312h5.887V2.417h-5.887"/>
    <path opacity=".6" d="M48.8902 7.2494h5.887v-5.869H48.89"/>
    <path d="M17.3762 41.4287h6.2335V35.56h-6.2335m0-11.7385h6.2335v-5.8688h-6.2335m16.6228 5.8688h6.2333v-5.8688H33.999M17.3762 6.2143h6.2335V0h-6.2335M50.275 41.4287h5.8876V35.56H50.275m0-11.7385h5.8876v-5.8688H50.275m0-11.7384h5.8876V0H50.275"/>
  </g>
</svg>
