<svg xmlns="http://www.w3.org/2000/svg" viewBox="0 0 150 33">
  <path d="M105 19.7L99.8.4h-6.4v32.3H98V9.3l6.3 23.4h5.2V.4H105v19.3zm-29.5 13h13.8v-4.6h-8.8v-9.5h7V14h-7V5h8.8V.4H75.5v32.3zM145 .4l-3.9 14.7L137.2.4h-5.3l6.4 21.6v10.7h5.1V22L149.8.4H145zm-23.2 26.3L117.9.3h-5.1l5 32.3h7.6l5-32.3h-4.7l-3.9 26.4zM66.1 8.3c0-2.3-.8-3.3-2.6-3.3h-2.4v9.9h2c1.9 0 3-.8 3-3.4V8.3zm5.1 20.5c0 1.6 0 2.7.6 3.9h-5.2c-.3-.8-.5-1.3-.5-4v-5.1c0-3-1-4.1-3.3-4.1H61v13.2h-5.1V.4h7.7c5.3 0 7.5 2.4 7.5 7.4v2.5c0 3.3-1.1 5.5-3.3 6.6 2.5 1.1 3.4 3.5 3.4 6.9v5zM17.9 5h5.3v27.7h5.1V5h5.3V.4H17.9V5zm28.8 2.8c0-2.3-1-3.2-2.6-3.2s-2.7.9-2.7 3.2v17.5c0 2.3 1 3.2 2.6 3.2s2.6-.9 2.6-3.2V7.8h.1zm5.1.3v16.8c0 5.2-2.7 8.1-7.7 8.1s-7.7-3-7.7-8.1V8.1C36.4 3 39.1 0 44.1 0c4.9 0 7.7 3 7.7 8.1zM15.5 24.9c0 5.2-2.6 8.1-7.6 8.1S.3 30 .3 24.9v-2h4.8v2.3c0 2.3 1 3.1 2.6 3.1s2.6-.8 2.6-3.1c0-6.6-9.9-7.9-9.9-17.1C.5 3 3.1 0 8 0s7.5 3 7.5 8.1v1h-4.8V7.8c0-2.3-.9-3.2-2.5-3.2s-2.5.9-2.5 3.2c-.1 6.7 9.8 7.9 9.8 17.1z"/>
</svg>
