<svg xmlns="http://www.w3.org/2000/svg" viewBox="0 0 115 86">
  <path d="M113.4 77c0-.7-.2-1.4-.5-1.9-.3-.6-.8-1-1.4-1.3s-1.2-.5-1.9-.5-1.4.2-2 .5-1.1.8-1.4 1.4c-.3.6-.5 1.2-.5 1.9 0 1.1.4 1.9 1.1 2.6.7.7 1.6 1 2.7 1s2.1-.3 2.7-1c.8-.7 1.2-1.6 1.2-2.7zm1.2-4.8v7.7c0 1.3-.1 2.3-.4 3-.3.9-.9 1.6-1.7 2-.8.5-1.8.7-2.9.7-.8 0-1.6-.1-2.2-.4-.7-.2-1.2-.5-1.6-.9-.4-.4-.8-1-1.1-1.7h1.3c.4.6.8 1.1 1.4 1.4.6.3 1.3.5 2.1.5s1.6-.2 2.1-.5c.6-.3 1-.7 1.2-1.2s.4-1.2.4-2.3V80c-.5.6-1 1-1.7 1.4-.7.3-1.4.5-2.1.5-.9 0-1.7-.2-2.5-.7-.8-.4-1.4-1-1.8-1.8-.4-.7-.6-1.6-.6-2.4 0-.9.2-1.7.7-2.5.4-.8 1.1-1.4 1.8-1.8.8-.4 1.6-.7 2.5-.7.7 0 1.4.2 2 .4.6.3 1.2.8 1.8 1.5v-1.7h1.3zm-14.8.3c-.6-.4-1.2-.6-1.9-.6s-1.4.2-2 .5-1.2.8-1.6 1.5v-1.7h-1.2v9.6h1.2v-3.5c0-1.3.1-2.1.2-2.6.2-.7.6-1.3 1.2-1.8s1.3-.7 2-.7 1.2.2 1.6.5c.4.3.7.8.8 1.4.1.4.1 1.1.1 2.2v4.6h1.2v-5c0-1.3-.1-2.3-.4-2.9-.2-.6-.6-1.1-1.2-1.5zm-11.4 9.4h1.2v-9.6h-1.2v9.6zm.6-13.6c-.3 0-.5.1-.7.3s-.3.4-.3.7.1.5.3.7.4.3.7.3.5-.1.7-.3.3-.4.3-.7-.1-.5-.3-.7-.4-.3-.7-.3zm-4.8 4.1c-.4.3-.8.7-1.2 1.2v-1.4h-1.3v9.6H83v-3.3c0-1.7.1-2.8.2-3.3.2-.7.5-1.2.9-1.6.4-.3.8-.5 1.2-.5.2 0 .4.1.7.2l.6-1c-.4-.2-.8-.3-1.1-.3-.5 0-.9.1-1.3.4zm-6.6 3.7c-.2-.7-.4-1.2-.7-1.6-.3-.4-.7-.7-1.3-1-.5-.2-1.1-.4-1.6-.4-.9 0-1.8.3-2.4.9-.5.4-.9 1.1-1.1 2l7.1.1zm1.4 1.1h-8.6c0 1.1.4 2 1.1 2.8.7.7 1.5 1.1 2.6 1.1.5 0 1-.1 1.4-.3.5-.2.9-.4 1.2-.7.3-.3.7-.7 1.1-1.4l1 .5c-.3.7-.7 1.2-1.2 1.6s-1 .7-1.5.9c-.6.2-1.2.3-1.9.3-1.6 0-2.8-.5-3.7-1.5-.9-1-1.3-2.2-1.3-3.5 0-1.2.4-2.3 1.1-3.3.9-1.2 2.2-1.8 3.8-1.8 1.6 0 2.9.6 3.9 1.9.6.9 1 2 1 3.4zm-14-1.1c-.2-.7-.4-1.2-.7-1.6-.3-.4-.7-.7-1.3-1-.5-.2-1.1-.4-1.6-.4-.9 0-1.8.3-2.4.9-.5.4-.9 1.1-1.1 2l7.1.1zm1.3 1.1h-8.6c0 1.1.4 2 1.1 2.8.7.7 1.5 1.1 2.6 1.1.5 0 1-.1 1.4-.3.5-.2.9-.4 1.2-.7.3-.3.7-.7 1.1-1.4l1 .5c-.3.7-.7 1.2-1.2 1.6s-1 .7-1.5.9c-.6.2-1.2.3-1.9.3-1.6 0-2.8-.5-3.7-1.5s-1.3-2.2-1.3-3.5c0-1.2.4-2.3 1.1-3.3.9-1.2 2.2-1.8 3.8-1.8s2.9.6 3.9 1.9c.6.9 1 2 1 3.4zm-14.6-4.7c-.6-.4-1.2-.6-1.9-.6s-1.4.2-2 .5-1.1.8-1.6 1.5v-1.7H45v9.6h1.2v-3.5c0-1.3.1-2.1.2-2.6.2-.7.6-1.3 1.2-1.8s1.3-.7 2-.7 1.2.2 1.6.5c.4.4.7.9.8 1.5.1.4.1 1.1.1 2.2V82h1.2v-5c0-1.3-.1-2.3-.4-2.9s-.7-1.2-1.2-1.6zm-11.5 9.4h1.2v-9.6h-1.2v9.6zm.6-13.6c-.3 0-.5.1-.7.3s-.3.4-.3.7.1.5.3.7c.2.2.4.3.7.3s.5-.1.7-.3.3-.4.3-.7-.1-.5-.3-.7-.4-.3-.7-.3zM35.6 77c0-.7-.2-1.4-.5-1.9-.3-.6-.8-1-1.4-1.3-.6-.3-1.2-.5-1.9-.5s-1.4.2-2 .5-1.1.8-1.4 1.4c-.3.6-.5 1.2-.5 1.9 0 1.1.4 1.9 1.1 2.6.7.7 1.6 1 2.8 1 1.1 0 2.1-.3 2.7-1 .8-.7 1.1-1.6 1.1-2.7zm0-4.8h1.2v7.7c0 1.3-.1 2.3-.4 3-.3.9-.9 1.6-1.7 2-.8.5-1.8.7-2.9.7-.8 0-1.6-.1-2.2-.4-.7-.2-1.2-.5-1.6-.9s-.8-1-1.1-1.7h1.3c.4.6.8 1.1 1.4 1.4s1.3.5 2.1.5 1.6-.2 2.1-.5c.6-.3 1-.7 1.2-1.2s.4-1.2.4-2.3V80c-.5.6-1 1-1.7 1.4-.7.3-1.4.5-2.1.5-.9 0-1.7-.2-2.5-.7-.8-.4-1.4-1-1.8-1.8-.4-.7-.6-1.6-.6-2.4 0-.9.2-1.7.7-2.5.4-.8 1.1-1.4 1.8-1.8.8-.4 1.6-.7 2.5-.7.7 0 1.4.2 2 .4.6.3 1.2.8 1.8 1.5l.1-1.7zm-13.5.3c-.6-.4-1.2-.6-1.9-.6s-1.4.2-2 .5-1.1.8-1.6 1.5v-1.7h-1.2v9.6h1.2v-3.5c0-1.3.1-2.1.2-2.6.2-.7.6-1.3 1.2-1.8s1.3-.7 2-.7 1.2.2 1.6.5.7.8.8 1.4c.1.4.1 1.1.1 2.2v4.6h1.2v-5c0-1.3-.1-2.3-.4-2.9-.2-.6-.7-1.1-1.2-1.5zM4.9 81.9h7.4v-1.3H6.2v-5.1h6.1v-1.3H6.2v-4.1h6.2v-1.3H4.9v13.1zm101-21.7c0-1.4.1-2.3.1-2.7.2-.8.5-1.4 1-1.9s1.1-.7 1.7-.7c.5 0 .9.1 1.3.4s.6.7.7 1.2.2 1.6.2 3.1v5.9h3.3v-8.7c0-1.5-.4-2.7-1.1-3.4-.9-.9-2-1.4-3.3-1.4-.6 0-1.3.1-1.9.4-.6.2-1.3.7-2 1.3v-1.3h-3.3v13.1h3.3v-5.3zm-13.4 2.6c1 0 1.9-.4 2.6-1.1.7-.7 1-1.7 1-2.8s-.3-2.1-1-2.8-1.6-1.1-2.6-1.1-1.9.4-2.6 1.1c-.7.7-1 1.7-1 2.8s.3 2.1 1 2.8 1.5 1.1 2.6 1.1zm1.5 2.6c-.7.3-1.4.4-2.1.4-1.7 0-3.2-.7-4.4-2s-1.9-3-1.9-4.9c0-2 .6-3.7 1.8-5s2.7-2 4.4-2c.8 0 1.5.2 2.2.5s1.3.7 1.9 1.3v-1.5h3.3v13.4h-3.3v-1.4c-.6.5-1.3.9-1.9 1.2zm-14.1.1h3.3V52.3h-3.3v13.2zm1.6-14.4c.6 0 1.1-.2 1.5-.6s.6-.9.6-1.5-.2-1.1-.6-1.5c-.4-.4-.9-.6-1.5-.6s-1.1.2-1.5.6c-.4.4-.6.9-.6 1.5s.2 1.1.6 1.5c.5.4 1 .6 1.5.6zM68 61.7c.7.7 1.5 1.1 2.6 1.1 1 0 1.9-.4 2.6-1.1s1-1.7 1-2.8-.3-2.1-1-2.8-1.5-1.1-2.6-1.1c-1 0-1.9.4-2.6 1.1s-1 1.6-1 2.8c0 1.1.3 2.1 1 2.8zm1.1 3.7c-.7-.3-1.3-.7-2-1.3v1.4h-3.3V47.2h3.3v6.5c.6-.6 1.2-1 1.9-1.3.7-.3 1.4-.5 2.2-.5 1.7 0 3.2.7 4.4 2 1.2 1.3 1.8 3 1.8 5s-.6 3.6-1.9 4.9c-1.2 1.3-2.7 2-4.4 2-.7 0-1.4-.1-2-.4zm-12.3-3.8c.7-.7 1-1.6 1-2.8 0-1.1-.3-2-1-2.8-.7-.7-1.5-1.1-2.6-1.1-1 0-1.9.4-2.6 1.1s-1 1.6-1 2.7c0 1.2.3 2.1 1 2.8.7.7 1.5 1.1 2.6 1.1s1.9-.2 2.6-1zm.9 3.3c-1.1.6-2.2.9-3.5.9-1.9 0-3.5-.7-4.8-2s-2-3-2-4.9c0-2.1.8-3.8 2.3-5.1 1.2-1.3 2.7-1.9 4.4-1.9 1.2 0 2.4.3 3.5.9s1.9 1.5 2.6 2.5c.6 1.1.9 2.2.9 3.5 0 1.2-.3 2.4-.9 3.5s-1.4 2-2.5 2.6zm-18.9-2.1c-1.2 0-2.2-.4-2.9-1.1s-1.1-1.6-1.1-2.8.4-2.1 1.1-2.8c.8-.7 1.8-1.1 3-1.1.7 0 1.3.1 1.8.3s1 .6 1.5 1.1l2.8-1.5c-.7-1-1.5-1.7-2.6-2.2s-2.2-.8-3.5-.8c-1.4 0-2.7.3-3.8.9s-2 1.5-2.7 2.5c-.6 1.1-1 2.3-1 3.5 0 1.8.7 3.5 2 4.8 1.3 1.4 3.1 2.1 5.4 2.1 2.6 0 4.6-.9 6-2.8l-2.6-1.8c-.8 1.2-2 1.7-3.4 1.7zm-13.2-4c0-1.1-.3-2.1-1-2.8S23 54.9 22 54.9s-1.9.4-2.6 1.1-1 1.7-1 2.8.3 2.1 1 2.8 1.5 1.1 2.6 1.1c1 0 1.9-.4 2.6-1.1.6-.6 1-1.6 1-2.8zm-.2 6.7v-1.4c-.6.6-1.3 1.1-1.9 1.3-.7.3-1.4.4-2.1.4-1.7 0-3.2-.7-4.4-2s-1.9-3-1.9-4.9c0-2 .6-3.7 1.8-5 1.2-1.3 2.7-2 4.4-2 .8 0 1.5.2 2.2.5s1.3.7 1.9 1.3v-1.5h3.3v13.4c0-.1-3.3-.1-3.3-.1zm-15.3-.3c.7-.5 1.2-1.1 1.5-1.8.3-.8.5-2.1.5-4V47.6H8.7v12.5c0 1-.1 1.7-.3 2s-.4.5-.8.5-.7-.1-1.1-.3c-.4-.2-.8-.6-1.4-1.2l-2.4 2.3c1.4 1.7 3.1 2.6 5 2.6.8-.1 1.7-.3 2.4-.8zm7.1-31.3h9.9c.7 0 1.2-.5 1.2-1.2v-7.2c.9.4 1.9.6 2.9.6h14.2v14c0 2.4 3 4.8 5.4 4.8h61.6v-.5c0-10.8-8.7-19.5-19.5-19.5-4.4 0-8.5 1.5-11.7 3.9 1.8-2 4.1-3.5 6.6-4.6-4.7-7.7-13.2-12.9-22.9-12.9-4.4 0-8.5 1.1-12.2 2.9v-.4c4-2.7 8.7-4.3 13.9-4.5-5.3-5-12.4-8.2-20.2-8.5-.4-.2-1-.3-1.5-.3H23.2v17.6c0 1.3.3 2.5.9 3.6h-6.9c-.7 0-1.2.5-1.2 1.2v9.9c0 .6.5 1.1 1.2 1.1zm-8.5 8.6h6.9c.5 0 .8-.4.8-.8v-6.9c0-.5-.4-.8-.8-.8H8.7c-.5 0-.8.4-.8.8v6.9c0 .5.4.8.8.8zm-1.1-9.6v-5.8c0-.4-.3-.7-.7-.7H1.1c-.4 0-.7.3-.7.7v5.8c0 .4.3.7.7.7h5.8c.3 0 .7-.3.7-.7zm36.5-1H41v4.7c0 .3-.3.6-.6.6h-4.6c-.3 0-.6-.3-.6-.6V32c0-.3.3-.6.6-.6h4.5v-3.3c0-.2.2-.4.4-.4h3.4c.2 0 .4.2.4.4v3.4c0 .2-.2.4-.4.4z"/>
</svg>
