<svg xmlns="http://www.w3.org/2000/svg" viewBox="0 0 162 62">
  <path d="M81.4 14.1c3 1.5 6 1.1 8.6-1 3.5-2.8 3.3-7.8-.4-10.3-2.5-1.7-5.2-1.9-7.9-.5-2.4 1.3-3.9 3.3-4 5.8.1 3 1.4 4.9 3.7 6zm-2.2 45.4h11.7V19.1H79.2v40.4zM58 3.3v35.3c0 3.3.1 6.7.3 10 .2 3.5.9 6.9 2.2 10.2.2.6.6.8 1.2.8h10.6v-.3c-1.8-6.2-2.5-12.5-2.4-18.9.1-12.3 0-24.7 0-37 0-.2.1-.4 0-.6s-.3-.5-.4-.5H58.1l-.1 1zM14.3 32.7h11.5c-.1-2.1-.7-3.9-2.1-5.4-1.3-1.5-3.7-2.1-5.4-1.1-2.5 1.4-3.5 3.8-4 6.5zm16.8 14.7c1.1 2.4 2.2 4.6 3.2 6.9.1.2 0 .7-.2.8-4.2 3.3-8.9 5.4-14.3 5.7-5.8.3-10.8-1.8-14-6.7C1 46.6 0 38.5 3 30.2c2.4-6.6 7.3-10.7 14.3-12.1 9.7-1.9 18.7 5 19.5 14.8.2 2.2.2 4.5.3 6.7 0 .7-.1.8-.8.8H14.4c-.8 0-1 .2-1 1 .1 2.3.4 4.4 1.5 6.5s2.8 3.2 5.2 3.1c3.8-.1 7.4-1.2 10.6-3.3.1-.1.2-.1.4-.3zm87.1-46.2c-.2.1-.3.1-.5.2-3.4.5-6.6 1.5-9.4 3.5s-4.6 4.7-4.9 8.2c-.2 1.8-.2 3.5-.2 5.3 0 .6-.2.8-.8.8h-3.3v8.2c0 .1.3.4.4.4.9.2 1.8.4 2.6.4s1 .4 1 1.2v30.1h12V28.8h6.1V20c0-.7-.2-.9-.9-.9H115v-2.9c-.1-2.3.9-4 2.9-5.1 1.2-.6 2.4-1.1 3.7-1.6-.6-2.7-1.2-5.5-1.7-8.4h-1.7v.1zm31.3 31.1c-.1-2.2-.7-4-2.2-5.6-1.3-1.4-3.5-1.8-5.2-1.1-2 .9-4.2 4.4-4 6.6l11.4.1zm11.2 7.6H138c-.8 0-.9.2-.9.9 0 2.4.4 4.7 1.6 6.8 1 1.8 2.6 2.9 4.7 2.9 4.1 0 7.9-1.2 11.4-3.5 1.1 2.4 2.2 4.7 3.3 7.1.1.1 0 .5-.1.5-5.7 4.2-11.8 6.9-19.1 5.4-4.6-1-8.1-3.6-10.3-7.8-3.7-7-4.7-14.3-2.2-21.8 2.4-7.1 7.4-11.5 14.9-12.8 10-1.8 19.1 5.9 19.2 16 0 .3.1.6.2.9v5.4zM50.9 55.2c4.1-2.8 4-8.4-.1-11-3-1.8-7.2-1.3-9.6 1.3-1.3 1.4-2.1 3.1-1.8 5.1.4 3.5 3.4 5.9 7 5.9 1.6.2 3.1-.3 4.5-1.3"/>
</svg>
