<svg xmlns="http://www.w3.org/2000/svg" viewBox="0 0 178 58">
  <path d="M20.2 44.9H7.6c-.7 0-1.3.5-1.5 1.2l-2.3 9.8c-.1.4 0 .9.3 1.3s.7.6 1.2.6h12.6c.7 0 1.3-.5 1.5-1.2l2.3-9.8c.1-.4 0-.9-.3-1.3s-.8-.6-1.2-.6zm-3.6 9.8H7.2l1.6-6.8h9.5l-1.7 6.8z"/>
  <path d="M75.5 34.4h3.4c.2 0 .3-.1.5-.2s.3-.3.3-.5l2.1-9.8 1.8 5.3c.1.4.4.6.8.6h1.4c.4 0 .7-.2 1.1-.6l3.9-5.1-2 9.5c0 .2 0 .3.1.5.1.1.3.2.5.2h3.4c.2 0 .4-.1.5-.2.2-.1.2-.3.3-.5l3.7-17.3c0-.2 0-.4-.1-.5-.1-.1-.3-.2-.5-.2h-3c-.2 0-.5.1-.6.2-.2.1-.3.3-.4.4l-6.3 8.2-2.8-8.2c-.1-.2-.2-.3-.3-.4-.1-.1-.3-.2-.6-.2h-3c-.2 0-.4.1-.5.2-.2.1-.3.3-.3.5l-3.7 17.3c0 .2 0 .4.1.5s0 .3.2.3z"/>
  <path d="M96.9 34.2c.1.1.3.2.5.2h12.8c.2 0 .3-.1.5-.2s.3-.3.3-.5l.6-2.6c0-.2 0-.4-.1-.5-.1-.1-.2-.2-.4-.2h-8.6l.7-3.5h7.8c.2 0 .4-.1.5-.2.2-.1.3-.3.3-.5l.5-2.4c0-.2 0-.4-.1-.5-.1-.1-.2-.2-.4-.2H104l.7-3.4h8.4c.2 0 .4-.1.5-.2.2-.1.3-.3.3-.5l.6-2.6c0-.2 0-.4-.1-.5-.1-.1-.2-.2-.4-.2h-12.6c-.2 0-.4.1-.5.2-.2.1-.3.3-.3.5l-3.7 17.3c-.1.2-.1.4 0 .5z"/>
  <path d="M115.6 20.1h4.7l-2.9 13.6c0 .2 0 .4.1.5s.3.2.5.2h3.7c.2 0 .4-.1.5-.2.2-.1.2-.3.3-.5l2.9-13.6h4.7c.2 0 .4-.1.5-.2s.2-.3.3-.5l.7-3c0-.2 0-.4-.1-.5-.1-.1-.3-.2-.5-.2h-14.4c-.2 0-.4.1-.5.2-.2.1-.3.3-.3.5l-.6 3c0 .2 0 .4.1.5-.1.2.1.2.3.2z"/>
  <path d="M126.2 33.9c0 .1 0 .3.1.4.1.1.2.1.4.1h3.6c.4 0 .8-.2 1-.6l1.5-2.6h6.9l.4 2.5c.1.4.3.6.8.6h3.4c.2 0 .4-.1.5-.2.1-.1.2-.3.2-.6l-2.6-17c-.1-.5-.4-.8-.9-.8h-4.3c-.5 0-.9.3-1.2.8l-9.8 17v.4zm12.5-13.4l.9 6.8h-4.7l3.8-6.8z"/>
  <path d="M92.2 39.3c-.1-.1-.3-.2-.5-.2h-3c-.2 0-.5.1-.6.2-.2.1-.3.3-.4.4l-6.3 8.2-2.8-8.2c-.1-.2-.2-.3-.3-.4s-.3-.2-.6-.2h-3c-.2 0-.4.1-.5.2-.2.1-.3.3-.3.5l-3.7 17.3c0 .2 0 .4.1.5.1.1.3.2.5.2h3.4c.2 0 .3-.1.5-.2s.3-.3.3-.5l2.1-9.8 1.8 5.3c.1.4.4.6.8.6H81c.4 0 .7-.2 1.1-.6l3.9-5.1-2 9.5c0 .2 0 .3.1.5s.3.2.5.2H88c.2 0 .4-.1.5-.2.2-.1.2-.3.3-.5l3.7-17.3c-.1-.1-.1-.2-.3-.4z"/>
  <path d="M105.4 39.1h-4.3c-.5 0-.9.3-1.2.8L90 57v.3c0 .1 0 .3.1.4.1.1.2.1.4.1h3.6c.4 0 .8-.2 1-.6l1.5-2.6h6.9l.4 2.5c.1.4.3.6.8.6h3.4c.2 0 .4-.1.5-.2.1-.1.2-.3.2-.6l-2.6-17c0-.5-.3-.8-.8-.8zm-6.8 11.5l3.8-6.8.9 6.8h-4.7z"/>
  <path d="M124 39.6c-1.1-.5-2.3-.7-3.6-.7-2.3 0-4.1.5-5.5 1.4-1.4.9-2.3 2.3-2.7 3.9-.1.4-.2.9-.2 1.3 0 2.4 1.8 4 5.3 4.7 1.4.3 2.4.6 3 .9.5.2.8.6.8 1v.3c-.1.5-.5.9-1.1 1.2s-1.4.4-2.3.4c-.8 0-1.4-.1-1.8-.4-.4-.3-.7-.6-.9-1.1-.1-.2-.2-.3-.4-.4-.1-.1-.3-.1-.5-.1h-3.6c-.2 0-.3.1-.4.2-.1.1-.2.2-.2.4 0 .3-.1.5-.1.6 0 .9.3 1.7.9 2.4s1.4 1.3 2.5 1.7c1.1.4 2.5.6 4 .6 2.5 0 4.6-.5 6.1-1.4 1.5-.9 2.5-2.3 2.9-4.1.1-.4.1-.8.1-1.3 0-1.2-.5-2.2-1.4-3-.9-.7-2.4-1.3-4.4-1.7-1.3-.3-2.1-.5-2.6-.8s-.7-.6-.7-1v-.3c.1-.5.4-.9.9-1.2.5-.3 1.1-.4 1.8-.4.6 0 1.1.1 1.5.4.4.3.6.6.6.9.1.3.4.5.8.5h3.8c.2 0 .3-.1.4-.2s.2-.3.2-.4c0-.2.1-.4.1-.5 0-.7-.3-1.5-.9-2.2-.5-.5-1.4-1.1-2.4-1.6z"/>
  <path d="M144.2 43.3c.2-.1.2-.3.3-.5l.7-3c0-.2 0-.4-.1-.5s-.3-.2-.5-.2h-14.4c-.2 0-.4.1-.5.2-.2.1-.3.3-.3.5l-.6 3c0 .2 0 .4.1.5.1.1.3.2.5.2h4.7L131 57.1c0 .2 0 .4.1.5.1.1.3.2.5.2h3.7c.2 0 .4-.1.5-.2.2-.1.2-.3.3-.5l2.9-13.6h4.7c.2 0 .4-.1.5-.2z"/>
  <path d="M160.4 39.3c-.1-.1-.2-.2-.4-.2h-12.6c-.2 0-.4.1-.5.2-.2.1-.3.3-.3.5l-3.7 17.3c0 .2 0 .4.1.5.1.1.3.2.5.2h12.8c.2 0 .3-.1.5-.2s.3-.3.3-.5l.6-2.6c0-.2 0-.4-.1-.5s-.2-.2-.4-.2h-8.6l.7-3.5h7.8c.2 0 .4-.1.5-.2.2-.1.3-.3.3-.5l.5-2.4c0-.2 0-.4-.1-.5-.1-.1-.2-.2-.4-.2H150l.7-3.4h8.4c.2 0 .4-.1.5-.2.2-.1.3-.3.3-.5l.6-2.6c.1-.2 0-.3-.1-.5z"/>
  <path d="M176.5 40.3c-1.1-.8-2.7-1.2-4.7-1.2h-7.3c-.2 0-.4.1-.5.2-.2.1-.3.3-.3.5L160 57.1c0 .2 0 .4.1.5.1.1.2.2.4.2h3.6c.2 0 .4-.1.5-.2.2-.1.3-.3.3-.5l1.2-5.8h2.6l1.7 5.8c.1.5.4.7.9.7h3.8c.2 0 .3-.1.4-.2.1-.1.2-.2.3-.4v-.3l-2.2-6.5c1.1-.5 2.1-1.2 2.8-2s1.3-1.9 1.5-3.2c.1-.5.2-1 .2-1.5 0-1.4-.5-2.6-1.6-3.4zm-3.7 4.9c-.1.7-.5 1.2-.9 1.6-.5.4-1.1.6-1.9.6h-3l1-4.4h3c.6 0 1.1.1 1.4.4.3.3.5.7.5 1.2 0 .3 0 .5-.1.6z"/>
  <path d="M67.1 39.2H62l4.3-20.4H72c.8 0 1.5-.7 1.5-1.5s-.7-1.5-1.5-1.5h-5.1l2.9-14c.1-.4 0-.9-.3-1.3-.3-.3-.7-.5-1.2-.5H55.8c-.7 0-1.3.5-1.5 1.2l-3.1 14.7H8c-.8 0-1.5.7-1.5 1.5s.7 1.5 1.5 1.5h42.6l-4.3 20.4h-3.9l3.1-14.9c.1-.4 0-.9-.3-1.3s-.7-.6-1.2-.6H31.5c-.7 0-1.3.5-1.5 1.2l-3.2 15.5H1.4c-.8 0-1.5.7-1.5 1.5s.7 1.5 1.5 1.5h24.9L23.4 56c-.1.4 0 .9.3 1.3s.7.6 1.2.6h12.6c.7 0 1.3-.5 1.5-1.2l3-14.4h3.8l-2.9 13.8c-.1.4 0 .9.3 1.3s.7.6 1.2.6H57c.7 0 1.3-.5 1.5-1.2l3-14.4h5.8c.8 0 1.5-.7 1.5-1.5s-.9-1.7-1.7-1.7zM57 3h9.5l-2.7 12.9h-9.5L57 3zm-3.3 15.8h9.5l-4.3 20.4h-9.5l4.3-20.4zm-20.9 6.6h9.5l-2.9 13.7h-9.5l2.9-13.7zm3.4 29.3h-9.5l2.6-12.6h9.5l-2.6 12.6zm19.4 0h-9.5l2.6-12.6h9.5l-2.6 12.6z"/>
</svg>
