<svg xmlns="http://www.w3.org/2000/svg" viewBox="0 0 240 68">
  <path d="M206.8 17.2a12 12 0 0 0-2.94 8.5 11.94 11.94 0 0 0 17.2 10.42c5-2.51 8.95-10.17 5.33-16.86A12.28 12.28 0 0 0 214.13 13a10.92 10.92 0 0 0-7.33 4.25m6.4-17s.94-.08 2-.08c.79 0 1.89.08 1.89.08a23.37 23.37 0 0 1 9.74 3.15 7.83 7.83 0 0 0 .95.54v-3H240v48h-12.25v-3l-.51.36a21 21 0 0 1-11.9 3.45 22 22 0 0 1-12.4-3.56A24.47 24.47 0 0 1 191.6 25 24.83 24.83 0 0 1 198 8.16 22 22 0 0 1 213.2.21z"/>
  <path d="M52.81.89H65v26.36s-.17 4.1 1.7 6.62a8.29 8.29 0 0 0 6.72 3.5 9 9 0 0 0 6.76-3.54c1.8-2.37 2-6.58 2-6.58V.89h12.25v48H82.18v-1.8a20.79 20.79 0 0 1-11.82 2.6 17.66 17.66 0 0 1-12.2-6.17c-2.54-2.83-5.39-8.19-5.39-15.67v-27z"/>
  <path d="M160.32.89c3.6 10.19 7.27 20.31 10.8 30.57 1.06-2.39 2-5 2.93-7.54 2.68-7.55 5.33-15.31 8-23h13.07c-5.6 16.08-11.42 31.87-16.93 48h-13.87c-5.4-15.7-11-31.1-16.39-46.82l-.41-1.21z"/>
  <path d="M118.61.21s.94-.08 2-.08c.79 0 1.89.08 1.89.08a23.37 23.37 0 0 1 9.74 3.15 7.83 7.83 0 0 0 .95.54v-3h12.25v48h-12.29v-3l-.51.36a21 21 0 0 1-11.9 3.45 22 22 0 0 1-12.4-3.56A24.47 24.47 0 0 1 97 25a24.83 24.83 0 0 1 6.4-16.86A22 22 0 0 1 118.61.21zm-6.4 17a12 12 0 0 0-2.93 8.5 11.94 11.94 0 0 0 17.2 10.42c5-2.51 9-10.17 5.33-16.86A12.28 12.28 0 0 0 119.54 13a10.92 10.92 0 0 0-7.33 4.2z"/>
  <path d="M15.18 52.32a12.09 12.09 0 0 0 8.93 3.75C33.46 56 34.93 50.86 35 46.81v-.23l-.13.09a20.84 20.84 0 0 1-9.6 3 25.48 25.48 0 0 1-13.29-3C5.41 43.05 1.1 36.65.09 27.07c0 0-.1-1.49-.09-2.2S.09 23 .09 23a26 26 0 0 1 6.8-15.53A23 23 0 0 1 21.56.21S22.63.13 23.4.13s2 .08 2 .08A23.54 23.54 0 0 1 36.11 4V.89h12.25v44.43C48.36 52 47 57.06 43 61.15c-4.43 4.45-11.78 7.2-20.46 6.65a23.93 23.93 0 0 1-15.35-6.89zM19 13.92a12.32 12.32 0 0 0-6.67 9.73c-.94 11 10.41 16.77 18.13 11.93a12.52 12.52 0 0 0-.8-21.52A12.79 12.79 0 0 0 22.63 13a11.49 11.49 0 0 0-3.6 1z"/>
</svg>
