<svg width="122" height="161" viewBox="0 0 122 161" xmlns="http://www.w3.org/2000/svg">
  <path d="M90.0865 57.4415c0 9.5642-5.5684 17.495-11.5442 21.2356-3.245 2.032-6.8084 3.126-10.3977 3.402-13.6105 1.046-27.603-9.826-26.11-27.396.0063-.071.018-.14.0252-.212.8177-8.641 6.5363-15.902 13.3966-19.364 1.8816-.95 4.5282-1.596 7.248-1.931 5.1555-.637 10.727.345 14.2276 2.208 6.4853 3.449 13.1545 11.614 13.1545 22.06zm-.3947-42.4946c-5.9356-3.826-12.6064-6.469-21.3483-7.419 0 0-2.4815-.157-4.0918-.157-1.5513 0-3.6955.157-3.6955.157-8.686.927-16.2587 3.953-22.4994 8.414-2.575 1.839-4.9276 3.917-7.03 6.201-7.109 7.725-12.6136 18.316-13.6908 31.158 0 0-.1856 2.169-.1903 3.852-.003 1.43.1903 4.422.1903 4.422 2.0262 19.269 10.7107 32.146 23.9768 39.418 8.9235 4.889 18.906 6.531 26.7594 6.083 7.4846-.4256 14.658-3.072 19.329-6.064l.2675-.185s-.007.38 0 .4593c-.188 8.149-3.1585 18.395-21.975 18.626-11.4804.139-17.9822-7.555-17.9822-7.555l-16.0817 17.3c7.7896 7.4315 17.891 13.029 30.833 13.8522 17.4744 1.1122 32.3044-4.418 41.227-13.3766.9507-.953 1.8196-1.936 2.627-2.944 6.163-7.6905 8.3063-17.007 8.3063-28.9056V8.6314H89.848l.0023 6.3156v.1c-.052-.034-.106-.067-.158-.101zm-17.27 58.62c-1.9215.81-3.998 1.239-6.1218 1.239-3.0775 0-6.1487-.881-8.8818-2.548-5.7242-3.49-8.653-9.67-8.0342-16.954.143-1.679.577-3.332 1.2454-4.896.3287-.052.6636-.101 1.0072-.143.828-.102 1.6874-.155 2.5547-.155 3.7953 0 6.9326.953 8.465 1.77C67.609 54.514 72.94 61.046 72.94 69.165c0 1.529-.189 3-.518 4.4016zm2.3055-34.044c-1.8438-.982-5.1666-1.854-8.8032-1.854-.868 0-1.754.049-2.643.16-2.365.291-4.444.823-5.706 1.461l-.002.001c-4.803 2.424-8.474 6.839-10.06 11.832-.409 1.288-.687 2.613-.8 3.954-.708 8.333 2.685 15.429 9.309 19.467 3.213 1.959 6.769 2.94 10.279 2.94 1.719 0 3.426-.236 5.077-.707 1.628-.464 3.201-1.155 4.674-2.078 4.65-2.91 9.342-9.377 9.342-17.26 0-8.416-5.528-15.187-10.664-17.918zm44.59 58.764c0 15.775-3.793 26.619-12.3 35.159-1.5693 1.575-3.2818 3.022-5.0997 4.363-9.2458 6.813-21.5196 10.536-34.994 10.536-1.571 0-3.1586-.051-4.7595-.153-12.731-.81-24.094-5.904-33.776-15.141l-3.348-3.1955 20.298-21.836c-2.173-.8416-4.279-1.816-6.281-2.9135-15.178-8.32-24.303-23.2035-26.389-43.041l-.016-.188c-.021-.323-.203-3.1947-.199-4.738.006-1.855.199-4.142.207-4.2386 1.16-13.84 6.856-24.068 12.277-30.852.892-1.1177 1.778-2.1516 2.634-3.082C36.008 9.8 47.242 4.231 60.059 2.863l.1565-.014c.094-.0073 2.335-.169 4.0373-.169 1.739 0 4.28.1594 4.388.1656l.2106.018C74.806 3.511 80.13 4.9 85.153 7.1466l-.0018-3.206h34.1663v94.3467zm0-97.027h-36.85l.0008 1.921C78.319 1.701 73.924.72 69.141.2l-.029-.003-.0292-.002-.21-.019-.0353-.003-.0354-.0027C68.137.1303 65.89 0 64.252 0c-1.8367 0-4.213.1752-4.2365.1768l-.0202.0016L59.975.18l-.1565.014-.022.002-.0237.0022c-13.4743 1.4386-25.293 7.302-34.177 16.956-1.6692 1.814-3.44 3.9794-5.1736 6.477-1.7213 2.0735-3.996 4.9656-4.695 5.7254C9.5932 36.023 1.5782 48.2442.21 64.5592c-.0023.022-.2052 2.3805-.21 4.3046-.0054 1.6474.199 4.7572.2022 4.8012l.0173.202c2.112 20.082 11.365 35.1578 26.758 43.596 1.306.7158 2.6795 1.368 4.079 1.9847l-7.9822 8.5873-1.8014 1.9367-10.163 10.503 5.048 4.8228c9.807 9.3567 21.323 14.517 34.226 15.338 1.605.1023 3.221.154 4.805.154 16.476 0 30.897-5.367 40.604-15.1118.628-.631 1.222-1.2768 1.8-1.9328 4.223-2.299 8.035-5.106 11.323-8.407 9.047-9.083 13.082-20.509 13.082-37.05V1.261h-2.683z" fill-rule="evenodd"/>
</svg>
