<svg width="50" height="68" viewBox="0 0 50 68" xmlns="http://www.w3.org/2000/svg">
  <path d="M16.067 51.7946s3.205 3.796 8.8638 3.726c9.276-.113 10.74-5.167 10.833-9.189-.004-.039 0-.226 0-.226l-.132.091c-2.303 1.477-5.839 2.782-9.528 2.993-3.871.22-8.793-.591-13.191-3.002-6.5398-3.588-10.8208-9.941-11.8198-19.446 0 0-.095-1.476-.093-2.182.002-.83.093-1.9.093-1.9.531-6.337 3.245-11.561 6.749-15.372 3.548-3.858 8.509-6.564 14.5568-7.211 0 0 1.057-.076 1.821-.076.795 0 2.017.076 2.017.076 4.348.473 7.657 1.863 10.602 3.777l-.001-3.097h12.1598v44.096c0 6.637-1.32 11.65-5.363 15.711-4.398 4.419-11.696 7.147-20.3098 6.599-6.38-.407-11.352-3.168-15.1918-6.834l7.934-8.534zm3.818-38.112c-3.409 1.721-6.251 5.348-6.616 9.657-.93 10.954 10.3308 16.64 17.9957 11.838 2.946-1.847 5.69-5.759 5.69-10.477 0-5.153-3.287-9.181-6.484-10.883-1.726-.919-4.472-1.402-7.013-1.088-1.341.165-2.646.484-3.5728.953z" fill-rule="evenodd"/>
</svg>
