<svg xmlns="http://www.w3.org/2000/svg" width="32" height="32" viewBox="0 0 32 32">
  <defs>
    <filter id="a" filterUnits="userSpaceOnUse" x="-2" y="-2" width="36" height="36">
      <feColorMatrix values="1 0 0 0 0 0 1 0 0 0 0 0 1 0 0 0 0 0 1 0"/>
    </filter>
  </defs>
  <mask maskUnits="userSpaceOnUse" x="-2" y="-2" width="36" height="36" id="b">
    <circle fill="#fff" cx="16" cy="16" r="16" filter="url(#a)"/>
  </mask>
  <g mask="url(#b)">
    <path fill="#f7494d" d="M23.2 11.4c-.5.2-1.1.4-1.7.5.6-.4 1.1-.9 1.3-1.6-.6.3-1.2.6-1.9.7-.5-.6-1.3-.9-2.1-.9-1.6 0-2.9 1.3-2.9 2.9 0 .2 0 .5.1.7-2.4-.1-4.6-1.3-6-3.1-.3.4-.4.9-.4 1.4 0 1 .5 1.9 1.3 2.4-.5 0-.9-.1-1.3-.4 0 1.4 1 2.6 2.3 2.9-.2.1-.5.1-.8.1-.2 0-.4 0-.6-.1.4 1.2 1.5 2 2.7 2-1 .8-2.3 1.3-3.6 1.3h-.7c1.3.8 2.8 1.3 4.5 1.3 5.4 0 8.3-4.5 8.3-8.3v-.4c.7-.3 1.2-.8 1.5-1.4"/>
    <circle fill="none" stroke="#f6494d" stroke-width="4" cx="16" cy="16" r="16"/>
  </g>
</svg>
