<svg xmlns="http://www.w3.org/2000/svg" width="13" height="17" viewBox="0 0 13 17">
  <path d="M6.5 7.6c-1.1 0-2-.9-2-2s.9-2 2-2 2 .9 2 2-.9 2-2 2zm0 1.5c1.9 0 3.5-1.6 3.5-3.5S8.4 2.1 6.5 2.1 3 3.7 3 5.6s1.6 3.5 3.5 3.5zm0-8.9C3.1.2.2 2.8.2 6c0 .4 0 .7.1 1.1.3 2 1.4 3.9 2.9 5.9.6.8 1.3 1.6 1.9 2.3.2.2.4.5.6.7.1.1.2.2.3.2l.5.5.5-.5s.1-.1.3-.2c.2-.2.4-.4.6-.7.7-.7 1.3-1.5 1.9-2.3 1.5-2 2.5-4 2.8-5.9.1-.4.1-.8.1-1.1C12.8 2.8 9.9.2 6.5.2zm-.3 14.1c-.6-.7-1.3-1.4-1.8-2.2C3 10.3 2.1 8.5 1.8 6.9c0-.3-.1-.6-.1-.9 0-2.4 2.1-4.3 4.8-4.3s4.8 1.9 4.8 4.3c0 .3 0 .6-.1.9-.3 1.6-1.2 3.4-2.5 5.2-.6.8-1.2 1.5-1.8 2.2l-.3.3c-.2-.1-.3-.2-.4-.3z"/>
</svg>
