<svg width="1020" height="130" viewBox="0 0 1020 130" xmlns="http://www.w3.org/2000/svg">
  <path d="M553 27.5h4.5V12.9997H553M462.4497 23.784c-2.3957 1.501-5.9157-.2763-5.6246-3.6992.115-1.3478 1.003-2.4807 2.068-3.0188.29-.1465.698-.2462 1.117-.2978.794-.0983 1.6528.0536 2.192.3407.999.531 2.0264 1.79 2.0264 3.4 0 1.475-.8572 2.6975-1.778 3.2744M460.4998 13C456.3572 13 453 16.3574 453 20.4997S456.3573 28 460.4997 28C464.642 28 468 24.642 468 20.4997 468 16.3573 464.642 13 460.4997 13M503 20.075c.713.0135 1.4347-.1678 2.08-.5718.982-.616 1.8964-1.92 1.8964-3.4925L511 16c0 4.4176-3.5817 7.9993-8 7.9993V20.075zM404 27.5h4.5V12.9997H404M313.4497 23.784c-2.3957 1.501-5.9157-.2763-5.6246-3.6992.115-1.3478 1.003-2.4807 2.068-3.0188.29-.1465.698-.2462 1.117-.2978.794-.0983 1.6528.0536 2.192.3407.999.531 2.0264 1.79 2.0264 3.4 0 1.475-.8572 2.6975-1.778 3.2744M311.4998 13C307.3572 13 304 16.3574 304 20.4997S307.3573 28 311.4997 28C315.642 28 319 24.642 319 20.4997 319 16.3573 315.642 13 311.4997 13M354 20.075c.713.0135 1.4347-.1678 2.08-.5718.982-.616 1.8964-1.92 1.8964-3.4925L362 16c0 4.4176-3.5817 7.9993-8 7.9993V20.075zM255 27.5h4.5V12.9997H255M106 27.5h4.5V12.9997H106m58.4497 10.7843c-2.3957 1.501-5.9157-.2763-5.6246-3.6992.115-1.3478 1.003-2.4807 2.068-3.0188.29-.1465.698-.2462 1.117-.2978.794-.0983 1.6528.0536 2.192.3407.999.531 2.0264 1.79 2.0264 3.4 0 1.475-.8572 2.6975-1.778 3.2744M162.4998 13C158.3573 13 155 16.3574 155 20.4997S158.3573 28 162.4997 28C166.642 28 170 24.642 170 20.4997 170 16.3573 166.642 13 162.4997 13M505 71.5h4.5V56.9997H505M408.4497 67.784c-2.3957 1.501-5.9157-.2763-5.6246-3.6992.115-1.3478 1.003-2.4807 2.068-3.0188.29-.1465.698-.2462 1.117-.2978.794-.0983 1.6528.0536 2.192.3407.999.531 2.0264 1.79 2.0264 3.4 0 1.475-.8572 2.6975-1.778 3.2744M406.4998 57C402.3572 57 399 60.3573 399 64.4997 399 68.642 402.3573 72 406.4997 72 410.642 72 414 68.642 414 64.4997 414 60.3573 410.642 57 406.4997 57M456 64.075c.713.0135 1.4347-.1678 2.08-.5718.982-.616 1.8964-1.92 1.8964-3.4925L464 60c0 4.4176-3.5817 7.9993-8 7.9993V64.075zM356 71.5h4.5V56.9997H356M259.4497 67.784c-2.3957 1.501-5.9157-.2763-5.6246-3.6992.115-1.3478 1.003-2.4807 2.068-3.0188.29-.1465.698-.2462 1.117-.2978.794-.0983 1.6528.0536 2.192.3407.999.531 2.0264 1.79 2.0264 3.4 0 1.475-.8572 2.6975-1.778 3.2744M257.4998 57C253.3572 57 250 60.3573 250 64.4997 250 68.642 253.3573 72 257.4997 72 261.642 72 265 68.642 265 64.4997 265 60.3573 261.642 57 257.4997 57M307 64.075c.713.0135 1.4347-.1678 2.08-.5718.982-.616 1.8964-1.92 1.8964-3.4925L315 60c0 4.4176-3.5817 7.9993-8 7.9993V64.075zM207 71.5h4.5V56.9997H207M110.4497 67.784c-2.3957 1.501-5.9157-.2763-5.6246-3.6992.115-1.3478 1.003-2.4807 2.068-3.0188.29-.1465.698-.2462 1.117-.2978.794-.0983 1.6528.0536 2.192.3407.999.531 2.0264 1.79 2.0264 3.4 0 1.475-.8572 2.6975-1.778 3.2744M108.4998 57C104.3572 57 101 60.3573 101 64.4997 101 68.642 104.3573 72 108.4997 72 112.642 72 116 68.642 116 64.4997 116 60.3573 112.642 57 108.4997 57M158 64.075c.713.0135 1.4347-.1678 2.08-.5718.982-.616 1.8964-1.92 1.8964-3.4925L166 60c0 4.4176-3.5817 7.9993-8 7.9993V64.075zM58 71.5h4.5V56.9997H58M654 71.5h4.5V56.9997H654M557.4497 67.784c-2.3957 1.501-5.9157-.2763-5.6246-3.6992.115-1.3478 1.003-2.4807 2.068-3.0188.29-.1465.698-.2462 1.117-.2978.794-.0983 1.6528.0536 2.192.3407.999.531 2.0264 1.79 2.0264 3.4 0 1.475-.8572 2.6975-1.778 3.2744M555.4998 57C551.3573 57 548 60.3573 548 64.4997 548 68.642 551.3573 72 555.4997 72 559.642 72 563 68.642 563 64.4997 563 60.3573 559.642 57 555.4997 57M605 64.075c.713.0135 1.4347-.1678 2.08-.5718.982-.616 1.8964-1.92 1.8964-3.4925L613 60c0 4.4176-3.5817 7.9993-8 7.9993V64.075zM553 116.5h4.5v-14.5003H553m-90.5503 10.7843c-2.3957 1.501-5.9157-.2763-5.6246-3.6992.115-1.3478 1.003-2.4807 2.068-3.0188.29-.1465.698-.2462 1.117-.2978.794-.0983 1.6528.0536 2.192.3407.999.531 2.0264 1.79 2.0264 3.4 0 1.475-.8572 2.6975-1.778 3.2744M460.5 102c-4.1425 0-7.4998 3.3572-7.4998 7.4996C453 113.642 456.3575 117 460.5 117c4.1423 0 7.5003-3.358 7.5003-7.5003C468 105.3573 464.642 102 460.5 102m42.5 7.075c.713.0135 1.4347-.1678 2.08-.5718.982-.616 1.8964-1.92 1.8964-3.4925L511 105c0 4.4176-3.5817 7.9993-8 7.9993v-3.9244zm-99 7.425h4.5v-14.5003H404m-90.5503 10.7843c-2.3957 1.501-5.9157-.2763-5.6246-3.6992.115-1.3478 1.003-2.4807 2.068-3.0188.29-.1465.698-.2462 1.117-.2978.794-.0983 1.6528.0536 2.192.3407.999.531 2.0264 1.79 2.0264 3.4 0 1.475-.8572 2.6975-1.778 3.2744M311.5 102c-4.1425 0-7.4998 3.3572-7.4998 7.4996C304 113.642 307.3575 117 311.5 117c4.1423 0 7.5003-3.358 7.5003-7.5003C319 105.3573 315.642 102 311.5 102m42.5 7.075c.713.0135 1.4347-.1678 2.08-.5718.982-.616 1.8964-1.92 1.8964-3.4925L362 105c0 4.4176-3.5817 7.9993-8 7.9993v-3.9244zm-99 7.425h4.5v-14.5003H255m-90.5503 10.7843c-2.3957 1.501-5.9157-.2763-5.6246-3.6992.115-1.3478 1.003-2.4807 2.068-3.0188.29-.1465.698-.2462 1.117-.2978.794-.0983 1.6528.0536 2.192.3407.999.531 2.0264 1.79 2.0264 3.4 0 1.475-.8572 2.6975-1.778 3.2744M162.5 102c-4.1424 0-7.4998 3.3572-7.4998 7.4996C155 113.642 158.3575 117 162.5 117c4.1423 0 7.5003-3.358 7.5003-7.5003C170 105.3573 166.642 102 162.5 102m42.5 7.075c.713.0135 1.4347-.1678 2.08-.5718.982-.616 1.8964-1.92 1.8964-3.4925L213 105c0 4.4176-3.5817 7.9993-8 7.9993v-3.9244zm-189.5503 3.709c-2.3957 1.501-5.9157-.2763-5.6246-3.6992.115-1.3478 1.003-2.4807 2.068-3.0188.29-.1465.698-.2462 1.117-.2978.794-.0983 1.6528.0536 2.192.3407.999.531 2.0264 1.79 2.0264 3.4 0 1.475-.8572 2.6975-1.778 3.2744M13.4998 102C9.3572 102 6 105.3573 6 109.4997 6 113.642 9.3573 117 13.4997 117 17.642 117 21 113.642 21 109.4997 21 105.3573 17.642 102 13.4997 102M56 109.075c.713.0135 1.4347-.1678 2.08-.5718.982-.616 1.8964-1.92 1.8964-3.4925L64 105c0 4.4176-3.5817 7.9993-8 7.9993v-3.9244zm646 7.425h4.5v-14.5003H702m-90.5503 10.7843c-2.3957 1.501-5.9157-.2763-5.6246-3.6992.115-1.3478 1.003-2.4807 2.068-3.0188.29-.1465.698-.2462 1.117-.2978.794-.0983 1.6528.0536 2.192.3407.999.531 2.0264 1.79 2.0264 3.4 0 1.475-.8572 2.6975-1.778 3.2744M609.5 102c-4.1424 0-7.4998 3.3572-7.4998 7.4996C602 113.642 605.3575 117 609.5 117c4.1423 0 7.5003-3.358 7.5003-7.5003C617 105.3573 613.642 102 609.5 102m42.5 7.075c.713.0135 1.4347-.1678 2.08-.5718.982-.616 1.8964-1.92 1.8964-3.4925L660 105c0 4.4176-3.5817 7.9993-8 7.9993v-3.9244zm199 7.425h4.5v-14.5003H851m-90.5503 10.7843c-2.3957 1.501-5.9157-.2763-5.6246-3.6992.115-1.3478 1.003-2.4807 2.068-3.0188.29-.1465.698-.2462 1.117-.2978.794-.0983 1.6528.0536 2.192.3407.999.531 2.0264 1.79 2.0264 3.4 0 1.475-.8572 2.6975-1.778 3.2744M758.5 102c-4.1424 0-7.4998 3.3572-7.4998 7.4996C751 113.642 754.3575 117 758.5 117c4.1423 0 7.5003-3.358 7.5003-7.5003C766 105.3573 762.642 102 758.5 102m42.5 7.075c.713.0135 1.4347-.1678 2.08-.5718.982-.616 1.8964-1.92 1.8964-3.4925L809 105c0 4.4176-3.5817 7.9993-8 7.9993v-3.9244zm108.4497 3.709c-2.3957 1.501-5.9157-.2763-5.6246-3.6992.115-1.3478 1.003-2.4807 2.068-3.0188.29-.1465.698-.2462 1.117-.2978.794-.0983 1.6528.0536 2.192.3407.999.531 2.0264 1.79 2.0264 3.4 0 1.475-.8572 2.6975-1.778 3.2744M907.5 102c-4.1424 0-7.4998 3.3572-7.4998 7.4996C900 113.642 903.3575 117 907.5 117c4.1423 0 7.5003-3.358 7.5003-7.5003C915 105.3573 911.642 102 907.5 102M803 71.5h4.5V56.9997H803M706.4497 67.784c-2.3957 1.501-5.9157-.2763-5.6246-3.6992.115-1.3478 1.003-2.4807 2.068-3.0188.29-.1465.698-.2462 1.117-.2978.794-.0983 1.6528.0536 2.192.3407.999.531 2.0264 1.79 2.0264 3.4 0 1.475-.8572 2.6975-1.778 3.2744M704.4998 57C700.3573 57 697 60.3573 697 64.4997 697 68.642 700.3573 72 704.4997 72 708.642 72 712 68.642 712 64.4997 712 60.3573 708.642 57 704.4997 57M754 64.075c.713.0135 1.4347-.1678 2.08-.5718.982-.616 1.8964-1.92 1.8964-3.4925L762 60c0 4.4176-3.5817 7.9993-8 7.9993V64.075zM952 71.5h4.5V56.9997H952M855.4497 67.784c-2.3957 1.501-5.9157-.2763-5.6246-3.6992.115-1.3478 1.003-2.4807 2.068-3.0188.29-.1465.698-.2462 1.117-.2978.794-.0983 1.6528.0536 2.192.3407.999.531 2.0264 1.79 2.0264 3.4 0 1.475-.8572 2.6975-1.778 3.2744M853.4998 57C849.3573 57 846 60.3573 846 64.4997 846 68.642 849.3573 72 853.4997 72 857.642 72 861 68.642 861 64.4997 861 60.3573 857.642 57 853.4997 57m150.95 10.784c-2.3957 1.501-5.9157-.2763-5.6246-3.6992.115-1.3478 1.003-2.4807 2.068-3.0188.29-.1465.698-.2462 1.117-.2978.794-.0983 1.6528.0536 2.192.3407.999.531 2.0264 1.79 2.0264 3.4 0 1.475-.8572 2.6975-1.778 3.2744M1002.5 57c-4.1426 0-7.5 3.3573-7.5 7.4997C995 68.642 998.3573 72 1002.4997 72c4.1423 0 7.5003-3.358 7.5003-7.5003 0-4.1424-3.358-7.4997-7.5003-7.4997M702 27.5h4.5V12.9997H702M611.4497 23.784c-2.3957 1.501-5.9157-.2763-5.6246-3.6992.115-1.3478 1.003-2.4807 2.068-3.0188.29-.1465.698-.2462 1.117-.2978.794-.0983 1.6528.0536 2.192.3407.999.531 2.0264 1.79 2.0264 3.4 0 1.475-.8572 2.6975-1.778 3.2744M609.4998 13C605.3573 13 602 16.3574 602 20.4997S605.3573 28 609.4997 28C613.642 28 617 24.642 617 20.4997 617 16.3573 613.642 13 609.4997 13M652 20.075c.713.0135 1.4347-.1678 2.08-.5718.982-.616 1.8964-1.92 1.8964-3.4925L660 16c0 4.4176-3.5817 7.9993-8 7.9993V20.075zm108.4497 3.709c-2.3957 1.501-5.9157-.2763-5.6246-3.6992.115-1.3478 1.003-2.4807 2.068-3.0188.29-.1465.698-.2462 1.117-.2978.794-.0983 1.6528.0536 2.192.3407.999.531 2.0264 1.79 2.0264 3.4 0 1.475-.8572 2.6975-1.778 3.2744M758.4998 13C754.3573 13 751 16.3574 751 20.4997S754.3573 28 758.4997 28C762.642 28 766 24.642 766 20.4997 766 16.3573 762.642 13 758.4997 13M801 20.075c.713.0135 1.4347-.1678 2.08-.5718.982-.616 1.8964-1.92 1.8964-3.4925L809 16c0 4.4176-3.5817 7.9993-8 7.9993V20.075zm108.4497 3.709c-2.3957 1.501-5.9157-.2763-5.6246-3.6992.115-1.3478 1.003-2.4807 2.068-3.0188.29-.1465.698-.2462 1.117-.2978.794-.0983 1.6528.0536 2.192.3407.999.531 2.0264 1.79 2.0264 3.4 0 1.475-.8572 2.6975-1.778 3.2744M907.4998 13C903.3573 13 900 16.3574 900 20.4997S903.3573 28 907.4997 28C911.642 28 915 24.642 915 20.4997 915 16.3573 911.642 13 907.4997 13" fill-rule="evenodd"/>
</svg>
