<svg xmlns="http://www.w3.org/2000/svg" viewBox="0 0 300 300">
  <path d="M110.8 78.5c11.4-6.1 24.4-9.5 38.2-9.5 26.5 0 49.9 12.7 64.7 32.3-6.7 8.1-16.9 13.2-28.2 13.2h-46.6l-.5-1.1c-6.2-13.6-15.8-25.7-27.6-34.9zm30.9 94.2h32.8c12.5 0 22.7-10.2 22.7-22.7 0-12.6-10.2-22.8-22.7-22.8h-32.9c1.8 7.3 2.8 14.9 2.8 22.7-.1 7.8-1 15.5-2.7 22.8zm-5.3-.6c1.7-7.1 2.6-14.6 2.6-22.2s-.9-15-2.8-22l-.2-.7H71.2c-2.1 7.2-3.2 14.8-3.2 22.7 0 7.9 1.1 15.5 3.2 22.7h65l.2-.5zm-29.7-90l-.8-.6c-10.6 6.7-19.5 15.7-26.1 26.4-.1.1-.1.2-.2.2-.9 1.5-1.8 3.1-2.6 4.7l-.3.6c-.2.3-.3.7-.5 1H133c-6-12.6-15.1-23.8-26.3-32.3zm77 103.4h-43.5l-.4 1c-5.7 14-14.9 26.5-26.6 36.2 10.8 5.3 23 8.3 35.8 8.3 26.2 0 49.6-12.5 64.4-31.8-7.3-8.4-17.9-13.7-29.7-13.7zm-74.8 33.8c11.1-9 19.9-20.7 25.5-33.7H76.1l.1.1-.1-.1C83.1 200 94.3 212 108 220l.9-.7z"/>
</svg>
