<svg xmlns="http://www.w3.org/2000/svg" viewBox="0 0 300 300">
  <path d="M239.6 96.6l-40.2-23.2L152 45.8l-.5-.3h-3.1L59.7 97v.9l-.8 1.4V201l.8 1.4v.8l.7.4.1.2 87.6 50.6.5.3h3.1l87.6-50.6.5-.3 1.5-2.7V99.3l-1.7-2.7zm-136.8 29.7v48.2l-35.9 19.1v-86.8l35.9 19.5zm126 73.8L150 246l-79.1-45.6 37.1-19.7 40.5 23.4h3.1l40.5-23.4 36.7 19.4zm-45.1-23.8L150 195.8l-33.7-19.4 33.6-17.8 33.8 17.7zm-36.1-25.6l-36.8 19.5v-39.6l36.8 20.1zm41.6-20v39.4l-36.9-19.5 36.9-19.9zM150 105.2l33.7 19.5-33.7 18.2-33.6-18.3 33.6-19.4zm42 15l-40.4-23.3h-3.1l-40.3 23.3-37.3-20.4L150 54.1l45.5 26.3 33.6 19.6-37.1 20.2zm5.2 54.2v-48l35.9-19.4v86.4l-35.9-19z"/>
</svg>
