<svg xmlns="http://www.w3.org/2000/svg" viewBox="0 0 300 300">
  <path fill-rule="evenodd" clip-rule="evenodd" d="M43.7 201.1l-16.8-6v-24.7l16.8 5.7v25zm3.1 0l16.8-6v-24.7l-16.8 5.7v25zm-1.1-26.9l15.8-5.4-15.8-5.1-17 4.8 17 5.7zm-22-32.6l-16.8-5.7v24.7l16.8 6v-25zm3.1 25l16.8-6v-24.7l-16.8 5.7v25zm-1.2-26.9l15.8-5.4-15.8-5.1-17 4.8 17 5.7zm37.4 1.9l-16.8-5.7v24.7l16.8 6v-25zm3 25l16.8-6v-24.7L66 141.6v25zm-1.1-26.9l15.8-5.4-15.8-5.1-17 4.8 17 5.7zM83 107.2l-16.8-5.7v24.7l16.8 6v-25zm3.1 25l16.8-6v-24.7l-16.8 5.7v25zm-1.2-26.9l15.8-5.4-15.8-5.1-17 4.8 17 5.7zm37.4 1.9l-16.8-5.7v24.7l16.8 6v-25zm3.1 25l16.8-6v-24.7l-16.8 5.7v25zm-1.2-26.9l15.8-5.4-15.8-5.1-17 4.8 17 5.7zm-13 79.7l-4.4 14.7-4.4-14.7h-2.2l-4.1 14.6-4.3-14.6h-3l5.9 19.6h2.5l4-14.6 4.4 14.6h2.5l5.7-19.6h-2.6zm0 0l-4.4 14.7-4.4-14.7h-2.2l-4.1 14.6-4.3-14.6h-3l5.9 19.6h2.5l4-14.6 4.4 14.6h2.5l5.7-19.6h-2.6zm18.1 13.8c-1 2.6-2.8 3.9-5.3 3.9-1.4 0-2.7-.5-3.9-1.6-1.2-1-1.9-3-1.9-6h14.3c0-3.5-.8-6.2-2.4-8-1.6-1.8-3.6-2.7-6.2-2.7s-4.8 1-6.5 2.9c-1.7 1.9-2.6 4.5-2.6 7.6 0 3.1.8 5.5 2.5 7.4 1.7 1.9 3.8 2.8 6.5 2.8 2 0 3.8-.6 5.3-1.7s2.5-2.5 3-4.2l-2.8-.4m-10.9-6c.1-1.8.7-3.3 1.8-4.4 1.1-1.1 2.3-1.6 3.9-1.6 1.1 0 2.1.3 2.9.9.8.6 1.4 1.3 1.7 2.2.3.9.5 1.8.5 2.9h-10.8zm5.7 9.9c-1.4 0-2.7-.5-3.9-1.6-1.2-1-1.9-3-1.9-6h14.3c0-3.5-.8-6.2-2.4-8-1.6-1.8-3.6-2.7-6.2-2.7s-4.8 1-6.5 2.9c-1.7 1.9-2.6 4.5-2.6 7.6 0 3.1.8 5.5 2.5 7.4 1.7 1.9 3.8 2.8 6.5 2.8 2 0 3.8-.6 5.3-1.7s2.5-2.5 3-4.2l-2.8-.6c-1.1 2.8-2.8 4.1-5.3 4.1zm-5.7-9.9c.1-1.8.7-3.3 1.8-4.4 1.1-1.1 2.3-1.6 3.9-1.6 1.1 0 2.1.3 2.9.9.8.6 1.4 1.3 1.7 2.2.3.9.5 1.8.5 2.9h-10.8zm20.7 8.6c1.4 2.5 3.5 3.8 6.1 3.8 2.4 0 4.3-1 5.8-3s2.2-4.4 2.2-7.3c0-3.4-.8-6-2.3-7.7-1.5-1.8-3.4-2.7-5.7-2.7-2.5 0-4.4 1.3-5.8 3.8v-10.2h-3.1v26.5h1.5l1.3-3.2zm.5-8.9c.2-1.6.8-3 1.8-4s2.2-1.5 3.5-1.5c1.6 0 2.9.7 3.8 2.2.9 1.4 1.4 3.4 1.4 6 0 2.3-.5 4.2-1.4 5.5-1 1.3-2.2 2-3.8 2-1.2 0-2.4-.5-3.5-1.4-1.1-.9-1.7-2.4-1.9-4.4v-4.4zm-.5 8.9c1.4 2.5 3.5 3.8 6.1 3.8 2.4 0 4.3-1 5.8-3s2.2-4.4 2.2-7.3c0-3.4-.8-6-2.3-7.7-1.5-1.8-3.4-2.7-5.7-2.7-2.5 0-4.4 1.3-5.8 3.8v-10.2h-3.1v26.5h1.5l1.3-3.2zm.5-8.9c.2-1.6.8-3 1.8-4s2.2-1.5 3.5-1.5c1.6 0 2.9.7 3.8 2.2.9 1.4 1.4 3.4 1.4 6 0 2.3-.5 4.2-1.4 5.5-1 1.3-2.2 2-3.8 2-1.2 0-2.4-.5-3.5-1.4-1.1-.9-1.7-2.4-1.9-4.4v-4.4zm21.5 7.1c1.1 3.8 4 5.6 8.6 5.6 2.5 0 4.5-.6 5.9-1.7 1.5-1.1 2.2-2.6 2.2-4.4 0-3.2-2-5.1-6-5.8l-3.8-.7c-2-.4-3.1-1.3-3.1-2.7 0-.9.4-1.6 1.2-2.1.8-.5 1.8-.8 3.1-.8 2.5 0 4.1 1 4.9 3.1l2.8-.6c-1-3.3-3.6-5-7.9-5-2.2 0-4 .6-5.3 1.7-1.3 1.1-2 2.5-2 4.1 0 1.5.5 2.7 1.4 3.6 1 .9 2.2 1.5 3.9 1.8l4.1.8c2.2.4 3.4 1.4 3.4 2.9 0 1-.4 1.8-1.3 2.4-.9.6-2 .9-3.2.9-3.4 0-5.5-1.2-6.1-3.7l-2.8.6m8.6 5.6c2.5 0 4.5-.6 5.9-1.7 1.5-1.1 2.2-2.6 2.2-4.4 0-3.2-2-5.1-6-5.8l-3.8-.7c-2-.4-3.1-1.3-3.1-2.7 0-.9.4-1.6 1.2-2.1.8-.5 1.8-.8 3.1-.8 2.5 0 4.1 1 4.9 3.1l2.8-.6c-1-3.3-3.6-5-7.9-5-2.2 0-4 .6-5.3 1.7-1.3 1.1-2 2.5-2 4.1 0 1.5.5 2.7 1.4 3.6 1 .9 2.2 1.5 3.9 1.8l4.1.8c2.2.4 3.4 1.4 3.4 2.9 0 1-.4 1.8-1.3 2.4-.9.6-2 .9-3.2.9-3.4 0-5.5-1.2-6.1-3.7l-2.9.6c1.2 3.7 4.1 5.6 8.7 5.6zm24.5-6.4c-1 2.6-2.8 3.9-5.3 3.9-1.4 0-2.7-.5-3.9-1.6-1.2-1-1.9-3-1.9-6h14.3c0-3.5-.8-6.2-2.4-8-1.6-1.8-3.6-2.7-6.2-2.7s-4.8 1-6.5 2.9c-1.7 1.9-2.6 4.5-2.6 7.6 0 3.1.8 5.5 2.5 7.4 1.7 1.9 3.8 2.8 6.5 2.8 2 0 3.8-.6 5.3-1.7s2.5-2.5 3-4.2l-2.8-.4m-10.9-6c.1-1.8.7-3.3 1.8-4.4 1.1-1.1 2.3-1.6 3.9-1.6 1.1 0 2.1.3 2.9.9.8.6 1.4 1.3 1.7 2.2.3.9.5 1.8.5 2.9h-10.8zm5.6 9.9c-1.4 0-2.7-.5-3.9-1.6-1.2-1-1.9-3-1.9-6h14.3c0-3.5-.8-6.2-2.4-8-1.6-1.8-3.6-2.7-6.2-2.7s-4.8 1-6.5 2.9c-1.7 1.9-2.6 4.5-2.6 7.6 0 3.1.8 5.5 2.5 7.4 1.7 1.9 3.8 2.8 6.5 2.8 2 0 3.8-.6 5.3-1.7s2.5-2.5 3-4.2l-2.8-.6c-1 2.8-2.8 4.1-5.3 4.1zm-5.6-9.9c.1-1.8.7-3.3 1.8-4.4 1.1-1.1 2.3-1.6 3.9-1.6 1.1 0 2.1.3 2.9.9.8.6 1.4 1.3 1.7 2.2.3.9.5 1.8.5 2.9h-10.8zm20.4 1.4c.1-2 .7-3.7 1.8-4.9 1.1-1.2 2.5-1.9 4.2-1.9h.6v-2.9c-.5 0-.9-.1-1.2-.1-1 0-2 .3-2.9 1-1 .6-1.9 2-2.8 4.2V185h-2.7v19.6h3.1v-10.4zm0 0c.1-2 .7-3.7 1.8-4.9 1.1-1.2 2.5-1.9 4.2-1.9h.6v-2.9c-.5 0-.9-.1-1.2-.1-1 0-2 .3-2.9 1-1 .6-1.9 2-2.8 4.2V185h-2.7v19.6h3.1v-10.4zm22.9-9.2l-5.4 16-5.5-16h-3.4l7 19.6h3.2l6.8-19.6h-2.7zm0 0l-5.4 16-5.5-16h-3.4l7 19.6h3.2l6.8-19.6h-2.7zm8.4-6.9h-3.3v3.4h3.3v-3.4zm0 6.9h-3.1v19.6h3.1V185zm0-6.9h-3.3v3.4h3.3v-3.4zm0 6.9h-3.1v19.6h3.1V185zm16 12.8c-.7 3.3-2.3 4.9-4.8 4.9-1.6 0-2.9-.7-3.8-2.1-.9-1.4-1.3-3.3-1.3-5.9 0-2.3.5-4.1 1.4-5.6.9-1.4 2.2-2.1 3.9-2.1 2.6 0 4.2 1.6 4.7 4.9l2.8-.5c-.3-2-1.1-3.7-2.4-5-1.3-1.3-3-1.9-5.1-1.9-2.6 0-4.6 1-6.1 3s-2.2 4.5-2.2 7.4c0 2.9.7 5.3 2.1 7.3 1.4 2 3.5 3 6.2 3 2 0 3.7-.6 5-1.8 1.3-1.2 2.2-2.9 2.6-5.1l-3-.5m-4.8 4.9c-1.6 0-2.9-.7-3.8-2.1-.9-1.4-1.3-3.3-1.3-5.9 0-2.3.5-4.1 1.4-5.6.9-1.4 2.2-2.1 3.9-2.1 2.6 0 4.2 1.6 4.7 4.9l2.8-.5c-.3-2-1.1-3.7-2.4-5-1.3-1.3-3-1.9-5.1-1.9-2.6 0-4.6 1-6.1 3s-2.2 4.5-2.2 7.4c0 2.9.7 5.3 2.1 7.3 1.4 2 3.5 3 6.2 3 2 0 3.7-.6 5-1.8 1.3-1.2 2.2-2.9 2.6-5.1l-2.8-.5c-.9 3.2-2.5 4.9-5 4.9zm24.8-3.9c-1 2.6-2.8 3.9-5.3 3.9-1.4 0-2.7-.5-3.9-1.6-1.2-1-1.9-3-1.9-6h14.3c0-3.5-.8-6.2-2.4-8-1.6-1.8-3.6-2.7-6.2-2.7s-4.8 1-6.5 2.9c-1.7 1.9-2.6 4.5-2.6 7.6 0 3.1.8 5.5 2.5 7.4 1.7 1.9 3.8 2.8 6.5 2.8 2 0 3.8-.6 5.3-1.7s2.5-2.5 3-4.2l-2.8-.4m-11-6c.1-1.8.7-3.3 1.8-4.4 1.1-1.1 2.3-1.6 3.9-1.6 1.1 0 2.1.3 2.9.9.8.6 1.4 1.3 1.7 2.2.3.9.5 1.8.5 2.9H260zm5.7 9.9c-1.4 0-2.7-.5-3.9-1.6-1.2-1-1.9-3-1.9-6h14.3c0-3.5-.8-6.2-2.4-8-1.6-1.8-3.6-2.7-6.2-2.7s-4.8 1-6.5 2.9c-1.7 1.9-2.6 4.5-2.6 7.6 0 3.1.8 5.5 2.5 7.4 1.7 1.9 3.8 2.8 6.5 2.8 2 0 3.8-.6 5.3-1.7s2.5-2.5 3-4.2l-2.8-.6c-1.1 2.8-2.8 4.1-5.3 4.1zm-5.7-9.9c.1-1.8.7-3.3 1.8-4.4 1.1-1.1 2.3-1.6 3.9-1.6 1.1 0 2.1.3 2.9.9.8.6 1.4 1.3 1.7 2.2.3.9.5 1.8.5 2.9H260zm15.9 6.8c1.1 3.8 4 5.6 8.6 5.6 2.5 0 4.5-.6 5.9-1.7 1.5-1.1 2.2-2.6 2.2-4.4 0-3.2-2-5.1-6-5.8l-3.8-.7c-2-.4-3.1-1.3-3.1-2.7 0-.9.4-1.6 1.2-2.1.8-.5 1.8-.8 3.1-.8 2.5 0 4.1 1 5 3.1l2.8-.6c-1-3.3-3.6-5-7.9-5-2.2 0-4 .6-5.3 1.7-1.3 1.1-2 2.5-2 4.1 0 1.5.5 2.7 1.4 3.6 1 .9 2.2 1.5 3.9 1.8l4.1.8c2.2.4 3.4 1.4 3.4 2.9 0 1-.4 1.8-1.3 2.4-.9.6-2 .9-3.2.9-3.4 0-5.5-1.2-6.1-3.7l-2.9.6m8.6 5.6c2.5 0 4.5-.6 5.9-1.7 1.5-1.1 2.2-2.6 2.2-4.4 0-3.2-2-5.1-6-5.8l-3.8-.7c-2-.4-3.1-1.3-3.1-2.7 0-.9.4-1.6 1.2-2.1.8-.5 1.8-.8 3.1-.8 2.5 0 4.1 1 5 3.1l2.8-.6c-1-3.3-3.6-5-7.9-5-2.2 0-4 .6-5.3 1.7-1.3 1.1-2 2.5-2 4.1 0 1.5.5 2.7 1.4 3.6 1 .9 2.2 1.5 3.9 1.8l4.1.8c2.2.4 3.4 1.4 3.4 2.9 0 1-.4 1.8-1.3 2.4-.9.6-2 .9-3.2.9-3.4 0-5.5-1.2-6.1-3.7l-2.9.6c1.1 3.7 3.9 5.6 8.6 5.6zM206.9 143c0 .7.5 1.2 1.2 1.2h11l-12.7 18.2c-.8 1.2-.8 2.5-.8 3.2v4.8c0 .7.8 1.5 1.5 1.1 7.2-3.8 15.8-3.4 22.3 0 .8.4 1.6-.4 1.6-1.1v-5c-.1-.7-.3-1.4-1.1-1.8-3.7-2.1-8-2.7-12.1-2.6l11-15.6c1-1.4 1.6-2.3 1.6-3v-4c0-.7-.5-1.2-1.2-1.2h-21.1c-.7 0-1.2.5-1.2 1.2v4.6m-75.7 29.5c.7 0 1.2-.5 1.2-1.2v-17.5c0-3.8-.2-9.1 4.4-9.1 4.6 0 4 5.4 4 9.1v17.5c0 .6.5 1.1 1.2 1.2h6.4c.7 0 1.2-.5 1.2-1.2v-17.5c0-1.9-.1-4.7.6-6.3.7-1.7 2.3-2.7 3.8-2.7 1.9 0 3.3.6 3.8 2.8.3 1.3.2 4.8.2 6.2v17.5c0 .6.5 1.1 1.2 1.2h6.4c.7 0 1.2-.5 1.2-1.2v-20.8c0-3.5.4-7.6-1.6-10.4-1.8-2.5-4.7-3.6-7.4-3.6-3.8 0-7.3 1.9-8.9 6.1-1.8-4.2-4.3-6.1-8.3-6.1-4 0-6.9 1.9-8.5 6.1h-.1v-4.3c0-.6-.5-1.1-1.2-1.1h-6c-.7 0-1.2.5-1.2 1.2v33c0 .6.5 1 1.2 1.1h6.4m114.8-36c-9.2 0-14.4 8-14.4 18.3 0 10.2 5.1 18.4 14.4 18.4 8.9 0 14.6-8 14.6-18.1 0-10.4-5.1-18.6-14.6-18.6m.1 7.6c2 0 3.5.9 4.2 3.2.8 2.6 1 6 1 8.8 0 4.2-.2 10.3-5.2 10.3s-4.9-7.8-4.9-11.8c-.2-4 .1-10.5 4.9-10.5m28.2 28.4c.7 0 1.2-.5 1.3-1.2v-17.8c0-2.2.1-4.2 1-6.3.7-1.6 2.2-2.6 3.7-2.6 4.4 0 4 5.3 4 8.9v17.9c.1.6.6 1 1.1 1h6.4c.6 0 1.2-.5 1.2-1v-20.8c0-3.2 0-7.6-1.7-10.3-1.8-2.8-4.6-3.9-7.5-3.9-4.4 0-7 2.2-8.8 6.7h-.1v-5c-.1-.5-.6-.9-1.1-.9h-6c-.6 0-1.2.5-1.2 1.1v33c0 .6.5 1.1 1.2 1.2h6.5m-83.5-17.2c-4.7 0-9.6 1-9.6 6.5 0 2.8 1.4 4.7 3.9 4.7 1.8 0 3.4-1.1 4.5-2.9 1.3-2.2 1.2-4.3 1.2-6.8v-1.5zm6.5 17.1c1.3-1.1 3.6-3.2 4.9-4.3.5-.4.4-1.1 0-1.7-1.2-1.6-2.4-2.9-2.4-6v-10c0-4.2.3-8.1-2.8-11.1-2.5-2.4-6.6-3.2-9.7-3.2-6.1 0-13 2.3-14.4 9.8-.2.8.4 1.2 1 1.3l6.2.7c.6 0 1-.6 1.1-1.2.5-2.6 2.7-3.9 5.2-3.9 1.3 0 2.8.5 3.6 1.7.9 1.3.8 3.1.8 4.7v.8c-3.7.4-8.6.7-12.1 2.2-4 1.7-6.9 5.3-6.9 10.5 0 6.7 4.2 10 9.6 10 4.6 0 7.1-1.1 10.6-4.7 1.2 1.7 1.6 2.5 3.7 4.3.5.5 1.1.5 1.6.1zm-90.1-17.1c-4.7 0-9.6 1-9.6 6.5 0 2.8 1.4 4.7 3.9 4.7 1.8 0 3.4-1.1 4.5-2.9 1.3-2.2 1.2-4.3 1.2-6.8v-1.5zm6.5 17.1c1.3-1.1 3.6-3.2 4.9-4.3.5-.4.4-1.1 0-1.7-1.2-1.6-2.4-2.9-2.4-6v-10c0-4.2.3-8.1-2.8-11.1-2.5-2.4-6.6-3.2-9.7-3.2-6.1 0-13 2.3-14.4 9.8-.2.8.4 1.2 1 1.3l6.2.7c.6 0 1-.6 1.1-1.2.5-2.6 2.7-3.9 5.2-3.9 1.3 0 2.8.5 3.6 1.7.9 1.3.8 3.1.8 4.7v.8c-3.7.4-8.6.7-12.1 2.2-4 1.7-6.9 5.3-6.9 10.5 0 6.7 4.2 10 9.6 10 4.6 0 7.1-1.1 10.6-4.7 1.2 1.7 1.6 2.5 3.7 4.3.5.5 1.1.5 1.6.1z"/>
</svg>
