<svg xmlns="http://www.w3.org/2000/svg" viewBox="0 0 300 300">
  <path d="M180.1 159.1c-1.2-7.2-2.4-14.7-2.5-23.5l.8.7c7.8 9.8 10.7 18.9 8.3 26.2-.9 2.7-2.6 5.3-5 7.7-.4-3.9-1-7.7-1.6-11.1zm-1.9 18.9c-4.4 2.7-9.9 4.9-16.3 6.6-2.6.7-5.3 1.2-7.9 1.5 4.2 4.6 8.2 8.7 12.2 12.2 2.1 1.9 4.3 3.7 6.4 5.2 1.1-.2 2.1-.4 3.1-.7.3-1.4.6-2.7.9-4.1 1.4-7 1.9-13.7 1.6-20.7zm-4.3-51.5c.1-1.4.3-3 .5-4.5-5.8-7.1-10.6-15.2-14.2-24.1-1.2 3.2-2.4 6.8-3.3 10.7 4.7 6.3 11.5 12.9 17 17.9zm-.2 83.1c-.7-.5-1.5-1-2.2-1.6-5.9 1.1-12.5 1.9-19.6 2.5-2.6.2-5.2.3-8 .3 8.1 7.2 15.4 11.9 22.2 14.6 3-4.4 5.6-9.7 7.6-15.8zm-.2-77.8c-5.9-5.4-12.7-11.8-17.9-18.1-2 9.9-3.1 20.7-3.1 32.2 0 11.4-2.1 21.6-6.2 31.2 1.4 1.8 2.8 3.5 4.3 5.1 3.4-.1 6.8-.7 10.2-1.6 7-1.9 12.7-4.4 17.1-7.4-.4-4.6-1.2-9.1-1.9-13.5-1.4-8.4-2.8-17.1-2.5-27.9zm-32 45.9c-4.3-5.5-8.4-11.3-11.8-16.7-9.6-15.1-13.6-29-15.4-37.9-2.2 9.4-4 19.2-5.2 29 .5 1.4 1.9 5.4 4.1 10.7.9 1.4 10.1 14.6 26.5 18.4.6-1.1 1.2-2.3 1.8-3.5zm12.2-73.7c1.8-6.2 3.5-10.1 4.4-11.8-4.9-14.6-5.6-27.3-5.6-33.6-1.3.7-3.6 2-6.8 4.5-.5 3.7-2.4 23.6 8 40.9zm-46.3 95.4c5.3 2.5 11.2 4.3 17.4 5.6.9-1.6 2-3.4 3.2-5.2-4.8-6.7-9.6-15.1-14.2-25-2-4.2-3.8-8.7-5.6-13.2-1.1 12.3-1.4 25.1-.8 37.8zm44.1 7c5.6-.4 10.8-1 15.5-1.8-6-4.9-12.2-11-18.4-18.1-2.3 0-4.6-.2-6.8-.6-2.2 3.9-4.6 7.3-6.8 10.7-.7 1-1.3 2-2 3 2.1 2.7 4.2 5 6.2 7.1 4.2.1 8.3 0 12.3-.3zM144 182h.4c.3 0 .5.1.7.1l-.7-.8-.4.7zm-13.6 14l1.1-1.7c2-3 4.1-6.1 6-9.3-6.9-1.8-13.4-5.4-19.3-10.5 4 8.3 8.1 15.5 12.2 21.5zm.2 7.2l-1.5 2.4c1.4.2 2.7.4 4 .5-.8-.9-1.7-1.9-2.5-2.9zm46.7 8.6c-2 5.7-4.4 10.7-7.2 14.9 6.3 1.7 12.3 1.7 18.9 0 2.8-2.7 5.5-5.8 7.8-9.1-5.7.5-12.2-1.5-19.5-5.8zm12-65.6c2.6 6.3 3.1 12.2 1.3 17.6-1.4 4.3-4.2 8.2-8.4 11.5.6 8.3.1 16-1.6 24.5-.1.7-.3 1.4-.5 2.1 19.4-5.4 24.6-14.1 28.8-21.1-.4-5.6-1.9-11.3-4.6-17.3-2.9-5.7-9.5-12.2-15-17.3zM179 206.4l-.1.3-.3 1.2c8.4 5.2 15.6 6.8 21.3 4.9 2.9-4.9 5.2-10.2 7-15.7.9-2.7 1.5-5.5 1.8-8.3-4.2 5.7-11.4 12.9-29.7 17.6zm-1.2-76.4c1.5 1.3 3 2.7 4.5 4 3.1 2.8 5.6 5 8.2 7.4-3.8-5-8.2-10.2-12.3-15.1-.3 1.4-.4 2.6-.4 3.7zm-10.3 100.3c-3.2 4-6.8 7.2-10.8 9.6-1 .6-2 1.1-3.1 1.6 10.8-.3 20.5-3.4 29-9.4-1.1.1-2.1.1-3 .1-4.1 0-8-.6-12.1-1.9zM119.1 93.1c-12.1 18.1-26.8 47.2-28 82.7-.2 4.6 0 9 .5 13.3 1.7 1.7 5.5 4.9 11.5 8.2-1.8-46.9 7.7-82.5 16-104.2zm5.4 142.1l.4.3-.4-.3zm-3.7-22c.5-1.4 1.2-2.8 1.9-4.4-14.6-3.1-24.3-9-30-13.4 3.1 14.1 10.5 25.5 21.9 33.9 3 2.2 6.3 4.1 9.8 5.8-1.5-1.7-2.7-3.4-3.6-5.3-2.3-5-2.4-10.6 0-16.6zm6.2-3.6c-.9 1.8-1.7 3.5-2.3 5.1-1.9 4.9-1.9 9.3 0 13.3 3.7 7.8 13.6 11.6 15.5 12.3h.7c3 0 13.4-.8 22.7-11.6-8-3.3-16.5-9.2-25.9-18.1-3.8-.1-7.4-.4-10.7-1zm21.3-63.7c0-13.2 1.3-25.5 3.9-36.5-.7-1.1-1.3-1.9-1.8-2.7-9.3-15.1-9.8-31.5-9.3-40-3.1 2.8-6.9 6.7-10.6 11.2-.8 1.4-7.4 13.5-13.4 34.4.1 3.8 1.5 23.7 16 46.6 3.1 4.8 6.5 9.7 10.2 14.6 3.4-8.5 5-17.4 5-27.6z"/>
</svg>
