<svg xmlns="http://www.w3.org/2000/svg" viewBox="0 0 300 300">
  <path d="M231 179.8c0 1.1-.1 2.2-.1 3.3 0-.4.1-.8.1-1.2-1.1 24.8-21.6 44.6-46.7 44.6h-54.6c10.3-6.4 19.2-14.8 26.2-24.7 2.1-2.9 4-5.9 5.7-9h22.7c7.2 0 13-5.8 13-13s-5.9-13-13-13h-13.5c1-5.4 1.6-11 1.6-16.7 0-5.8-.6-11.5-1.6-17h13.5c7.2 0 13-5.8 13-13s-5.9-13-13-13h-22.9c-7.6-13.8-18.7-25.5-32.2-33.7h55c25.8 0 46.7 21 46.7 46.7 0 11.4-4.1 21.8-10.8 29.9 6.9 8 10.9 18.4 10.9 29.8zm-84.8 13.1c.1-.1.2-.3.3-.4.1-.2.2-.3.3-.4 8-12.1 12.6-26.5 12.6-42.1 0-42.3-34.4-76.8-76.8-76.8H69v33.7h13.6c23.7 0 43.1 19.3 43.1 43.1 0 6.5-1.4 12.6-4 18.1 0 .1-.1.1-.1.2-6.9 14.6-21.8 24.8-39 24.8H69v33.7h13.6c26.4 0 49.7-13.5 63.6-33.9z"/>
</svg>
