<svg xmlns="http://www.w3.org/2000/svg" viewBox="0 0 300 300">
  <path d="M193.7 122.2c-.2-.1-.4-.1-.6-.2-3.1-1.1-6.2-2-9.3-2.9h-.1c-.8-.2-.8-.2-.8-.9-.1-1.7-.4-3.3-.8-5-1.1-5.2-2.9-10.2-5.4-14.9-1.9-3.7-4.3-7.2-7.2-10.3-2.9-3-6.2-5.5-10.1-7.1-2-.8-4-1.4-6.1-1.6-1.2-.1-2.3-.3-3.5-.3-1.4 0-2.8.1-4.2.3-2.5.4-4.9.9-7.3 1.7-4 1.3-7.7 3.1-11.1 5.6-2.5 1.8-4.5 4-6.3 6.5-4.8 6.5-8 13.7-9.8 21.6-.6 2.6-1 5.2-1.3 7.9-.2 1.6-.3 3.3-.3 5-.1 2.3-.1 4.6-.1 6.8s.2 4.4.5 6.6c.8 7.5 2.7 14.8 5.6 21.8 1.5 3.6 3.3 7.1 5.2 10.5.2.3.3.4.7.4 4.1-.5 7.5.7 10.4 3.7 1.9 2 3 4.3 3.3 7.1.4 4.2-1 7.7-4.2 10.5-1.7 1.5-3.6 2.4-5.8 2.7-5.4 1-10.8-1.9-13.1-6.9-1.6-3.6-1.5-7.2.3-10.7.2-.4.2-.7 0-1.1-3.7-6.3-6.7-12.9-8.9-19.9-1.2-3.8-2.3-7.7-3-11.6-.4-2.3-.7-4.5-1-6.8-.3-2.2-.4-4.4-.5-6.6-.1-2.3 0-4.5.1-6.7.5-9.1 2.5-18 5.9-26.5 3.1-7.7 7.7-14.5 13.9-20.1 5.7-5.1 12.1-8.8 19.6-10.7 1.8-.5 3.7-.8 5.5-1 2-.2 4.1-.4 6.2-.3 3.3.1 6.5.7 9.6 1.7 5.5 1.7 10.4 4.6 14.8 8.3 5.6 4.8 9.8 10.7 12.9 17.3 2.5 5.2 4.2 10.7 5.2 16.3.4 2.4.7 4.7 1.1 7.1.1.8.1 1.6.2 2.3-.1.2-.1.3-.2.4zm-32.1 102.5c.1.1.3.1.4.2 4.2 1.9 8.6 3.5 13.1 4.6 2.2.5 4.4.9 6.6 1.2 1.3.2 2.6.3 3.8.4 1.3.1 2.6.2 3.9.2 1.7 0 3.4-.1 5.2-.3 1.6-.2 3.3-.4 4.9-.7 4.1-.8 8-2 11.7-3.7 6.3-2.9 11.8-6.9 16.3-12.2 2-2.4 3.7-4.9 5-7.8 2-4.4 2.9-9.1 3.1-13.9.1-2 0-3.9-.2-5.9-.2-2.3-.6-4.7-1.1-7-1.4-6-3.9-11.7-7.2-16.9-3.5-5.4-7.7-10.2-12.4-14.5-8.1-7.5-17.3-13-27.6-16.9-7.2-2.7-14.7-4.5-22.3-5.3-1.7-.2-3.4-.4-5.1-.5-1.6-.1-3.2-.2-4.8-.2-1.7 0-3.3 0-5 .1-.9 0-.9 0-1.4-.7-2.9-4.7-8.3-6.8-13.5-5.4-6.1 1.7-10 7.9-8.6 14.3 1.3 6 7.1 10.4 13.8 9.4 3.1-.5 5.6-2 7.6-4.4.6-.8 1.1-1.6 1.5-2.4.1-.2.2-.4.5-.4.6 0 1.3-.1 1.9-.1 2.1 0 4.3 0 6.4.1 1.7.1 3.4.2 5.1.4 1.6.2 3.2.4 4.8.7 3.4.6 6.8 1.4 10.1 2.4 5.8 1.8 11.3 4.2 16.6 7.3 4.9 2.8 9.5 6 13.7 9.9 6.7 6.2 11.8 13.6 15 22.2 1.7 4.5 2.5 9.2 2.2 14-.1 1.7-.4 3.3-.8 4.9-.8 3.1-2.2 5.9-3.9 8.6-2.4 3.8-5.4 7-9.1 9.5-5.4 3.6-11.3 5.2-17.7 5.5-2.6.1-5.1 0-7.7-.4-1.4-.2-2.8-.4-4.2-.7-3.7-.8-7.2-1.8-10.7-3.4-.2-.1-.4-.1-.6.1-2.9 2.6-5.9 4.9-9 7.2l-.3.3c-.1.2-.1.2 0 .2zm-72.4-79.3c-3.2 2.4-6.3 5-9.1 7.9-4.9 5-8.8 10.6-11.6 17-2.4 5.6-3.8 11.5-4 17.7-.1 2.8 0 5.7.4 8.5.5 3.4 1.4 6.6 2.6 9.8 2.4 6.3 6.3 11.4 11.7 15.5 4.9 3.6 10.3 6.1 16.2 7.6 2.6.7 5.2 1.1 7.9 1.4 1.8.2 3.7.3 5.5.3 1.6 0 3.1 0 4.6-.2 1.2-.1 2.4-.2 3.5-.4 2.1-.3 4.2-.7 6.3-1.2 6.1-1.3 12-3.2 17.7-5.8 8-3.6 15.4-8.2 21.9-14.1 7.4-6.6 13.4-14.3 18.2-22.9.6-1.1 1.2-2.3 1.8-3.5.2-.3.3-.5.7-.5.3 0 .6-.1 1-.2 4.9-1.2 8.8-5.3 9.3-10.6.2-2.3-.2-4.5-1.2-6.6-2.4-4.8-7.6-7.5-13-6.5-2.7.5-5 1.8-6.8 3.8-2.6 2.9-3.6 6.3-3 10.1.4 2.4 1.4 4.5 3.1 6.2.3.4.3.4.1.8-1.7 3.3-3.6 6.5-5.8 9.5-4.7 6.5-10.5 12-17 16.6-4.2 3-8.6 5.6-13.2 8-4.7 2.4-9.6 4.3-14.8 5.5-2 .5-4.1.9-6.2 1.1-1.5.1-2.9.3-4.4.4-2 0-3.9 0-5.9-.1-1.7 0-3.3-.3-5-.5-2.5-.4-4.9-1-7.3-1.9-4.4-1.7-8.3-4.2-11.4-7.7-2.8-3.2-4.8-6.8-6.3-10.8-.8-2.3-1.4-4.6-1.6-7.1-.2-1.4-.2-2.8-.2-4.2 0-1.3.2-2.7.4-4 .6-3.4 1.6-6.7 3.2-9.9 3.5-7.1 8.4-12.9 14.5-17.9.2-.2.4-.3.7-.5-1.2-3.6-2-7.2-2.9-11-.3.2-.5.3-.6.4z"/>
</svg>
