<svg xmlns="http://www.w3.org/2000/svg" viewBox="0 0 300 300">
  <path d="M35.35 37.59l196.36 208s6.69 4.72 11.81-.79a8.71 8.71 0 0 0 1.18-11L35.36 37.59zm62.18 19.66l149.54 161.21s6.69 4.72 11.81-.79a8.71 8.71 0 0 0 1.18-11zM53.85 99.32l149.53 161.21s6.69 4.72 11.81-.79a8.71 8.71 0 0 0 1.18-11zm96.24-25.16l104.47 112.62s4.67 3.3 8.25-.55a6.09 6.09 0 0 0 .82-7.69L150.09 74.16zm-81.85 73.92L172.71 260.7s4.67 3.3 8.25-.55a6.09 6.09 0 0 0 .82-7.69zm135.54-49.55l47.35 51.2s2.31 1.54 4.08-.26a2.74 2.74 0 0 0 .41-3.6zM94.38 200l47.35 51.2s2.31 1.54 4.08-.26a2.74 2.74 0 0 0 .41-3.6z"/>
</svg>
