<svg xmlns="http://www.w3.org/2000/svg" viewBox="0 0 300 300">
  <path d="M221.5 55.2h-139c-9.7 0-17.4 7.8-17.4 17.4v158.9c0 9.7 7.8 17.4 17.4 17.4h139.1c9.7 0 17.4-7.8 17.4-17.4V72.6c0-9.7-7.8-17.4-17.5-17.4zm7.8 176.4c0 4.4-3.4 7.8-7.8 7.8h-139c-4.4 0-7.8-3.4-7.8-7.8v-159c0-4.4 3.4-7.8 7.8-7.8h139.1c4.4 0 7.8 3.4 7.8 7.8v159zm-120.7-11.7l21.8-19.4-21.8-19.4v38.8zm78.5-78.5c-3.9-3.9-11.1-8.7-23.3-8.7-13.1 0-26.7 3.4-36.3 6.8V84.3h-19.4v83.8l13.6-6.3s22.3-10.2 41.7-10.2c9.7 0 12.1 5.3 12.1 10.2v58.1h19.4v-58.1c.5-1.5.5-12.1-7.8-20.4zm-25.6-25.7h19.4c8.7-10.2 13.1-20.4 14.5-31.5H176c-1.9 11.2-6.8 21.4-14.5 31.5z"/>
</svg>
