<svg xmlns="http://www.w3.org/2000/svg" viewBox="0 0 300 300">
  <path d="M69 69v162h162V69H69zm91.6 67.5h-17.1v9.8h15.8v6.7h-15.8v10.4h17.1v6.7h-24.8v-40.4h24.8v6.8zm18.9 34.3c-4.6 0-10-1.2-12.6-2.4l1.3-6c3.8 1.2 7.4 1.9 11.4 1.9 5.5 0 6.4-1.2 6.4-5 0-4.5-.1-4.9-7.4-6.4-9.8-2.2-11.1-4.1-11.1-12.6 0-7.3 3.3-11 13.6-11 3.5 0 7.8.4 11.8 1.3l-.9 6.4c-3.3-.7-7.3-1.2-10.8-1.2-5.2 0-6.1 1.1-6.1 4.6 0 4.6.1 4.7 7.1 6.4 10.9 2.6 11.4 4.4 11.4 12.5.1 7.6-2.2 11.5-14.1 11.5zm45.8-11c0 6.3-2.9 11.1-12.5 11.1-10.4 0-12.5-4.6-12.5-11.6v-14.8c0-10.7 5.7-14.1 16.8-14.1 2.2 0 5.2.3 7 .7l-.5 6.2c-1.8-.4-4.4-.5-5.7-.5-7.2 0-10.1 1.2-10.1 7.4v3.8c2.1-.7 4.6-1.1 7.2-1.1 7.3 0 10.3 3 10.3 10v2.9zm-7.4-2.8v3c0 3.1-1.2 4.4-5 4.4s-5.1-1.1-5.1-4.4v-5.5c1.7-.7 3.9-1.3 6.1-1.3 2.6 0 4 .9 4 3.8z"/>
</svg>
