<svg xmlns="http://www.w3.org/2000/svg" viewBox="0 0 300 300">
  <path d="M117.6 204.4c-1.8 3.7-4.1 6.9-7.4 9.1-6.8 4.5-14 5.1-21.2 1.5-7.2-3.7-10.9-9.7-11.4-17.9-.5-8.8 5.7-18.7 16.5-20.9 2.6-.5 5.2-.6 7.7-.1 1.5.3 2-.2 2.6-1.3 6-10.9 12-21.7 18-32.6.9-1.6 2.6-3.1 2.3-4.8-.3-1.6-2.7-1.9-4.1-2.8-3.6-2.3-4-5.6-.8-8.5 3.3-3.1 7.2-5.3 11-7.7l1.5-.9c1.3-.6 1.2-1.3.4-2.4-2.6-3.8-3.6-8.1-3.4-12.8.3-10.2 9.5-19.1 19.7-19.5 10.3-.4 19.4 6.8 21.3 16.4 1.3 6.3.1 12.2-4 17.3-1.1 1.4-1.2 2.4-.3 4 6 11 11.9 22 17.8 33 1.2 2.2 1.2 2.2 3.3 1 6.1-3.3 9.4-1.3 10.1 5.6.5 5.2.2 10.5 0 15.9h4.6c11.1-.4 20.8 9.5 20.7 20.5-.2 10.4-7 19.1-17.1 20.7-10.6 1.7-19.5-4-23-13.1-.7-1.8-1.4-2.3-3.2-2.3-12.3.1-24.7 0-37 0-2.4 0-2.4 0-2.4 2.5v2.9c-.1 4.3-2.8 6.2-6.9 4.9-3.7-1.2-7-3.1-10.3-4.9-1.7-1-3.3-1.9-5-2.8zm61.4-13.1c1.7 0 2.8-.2 3.3-2.2.5-1.8 1.4-3.6 2.7-5 1-1.2.9-1.8-.5-2.6-3-1.8-6-3.8-8.9-5.7-2.1-1.4-4.1-2.8-5.8-4.6-2.8-2.9-2.4-6 1.1-8.1.8-.5 1.7-.9 2.5-1.4 2.4-1.3 2.4-1.3 1.1-3.6-1.9-3.4-3.7-6.9-5.6-10.3-4-7.5-8-15-12.1-22.4-.5-.8-.7-2.2-2.2-1.8-1.9.6-3.8.5-5.7.4-1.3 0-1.9.3-1.8 1.7.1 2.3 0 4.6 0 6.9 0 2.6-.3 5.1-.6 7.7-.4 3.2-4.5 6.3-8 4.1-.8-.5-1.7-.8-2.5-1.4-1.2-.9-1.9-.4-2.4.7-.2.4-.5.8-.7 1.3-6.3 11.3-12.5 22.6-18.9 33.8-1.1 1.9-1 3.2.5 4.7.7.7 1.3 1.7 1.8 2.6 1.6 2.8 1.6 2.8 4.5 1.1 3.8-2.2 7.6-4.5 11.8-5.7 3.9-1.1 6.9 1.1 7 5.1v2c0 2.9-.3 2.7 2.6 2.7h18.4c6.1 0 12.3-.1 18.4 0zm-18.7-87.9c0-5.6-4.6-10.2-10.2-10.2-5.7 0-10.4 4.7-10.3 10.4.1 5.6 4.8 10.1 10.4 10.1 5.5-.1 10.1-4.7 10.1-10.3zm-61.9 82.8c-5.6 0-10.3 4.6-10.3 10.1-.1 5.7 4.6 10.4 10.3 10.4 5.6 0 10.2-4.7 10.2-10.3 0-5.5-4.6-10.2-10.2-10.2zm93.1 10.1c-.1 5.6 4.5 10.3 10 10.4 5.7.1 10.5-4.5 10.5-10.2 0-5.6-4.6-10.2-10.2-10.3-5.6 0-10.3 4.5-10.3 10.1z"/>
</svg>
