<svg xmlns="http://www.w3.org/2000/svg" viewBox="0 0 300 300">
  <path d="M145.73 170.93l-39.29 22.59v-37.16l11-6.36 28.32-16.23v-25.33l-16.27 9.35-44.8 25.58v87.77l61.08-34.94zm-39.29-66.42l18.24 10.42 20.42-11.66-60.45-34.42v68.85l21.78-12.34z"/>
  <path d="M111.13 171.78l11.66 6.62L145 165.72l-22.68-12.9-11.23 6.41zM153 133l40.58 23.32v37.16L153 170.2v25.33l62.36 35.62v-87.77L153 107.76zm2-29.77l20.37 11.66 18.24-10.42v20.84l21.78 12.34v-68.8z"/>
  <path d="M188.87 159.23l-11.28-6.41-22.59 12.9 22.25 12.69 11.66-6.62z"/>
</svg>
