<svg xmlns="http://www.w3.org/2000/svg" viewBox="0 0 300 300">
  <path d="M43.1 121.7H28.4v45.8h-6v-45.8H7.7v-5.4h35.5v5.4zm21.7 9.2l-10.4 28.2c-.4 1.3-.6 2.2-.7 2.7h-.2c-.4-1.5-.6-2.4-.7-2.8L43 130.9h-6.5l14.2 36.5-2.9 6.9c-1.5 3.5-3.7 5.3-6.7 5.3-1 0-2.2-.2-3.4-.6v5.2c1 .3 2.3.5 3.8.5 5.4 0 9.6-3.8 12.6-11.3L71 130.9h-6.2zm15.7 31.2c2.6 4.1 6.3 6.2 10.9 6 5.1 0 9.2-1.8 12.2-5.5s4.5-8.6 4.5-14.7c0-5.5-1.4-9.9-4-13.1-2.6-3.2-6.3-4.9-11-4.9-5.5 0-9.7 2.4-12.6 7.3h-.2v-6.4h-5.9v53.3h5.9V162l.2.1zm-.1-14.7c0-3.6 1-6.6 3.2-8.9 2.1-2.3 4.8-3.5 8.2-3.5 3.2 0 5.8 1.1 7.7 3.4 1.9 2.3 2.8 5.5 2.8 9.5 0 4.9-1 8.6-3 11.3-2.1 2.7-4.9 4.1-8.4 4.1-3.1 0-5.5-1.1-7.5-3.2s-3-4.6-3-7.7v-5zm63.6.3c0-5.5-1.4-9.8-4-12.9-2.6-3.2-6.3-4.7-11.1-4.7s-8.7 1.8-12 5.4c-3.2 3.5-4.9 8.2-4.9 13.9 0 5.9 1.4 10.6 4.4 14 3 3.3 7 5 12.2 5 5.2 0 9.5-1.2 12.7-3.5v-5.5c-3.4 2.7-7.2 4.1-11.3 4.1-3.7 0-6.6-1.1-8.6-3.3s-3.2-5.4-3.2-9.5H144v-3zm-25.8-2.1c.5-3.2 1.7-5.8 3.6-7.7 1.9-2 4.2-3 7-3s5 .9 6.7 2.8c1.6 1.9 2.4 4.5 2.4 7.9h-19.7zm28.6 20c1.2.7 2.9 1.2 5.2 1.7 2.3.5 4.3.8 6.1.8 5 0 8.8-1.2 11.5-3.7 2.7-2.5 4.1-5.7 4.1-9.6 0-2.8-.7-5.2-2.3-7.3-1.6-2.1-4.8-4.5-9.5-7.2-4.6-2.6-7.7-4.8-9-6.3-1.4-1.5-2.1-3.6-2.1-6.2 0-2.7 1-4.9 3.1-6.7 2.1-1.7 4.8-2.6 8.3-2.6 3.4 0 6.7.7 9.6 2.1v-3.7c-3-1-6-1.5-9.1-1.5-4.7 0-8.5 1.3-11.3 3.8s-4.2 5.6-4.2 9.2c0 2.6.7 5 2.1 7 1.4 2 4.6 4.5 9.8 7.6 4.6 2.7 7.7 4.9 9 6.4 1.4 1.6 2.1 3.7 2.1 6.3 0 3-1 5.2-3.1 6.9-2.1 1.7-5.1 2.5-9.1 2.5-3.8 0-7.5-1.2-11.2-3.5v4zm57.4.2v-3.4c-2.7 1.9-5.9 2.9-9.5 2.9-4 0-7.2-1.4-9.6-4.3s-3.7-6.7-3.7-11.4c0-4.9 1.3-8.9 4-12 2.7-3.1 6.1-4.6 10.4-4.6 3.1 0 5.9.8 8.6 2.4v-3.7c-2.6-1.2-5.3-1.7-8.1-1.7-5.4 0-9.8 1.9-13.2 5.6-3.4 3.7-5.1 8.5-5.1 14.2 0 5.6 1.5 10 4.6 13.4 3.1 3.4 7.1 5.1 12.1 5.1 3.5 0 6.8-.9 9.5-2.5zm21.9-31.5v-3.5c-1-.5-2.3-.6-3.6-.6-2.4 0-4.5.8-6.3 2.3-1.8 1.5-3.2 3.7-4 6.5h-.2v-8.1h-3.2v36.7h3.2v-17.2c0-5.5.9-9.7 2.9-12.7 1.9-3 4.3-4.5 7.2-4.5 1.5-.1 2.8.3 4 1.1zm7.1-13.4c.5-.5.8-1.3.8-2 0-.8-.3-1.4-.8-1.9-.6-.5-1.3-.7-2-.7s-1.4.3-1.9.7c-.5.5-.8 1.1-.8 1.9s.3 1.4.8 2 1.2.8 1.9.8 1.3-.3 2-.8zm-.4 46.5v-36.6h-3.2v36.6h3.2zm23.3 1c4.9 0 8.8-1.9 11.8-5.7 3-3.8 4.5-8.7 4.5-14.9 0-5.5-1.3-9.8-3.9-13.1-2.6-3.2-6.2-4.8-10.9-4.8-2.9 0-5.6.7-8 2.2-2.4 1.4-4.2 3.5-5.6 6.2h-.2v-7.6h-3.2v53.4h3.2v-23.3h.2c2.7 5.1 6.7 7.5 12.1 7.6zm-8.8-31.1c2.3-2.9 5.7-4.3 9.9-4.3 3.6 0 6.4 1.4 8.6 4.1 2.2 2.7 3.2 6.3 3.2 10.9 0 5.2-1.2 9.4-3.5 12.6-2.3 3.2-5.4 4.8-9.1 4.8-3.8 0-6.8-1.4-9.1-4s-3.4-5.8-3.4-9.5v-4.6c0-3.8 1.1-7.1 3.4-10zm45 29.6v-3c-1.6.9-3.1 1.4-4.4 1.4-1.9 0-3.2-.5-4.1-1.7s-1.2-3-1.2-5.5V134h9.6v-3h-9.6v-10.6l-1.6.5-1.6.5v9.5h-6.6v3h6.6v24.4c0 6.5 2.7 9.7 8.1 9.7 1.5.1 3.1-.3 4.8-1.1z"/>
</svg>
