<svg xmlns="http://www.w3.org/2000/svg" viewBox="0 0 300 300">
  <path d="M109.9 94.4c-.5-2.3-.5-7.6 11.4-8.7 6.1-.5 10.9.6 11.5 3 .2.9-.3 1.7-1.8 2.4-2-1.1-6.2-1.7-9.7-1.4-3.8.3-7 1.5-6.5 4.1.6 2.6 4.3 4.1 10.8 3.5 15.9-1.4 15.8-12.1 39.2-14.3 18.2-1.7 28.4 3.9 29.8 10.8 1.1 5.3-3.3 10.5-16.5 11.5-11.7 1.1-18.5-2.1-19.1-5.3-.3-1.7.6-4.1 6.2-4.7.6 2.6 3.8 5.3 11.4 4.6 5.5-.5 10-2.4 9.4-5.5-.6-3.2-6.4-5-15.5-4.3-18.5 1.7-23.1 11.8-38.9 13.2-11.4 1.3-20.5-2.8-21.7-8.9zm100.9 35.8c-14.6 3.3-33.2 5.6-55.7 5.6-22.9 0-41.6-2.4-56.2-5.6-13.1-3.3-20-7-22.5-10.8 1.3 8.5 3.4 16.8 6.2 24.6-3.3 2-6.3 4.7-9.1 8.2-5.2 6.5-7.4 14.1-7 21.6.5 7.4 4.1 13.5 9.9 18.2 6.1 4.7 12.6 6.1 20 4.7 2.9-.5 6.1-2 9-2.9-6.1 0-11.2-2-16.4-6.1-5.6-4.1-9.4-9.9-10.3-16.9-1.4-6.5 0-12.6 3.6-17.9.8-1 1.7-1.9 2.6-2.8 2.1 5.1 4.4 10 7 14.8 5.6 8.5 11.2 15.9 16.9 24 2.4 4.7 4.1 9.4 5.2 14.1 3.6 5.2 9 8.5 15.5 10.3 8 2.9 16.4 4.1 24.9 3.6h.9c8.5.5 17.5-.9 25.7-3.6 6.1-2 11.2-5.2 15-10.3h.5c.9-4.7 2.4-9.4 4.7-14.1 5.6-8 11.2-15.5 16.9-24 7.4-13.5 12.6-29 15.5-45.5-3.2 4.3-10.2 7.9-22.8 10.8zm-112-11.7c14.6 3.6 33.2 5.6 55.7 5.6 22.9 0 41.1-2 55.7-5.6 15.5-3.6 22.9-8.5 22.9-13.1 0-3.3-3.3-6.5-9.4-9 1.4.9 2.4 2.4 2.4 4.1 0 4.7-7 8.5-21.1 11.7-13.1 2.9-29.8 4.9-50.1 4.9-19.6 0-37-2-49.6-4.7-13.5-3.3-20.6-7-20.6-11.7 0-2 .9-3.6 3.6-5.6-8.5 3.3-13.1 6.1-13.1 10.3.5 4.8 8.1 9.5 23.6 13.1z"/>
</svg>
