<svg xmlns="http://www.w3.org/2000/svg" viewBox="0 0 300 300">
  <path d="M170.5 26.1c5.5 6.3 7.3 15.2 5.7 23.3-1.7 9.1-6.7 17.1-12.6 24-4.7 5.6-10.2 10.5-15.8 15-6.6 5.3-13.1 11-17.2 18.5-3.5 6.1-4.3 13.6-1.9 20.2 3.9 11.3 13 19.8 18 30.5-5.5-4.9-10.9-9.9-15.9-15.2-5.3-5.6-10.2-11.6-13.5-18.6-2.2-4.9-3.2-10.6-1.5-15.8 1.7-5.3 5.5-9.6 9.3-13.6 10.6-10.6 23.6-18.4 34-29.1 5.7-5.9 10.5-13 12.1-21.1 1.2-6 .6-12.2-.7-18.1zm-8.6 66.6c-7.2 5.4-13.9 12.9-14.8 22.2-1 9.3 3.9 18.1 9.6 25 2.8 3.1 5.2 6.9 5.3 11.2.1 5.8-3.2 11.2-7.4 15 1-.1 1.7-1 2.5-1.5 6.3-4 12.4-9.1 15.5-16.1 2-4.7 1.6-10.3-1.1-14.7-3.2-5.1-7.3-9.7-9.8-15.3-1.3-3.2-1.8-6.8-.7-10.2 1.5-4.5 4.6-8.2 8-11.4 9.2-8.7 20.3-14.9 30.9-21.7-13.4 3.8-26.7 9.2-38 17.5zm40.2 67.6c2.9-.6 5.8-1.8 8.8-1.5 6.4.4 12.6 5 13.8 11.5 1.1 5.6-1.6 11-5 15.3-5.7 6.8-13.3 11.6-21 15.8-.8.5-1.4 1.1-2 1.7 10.2-2.6 20.3-6.4 28.6-13 4.6-3.8 8.6-8.8 9.5-14.8.8-5.2-1.3-10.6-5.2-14-4.7-4.3-11.3-5.8-17.5-5-3.6.3-7.5 1-10 4zm-117.5 5.3c-2.4 1.2-5.1 2.1-7 4.1-.8.8-.8 2.2.1 2.9 1.8 1.6 4.1 2.3 6.3 2.9 7.7 2 15.6 2.6 23.4 3.2 7 .5 14 .6 21.1.5 18.2-.3 36.6-1.5 54.5-5.5 1.7-.4 3.6-.7 5.1-1.8 3-1.9 6.3-3.4 9.5-5-14.6 2.3-29.2 4.3-43.9 5.3-14.9.9-29.9 1.5-44.9.5-4.3-.4-8.7-.6-12.6-2.3-.9-.4-2.2-1.2-1.8-2.5.9-1.6 2.6-2.3 4.2-3.2 6.4-3 13.4-4.7 20.3-6.7-11.9 0-23.6 3-34.3 7.6zm13.8 25c-1.3 1-2.6 2.6-2.2 4.3.5 2 2.5 3.3 4.3 4.2 4.3 2.2 9.2 3.2 13.9 4.1 12 1.9 24.2 2 36.2 1.2 12.7-1 25.4-3.1 37.8-6.7-3.5-1.6-6.8-3.4-9.6-6-10.2 1.8-20.5 3.5-30.9 4-11.3.8-22.7.1-33.9-1.1-2.2-.3-4.3-.6-6.3-1.6-1-.6-2-1.5-1.9-2.7.1-1.9 1.8-3.3 2.9-4.7-3.6 1.3-7.3 2.6-10.3 5zm6.8 25.5c-1.3 1.1-2.4 2.9-1.8 4.6.8 2.2 2.9 3.4 4.8 4.6 5 2.7 10.7 4 16.3 5 12.6 2 25.5 1.7 38-.5 7.4-1.4 14.8-3.4 21.7-6.5-4.5-1.9-8.9-4-13.1-6.4-7.3 1.3-14.7 2.6-22.2 3.1-9.9.8-19.9-.1-29.8-1.3-2.3-.5-5.3-.8-6.8-2.8-.8-1.7 1.1-2.9 2.1-3.9-3.2.8-6.5 1.9-9.2 4.1zm-32.5 16.5c-4.6 1.7-9.4 3.6-13 7-1.5 1.3-2.8 3.7-1.3 5.5 2.3 2.5 6 3.2 9.2 3.9 18 3.1 36.2 4.9 54.5 5.5 24.2.7 48.6-.4 72.4-5 8.2-1.7 16.4-3.6 23.9-7.4 2.3-1.3 5.2-2.8 6-5.6.4-2.7-2.4-4.1-4.4-5.2 1.2 1.4 2 3.4.8 5.1-2 2.7-5.6 3.8-8.7 4.9-9.7 2.7-19.8 3.9-29.8 5-26.5 2.4-53.1 3-79.6.8-8.9-.9-17.9-1.9-26.4-5.1-1.3-.6-3.4-1.2-3.4-3 .5-1.6 2-2.5 3.4-3.2 6.1-3.1 12.9-4.8 19.6-5.2-2-1.2-4.3-1.3-6.6-1.2-5.6 0-11.2 1.4-16.6 3.2zm145.7 20c-11 3.5-22.4 5.4-33.7 7-19.6 2.5-39.3 3.2-59 2.6-12-.5-24-1.3-35.8-3.3 2.7 1.9 6.1 2.5 9.3 3.3 13.3 2.8 26.9 3.3 40.4 3.7 19.8.4 39.6-.4 59.2-3.5 9.2-1.6 18.5-3.6 26.8-8 4.3-2.3 8.7-5.8 9.5-10.9-4.5 4.9-10.8 7.1-16.7 9.1z"/>
</svg>
