<svg xmlns="http://www.w3.org/2000/svg" viewBox="0 0 300 300">
  <path d="M82 182.5c.4 3.3 1 6.3 1.7 9l-8.3-3c-.3-2.1-.7-5.1-.8-8.7l7.4 2.7zm-4.3-27.9c-.9 2.6-1.5 5.1-2.1 7.6l5.6 4.4c.3-2.7.8-5.4 1.5-8.1l-5-3.9zm7.9-14.7l3.3 5c1.2-1.7 2.6-3.3 4.1-4.9l-3.1-4.7c-1.6 1.5-3 3-4.3 4.6zm13.9-38.4h.7l-1.4-4.2c-2.1 0-4.4.1-6.6.4l1.3 4.1c2-.2 4-.3 6-.3zm68.1 36.8c1.2-1 2.4-1.9 2.4-1.9s-36-35.9-76.1-31.9c-20.2 1.8-45 20.2-59.6 44.4s-16.6 44.7-16.6 44.7h54.7s-10.5-47.7 24.2-67c7.6-3.6 31.6-17.3 71 11.7zM132 103.8c-.6-.3-2.4-1.2-6.7-2.4l-.3 4.6c2.3.8 4.5 1.6 6.7 2.5l.3-4.7zm-60.6 5l-3.1-4.8c-1.7.9-3.5 1.9-5.4 3l3.2 4.8c1.8-1.1 3.5-2.1 5.3-3zm-47.1 51.5l-8-2.9c-1.3 3-2.8 6.4-3.5 8.3l8 2.9c1-2.3 2.4-5.7 3.5-8.3zm20.9-31l-4.9-4.3c-1.8 1.7-3.5 3.5-5.1 5.2l5.3 4.6c1.5-1.9 3.1-3.7 4.7-5.5zM270.1 175c.3 0 .3 0 0 0zm-138.4-46.7l.3-4.3c-2.4-.5-4.6-.8-6.9-.9l-.3 4.4c2.4 0 4.7.3 6.9.8zm96.3 16.3h-14v49.1h32.9V181H228v-36.4zm46.2 18.5h-11.3v-5.8h22.4v-12.6h-21.5c-5.5 0-13 4.6-13 13.1v4.4c0 8.5 7.3 12.9 13 12.9h10.7v6.1l-22.9.1v12.5h22.7c4.6 0 12.6-3.4 12.9-12.9v-4.8c-.1-8.2-6.7-13-13-13zm-80 30.6h14.1v-49h-14.1v49zm-89.7-61.9c2-1 4-1.8 6-2.4l-1.5-4.6c-2.4.7-4.4 1.5-6.1 2.2l1.6 4.8zm25.7 46.3l15.4 15.6H126l-11.5-11.9v11.9h-13.3v-49.4h26.5s14.7 1.5 14.7 17.1-12.2 16.7-12.2 16.7zm-2.1-15.8c0-4.5-3-5.6-3-5.6h-10.7V168H125c.1 0 3.1-1.2 3.1-5.7zm60-4.8v36.2H175V185h-12.7v8.7h-13.5v-36.2c0-4.2 3.3-12.9 12.9-12.9h13.5c3.3 0 12.9 2.4 12.9 12.9zM174.9 171v-12s-.1-2.7-3.8-2.7h-4.6c-4.2 0-4.2 2.7-4.2 2.7v12h12.6z"/>
</svg>
