<svg version="1.1" xmlns="http://www.w3.org/2000/svg" viewBox="0 0 300 300">
  <g>
  	<path class="st2" d="M159.3,123.7c6.2,6.4,12.2,12.9,18.5,19.2c1.9,1.9,1.3,3.7,1,5.7c-1.2,9.7,5.4,17.9,14.9,18.6c9,0.6,17-7,17-16.2c-0.1-9.5-8.1-16.9-17.8-15.7c-3.3,0.4-5-0.6-7-2.6c-4.1-4.2-8.2-8.3-12.4-12.3c-4.2-4-7.6-7.6-7.2-14.6c0.5-8.5-8.4-15.4-17.1-14.3c-3.4,0.4-5.4-0.5-7.5-2.7c-6-6.1-12-12.1-18.2-18c-2.1-2-2.2-3.4,0-5.5c5.6-5.3,10.9-10.9,16.5-16.2c6.4-5.9,13.8-5.8,20.1,0.3c30.5,30.1,61,60.3,91.4,90.6c6.3,6.3,6.2,14.1-0.2,20.4c-30.1,30-60.3,59.9-90.5,89.7c-6.7,6.7-14.2,6.6-20.9,0c-30.4-30-60.7-60.1-91-90.2c-6.5-6.5-6.6-14-0.2-20.4c20-20,40.2-39.9,60.3-59.9c2.2-2.2,3.3-2.2,5.4,0c4,4.3,8.3,8.2,12.4,12.4c4.4,4.5,10.2,8,8,16.4c-1.1,4.3,2.2,8.9,6.3,11.5c2.9,1.8,3.5,4.1,3.5,7.3c-0.1,15.8-0.1,31.7,0,47.5c0,3.1-0.6,5.2-3.3,7.3c-8.2,6.2-9,16.3-2.4,23.5c6.3,6.8,17,7,23.4,0.4c6.6-6.7,6.2-16.7-1.2-23.2c-2-1.8-3.3-3.2-3.3-6.1c0.2-17.3,0.1-34.6,0.1-51.8C158.2,124.4,158.8,124.1,159.3,123.7z"/>
  </g>
</svg>
