<svg xmlns="http://www.w3.org/2000/svg" viewBox="0 0 300 300">
  <path d="M150 69.4c-44.5 0-80.6 36.2-80.6 80.6 0 44.5 36.2 80.6 80.6 80.6 44.5 0 80.6-36.2 80.6-80.6 0-44.5-36.1-80.6-80.6-80.6zm.1 153.6c-40.2 0-72.9-32.6-72.9-72.9 0-2.6-.1-4.9.4-7.8 6-20.3 20.3-27.8 33.9-27.9 2.8 0 5.5.4 8 1-9.7 8.5-15.8 20.9-15.8 34.8 0 25.6 20.7 46.3 46.3 46.3 7.4 0 14.4-1.7 20.6-4.8 3.7 1.3 7.9 2.1 13 2.7 1.9.2 4 .4 6.2.4 5.9 0 12.7-.9 19.9-2.6-13.2 18.6-35 30.8-59.6 30.8zm6.3-64.8c-2-5.1-3.1-9-3.2-9-3.6-13.9-7.4-26.7-15.2-35.6 3.8-1.3 7.9-2 12.1-2 21.3 0 38.5 17.3 38.5 38.5 0 12.8-6.2 24-15.8 31.1-1.4-.4-2.4-.8-2.9-1-1.5-.7-3.7-2.9-5.7-6-3.1-4.6-5.9-10.9-7.8-16zm5.8 28.5c-3.8 1.3-7.9 2-12.1 2-4.7 0-9.1-.8-13.3-2.4-.1-1.1-.1-2.1-.1-3.1 0-2.5.3-4.8.7-6.7 1.2-5.2 4.4-13.2 7.3-19.9.8-1.9 1.6-3.6 2.4-5.2 4.6 16.3 7.5 25.9 12.6 32.5.8 1.1 1.6 2 2.5 2.8zm-19.3-47c.7 1.7 1.3 3.3 1.8 4.7-8.9 18.1-14.8 27.1-17.2 36.9-9.6-7-15.9-18.3-15.9-31.2 0-13 6.5-24.5 16.4-31.5 2.2 1.3 4.1 2.7 5.7 4.4 3.2 3.3 6.7 10.5 9.2 16.7zm69.6 36.5c-6.5 5.5-15.3 7.3-23.3 7.3-2.3 0-4.5-.1-6.6-.4 8.5-8.4 13.8-20 13.8-32.9 0-25.6-20.7-46.3-46.3-46.3-6.6 0-12.9 1.4-18.6 3.9-.7-.5-1.5-1-2.2-1.4-3.2-1.8-9.9-4.4-18.3-4.4-6.1-.1-13.2 1.5-20 5.8 13.2-18.4 34.8-30.4 59.2-30.4 40.2 0 72.9 32.6 72.9 72.9 0 3.2-.2 6.2-.6 9.3-2.2 7.7-5.7 13-10 16.6z"/>
</svg>
