<svg xmlns="http://www.w3.org/2000/svg" viewBox="0 0 300 300">
  <path d="M111.1 62.6h-7.9V54h-8.7v25.9h8.7v-8.6h7.9v8.6h8.7V54h-8.7v8.6zm60.7-8.6h-.8l-5.4 8.9-5.4-8.9h-9v25.9h8.4V67l6 9.3 6.1-9.6v13.2h8.4V54h-8.3zm-48.2 8.7h7.6v17.2h8.7V62.7h7.6V54h-23.9v8.7zm69.8 8.5V54h-8.7v25.9h20.8v-8.7h-12.1zm12 159.1L150 246l-55.4-15.7L81.8 91.6h136.4l-12.8 138.7zm-14.1-93.1l1.6-17.2h-85.8l4.8 51.9.1-.3h58.6l-1.9 22L150 199l-19-5.5-1.1-13.3h-17.2l2.5 26.6 34.9 9.9 34.9-9.9 4.8-52.1h-62.3l-1.6-17.4h65.4z"/>
</svg>
