<svg xmlns="http://www.w3.org/2000/svg" viewBox="0 0 300 300">
  <path d="M109 177.5c-.2.2-1 .5-2.1.7-1.8.4-4.1.4-6.6.3-4.3-.3-8.9-1.2-11.8-2.5-3-1.4-5.5-3.1-7.1-4.6 6.5 1.2 16.3 3.1 22.2-1.4.4.1.8.2 1.2.4 1.8.5 4.5 1.2 4.2 7.1zm54.8-11.7c.3 0 .7.1 1 .2-.3-1.3-.8-2.6-1.3-4.1-1.4-4-.5-1.9-2.8-6.9-3.1-6.9-7.1-15.8-2.6-36.3 1.3-5.7 4.5-8.8 8.5-10 2.6-.8 5.5-.9 8.3-.4 2.7.4 5.5 1.3 7.9 2.2 1.6.7 3.1 1.4 4.4 2.2-.9-12-6.2-40.6-34.9-40.1-23.8.4-37.2 16-43.3 27.2-1.6 2.8-2.6 5.3-3.3 7.2-.1.1-.1.3-.1.4 14.1-1.5 19.7 3.4 20.9 10.8 1.7 10.4-6.8 25.5-11.1 33.2-1 1.8-1.8 3.2-2 3.8-1.7 4.1-3.8 6.8-5.5 8.8-.5.7-1 1.2-1.3 1.7 3.2.9 7.9 2.6 7.4 12 .2 2.8 1.1 10.6 2.1 18.3.8 6.3 1.7 12.6 2.3 16.2.9 4.9 2.2 8.5 4.7 11 2.4 2.5 6.1 4.2 11.5 5.4 6.2 1.3 10.1 0 12.6-2.1 2.6-2.2 4-5.4 4.9-7.6.8-2.1 1.4-7.6 1.8-15 .3-7.4.4-16.5.2-25.8 0-2-.1-3.8.5-5.7.7-2 2.1-3.9 3.7-5.1 1.4-1 3.6-1.7 5.5-1.5zM106 137c.4-3.2.7-6.3.7-9.3-.1-3.1-.5-5.7-.9-8.2-.4-2.3-.7-4.6-.7-7.1 11.4-1.4 15.8 1.7 16.6 6.6 1.4 8.7-6.5 22.8-10.5 30-1.1 1.9-1.9 3.4-2.3 4.3-.4 1-.9 1.9-1.3 2.7-3.1-6.4-2.4-12.8-1.6-19zm3.6-21.2c-.1.5.3 1.4 1.1 2.2.9.9 1.9 1.5 2.9 1.6.8.1 1.7-.1 2.6-.5 1-.6 1.8-1.3 1.8-2.1 0-.5-.3-1.1-1.2-1.5-.7-.4-1.7-.7-2.8-.9-1.1-.1-2.1-.1-2.9.1-.8.1-1.4.5-1.5 1.1zm-5.6 45.1l.3-.3c-5.1-8.4-4.1-16.5-3.2-24.1.4-3 .7-5.9.6-8.6-.1-2.9-.5-5.3-.8-7.7-.5-3-.9-6-.8-9.5v-.3c-.1-.8.2-2.7 1-5.1.7-2.1 1.9-4.9 3.6-7.9 4.7-8.5 13.2-19.3 26.7-25.3-6.5-1.3-17-2.5-27.5.5C96.5 74.8 89.1 79 83 86.7c-3.5 4.5-2.8 17 1.4 32.4 3.7 13.4 10.1 28.6 18.9 42.5.3-.2.5-.5.7-.7zm64 14.3c-1.1-1.4-2.2-2.7-3.5-4-.4-.4-.8-.5-1.1-.5-.7-.1-1.7.3-2.3.7-.8.6-1.5 1.6-1.9 2.6-.4 1.1-.5 2.5.2 3.5 3.5 4.9 7.9 7 11.9 7.7 4.1.7 8 0 10.3-.6 1.1-.3 2.5-.8 3.3-1.4-.7-.3-1.8-.7-3.5-1.1-9.4-1.8-10.4-3-13.4-6.9zm74.4-64.8c-.4 7.4-6.2 37.5-15 58.4-3 7.2-6.5 13.5-10.3 17.7-5.3 5.9-11.4 8.5-18.4 6-1.9-.7-3.7-1.7-5.5-3.2-.3.3-.6.7-1 1-2.1 2-5.5 3.5-8.2 4.2-3.2.8-8.5 1.8-14.4.7-2.2-.4-4.5-1-6.7-2 .1.9.1 2 .1 3.1-.1 1.6-.1 3.1-.1 4.2-.1 3.8-.3 7.5-.7 11.1-.4 3.8-1.1 7.2-2 9.8-.1.4-.3.7-.4 1.1-2.3 7-6.4 19.5-25.7 15.3-7.5-1.6-14.2-3.7-19.6-11.4-4.7-6.6-7.7-17.3-8.1-35.9 0-.3-.1-.7-.1-1.3-.1-.3-.1-.6-.1-.9l-1.2.1h-.3c-3.2.1-6.9-.1-10.5-.7-3.5-.6-7-1.6-9.6-2.8-5.4-2.5-10-6.1-12.1-9-1.3-1.8-2-3.7-2.2-5.5-.3-3.7 1.3-6.6 4.9-8.3 2.1-1 4.9-1.3 8.6-.5 4.7 1 7.6 1.6 9.5 2.1-8.4-13.9-14.5-28.8-18.2-42-5.1-18.3-5.1-34.2.3-41.2 8.3-10.5 18.5-15.8 28.5-18.2 14.6-3.5 29.1-.3 35.4 1.5 1.7-.3 3.5-.6 5.3-.8 2.6-.3 5.1-.4 7.7-.5 5.1-.1 9.7.6 13.8 1.8 3.1.9 6 2.2 8.5 3.7 15.1-4.8 70.9-19.6 67.8 42.4zm-68.6-37c-5.4-3.7-12.4-6-21.5-5.9-4.4.1-8.5.6-12.3 1.5-1.8-.5-4.4-1.2-4.5-1.3-.3-.1-.7-.2-1.3-.3-6.8-1.6-19.1-3.4-31.6.3-8.3 2.4-16.6 7.1-23.4 15.8-4.5 5.7-4.1 19.9.5 36.8 4 14.5 11.1 31.2 20.9 46-1.1 1.1-5 2.8-18.1.1-2.5-.5-4.3-.4-5.5.1-1.5.7-2.2 1.9-2 3.4.1.9.5 1.9 1.2 2.9 1.7 2.3 5.5 5.2 10.2 7.4 3.5 1.6 8.8 2.7 13.7 3 2.8.1 5.6 0 7.8-.4.5-.1 1.1-.3 1.6-.4.4 3.7 1 8.8 1.7 13.9.8 6.5 1.7 12.9 2.3 16.4 1 6 2.8 10.3 5.9 13.6s7.6 5.4 14.1 6.8c8 1.7 13.3-.2 16.9-3.2 3.5-3 5.2-6.9 6.2-9.5 1.1-2.6 1.8-8.7 2.1-16.6.3-5.7.4-12.5.3-19.5 3.6 3.3 7.6 4.9 11.4 5.5 5 .9 9.6 0 12.4-.7 2-.5 4.5-1.6 6-3 .9-.8 1.4-1.8 1.6-2.8.2-1.3-.2-2.5-1.4-3.6-1.1-1.1-3.2-2-6.6-2.7-7.6-1.6-8.3-2.4-10.5-5.2l-1.8-2.1v-.3c.8 0 1.6-.1 2.4-.2 2.6-.4 5.1-1.2 7.4-2.4 2.1 2.2 7.6 8.2 13.7 15.5 2.2 2.6 4.4 4.2 6.6 5 4.7 1.7 9.1-.3 13-4.7 3.4-3.9 6.6-9.6 9.5-16.4 8.6-20.3 14.2-49.5 14.6-56.7 3.1-58.4-54.4-39.4-63.5-36.1zm4.5 3.8c14.8 14.5 14.1 40.6 14.1 40.8 0 .6 0 1.4-.1 2.5-.3 4.1-.7 11.8.5 20.5.3 2.2.3 4.3.1 6.4-.5 5.8-3 11-6.6 14.9-.7.7-1.4 1.4-2.2 2.1 2.4 2.6 7.7 8.3 13.4 15.1 1.6 1.9 3.1 3 4.5 3.5 2.5.9 5.1-.5 7.7-3.3 3.1-3.4 6-8.7 8.6-14.9 8.3-19.7 13.8-48.1 14.2-55 2.3-47.6-40.9-37-54.2-32.6zm9.7 69.6c-.4 4.7-2.4 8.8-5.3 12-2.8 3.1-6.6 5.3-10.8 5.8-.7.1-1.5.1-2.3.2-.4-1.5-.9-3.1-1.5-4.7-.8-2.3-1.1-3.2-2.8-7.1-2.8-6.3-6.4-14.3-2.3-33.3.8-3.7 2.7-5.6 5.1-6.3 1.8-.6 3.9-.6 6.1-.3 2.3.3 4.6 1.1 6.7 1.9 3.6 1.5 6.4 2.8 6.4 2.9 0 .7-.1 1.5-.1 2.2-.3 4.2-.7 12.2.5 21.5.4 1.8.4 3.5.3 5.2zm-13.5-29.3c0-.7-.6-1.4-1.9-1.7-1.8-.4-4.3-.1-6 .8-.9.5-1.5 1.3-1.4 2 .1.6.7 1.5 1.6 2.1.9.6 2 1 3.3.8 1.2-.2 2.3-.9 3.1-1.7.9-.7 1.4-1.5 1.3-2.3z"/>
</svg>
