<svg xmlns="http://www.w3.org/2000/svg" viewBox="0 0 300 300">
  <path d="M148.5 229c-.9 0-1.7-.2-2.4-.7l-7.8-4.6c-1.2-.6-.6-.9-.2-1 1.5-.5 1.9-.7 3.5-1.6.2-.1.4-.1.6 0l6 3.5c.2.1.5.1.7 0l23.3-13.4c.2-.1.4-.4.4-.6v-26.9c0-.3-.1-.5-.4-.6l-23.3-13.4c-.2-.1-.5-.1-.7 0l-23.3 13.4c-.2.1-.4.4-.4.6v26.9c0 .3.1.5.4.6l6.4 3.7c3.5 1.7 5.6-.3 5.6-2.4V186c0-.4.3-.7.7-.7h3c.4 0 .7.3.7.7v26.5c0 4.6-2.5 7.3-6.9 7.3-1.3 0-2.4 0-5.4-1.5l-6.1-3.5c-1.5-.9-2.4-2.5-2.4-4.2v-26.9c0-1.7.9-3.4 2.4-4.2l23.3-13.5c1.5-.8 3.4-.8 4.9 0l23.3 13.5c1.5.9 2.4 2.5 2.4 4.2v26.9c0 1.7-.9 3.4-2.4 4.2L151 228.3c-.8.5-1.6.7-2.5.7zm18.8-26.5c0-5-3.4-6.4-10.6-7.3-7.2-1-8-1.5-8-3.1 0-1.4.6-3.3 6-3.3 4.8 0 6.5 1 7.3 4.3.1.3.3.5.7.5h3c.2 0 .4-.1.5-.2.1-.1.2-.3.2-.5-.5-5.6-4.2-8.1-11.6-8.1-6.6 0-10.6 2.8-10.6 7.5 0 5.1 3.9 6.5 10.3 7.1 7.6.7 8.2 1.9 8.2 3.4 0 2.6-2.1 3.7-7 3.7-6.2 0-7.5-1.5-8-4.6-.1-.3-.3-.6-.7-.6h-3c-.4 0-.7.3-.7.7 0 3.9 2.1 8.6 12.3 8.6 7.5-.1 11.7-3 11.7-8.1zm17.5-24.7c-2.4 0-4.5 1.9-4.5 4.5 0 2.5 2 4.5 4.5 4.5s4.5-2 4.5-4.5c0-2.6-2.1-4.5-4.5-4.5zm0 .7c2.1 0 3.8 1.7 3.8 3.8 0 2.1-1.7 3.8-3.8 3.8-2.1 0-3.8-1.7-3.8-3.8 0-2.2 1.8-3.8 3.8-3.8zm-1.7 6.3h1v-2h.9c.4 0 .5.1.5.4 0 .1.2 1.4.2 1.6h1.1c-.1-.2-.2-.9-.3-1.3-.1-.6-.1-1.1-.8-1.1.4-.1 1-.3 1-1.2 0-1.3-1.2-1.3-1.8-1.3h-1.7v4.9zm1-4.2h.8c.3 0 .7 0 .7.7 0 .3-.1.7-.8.7h-.8v-1.4zM76.4 123.8c0-1.1-.6-2.1-1.5-2.6L50.2 107c-.4-.2-.9-.4-1.4-.4h-.3c-.5 0-.9.1-1.4.4l-24.7 14.2c-.9.5-1.5 1.5-1.5 2.6l.1 38.3c0 .5.3 1 .7 1.3.5.3 1 .3 1.5 0L38 155c.9-.6 1.5-1.5 1.5-2.6v-17.9c0-1.1.6-2.1 1.5-2.6l6.2-3.6c.5-.3 1-.4 1.5-.4s1 .1 1.5.4l6.2 3.6c.9.5 1.5 1.5 1.5 2.6v17.9c0 1.1.6 2 1.5 2.6l14.7 8.4c.5.3 1 .3 1.5 0s.7-.8.7-1.3l.1-38.3zm133.5-44.4c.9.5 1.5 1.5 1.5 2.6v71.1c0 1.1-.6 2.1-1.5 2.6L185.2 170c-.9.5-2.1.5-3 0l-24.7-14.3c-.9-.5-1.5-1.5-1.5-2.6v-28.5c0-1.1.6-2 1.5-2.6l24.7-14.3c.9-.5 2.1-.5 3 0l6.2 3.6c.3.2.7.2 1 0 .3-.2.5-.5.5-.9V72.5c0-.5.3-1 .7-1.3.5-.3 1-.3 1.5 0l14.8 8.2zm-17 54.5c0-.3-.1-.5-.4-.6l-8.5-4.9c-.2-.1-.5-.1-.7 0l-8.5 4.9c-.2.1-.4.4-.4.6v9.8c0 .3.1.5.4.6l8.5 4.9c.2.1.5.1.7 0l8.5-4.9c.2-.1.4-.4.4-.6v-9.8zm84.6-.2c.9-.5 1.5-1.5 1.5-2.6v-6.9c0-1.1-.6-2-1.5-2.6L253 107.3c-.9-.5-2.1-.5-3 0l-24.7 14.3c-.9.5-1.5 1.5-1.5 2.6v28.5c0 1.1.6 2.1 1.5 2.6l24.5 14c.9.5 2 .5 2.9 0l14.8-8.3c.5-.3.8-.8.8-1.3s-.3-1-.7-1.3l-24.9-14.3c-.5-.3-.7-.8-.7-1.3V134c0-.5.3-1 .7-1.3l7.7-4.5c.5-.3 1-.3 1.5 0l7.7 4.5c.5.3.7.8.7 1.3v7c0 .5.3 1 .7 1.3.5.3 1 .3 1.5 0l15-8.6zm-31.2 1.4c-.2.1-.3.3-.3.5v5.5c0 .2.1.4.3.5l4.7 2.7c.2.1.4.1.6 0l4.7-2.7c.2-.1.3-.3.3-.5v-5.5c0-.2-.1-.4-.3-.5l-4.7-2.7c-.2-.1-.4-.1-.6 0l-4.7 2.7zm-128.6-27.6c-.9-.5-2-.5-3 0l-24.6 14.2c-.9.5-1.5 1.5-1.5 2.6v28.4c0 1.1.6 2 1.5 2.6l24.6 14.2c.9.5 2 .5 3 0l24.6-14.2c.9-.5 1.5-1.5 1.5-2.6v-28.4c0-1.1-.6-2-1.5-2.6l-24.6-14.2z"/>
</svg>
