<svg xmlns="http://www.w3.org/2000/svg" viewBox="0 0 300 300">
  <path d="M227.4 217.3c1.5 1.2 4.4 1.6 7 1.6 3.3 0 6.6-.6 9.8-3.5 3.3-3 5.5-7.5 5.5-14.7 0-6.9-2.6-12.6-8.1-15.9-3.1-1.9-7-2.7-11.5-2.7-1.3 0-2.6.1-3.4.4-.3.2-.5.6-.6 1-.1 1.2-.1 10.7-.1 16.2 0 5.7 0 13.7.1 14.6 0 .9.5 2.4 1.3 3m-13.8-38.2c1.2 0 5.7.2 7.8.2 3.9 0 6.6-.2 13.9-.2 6.1 0 11.3 1.6 15 4.8 4.5 3.8 6.8 9.2 6.8 15.7 0 9.3-4.2 14.6-8.5 17.7-4.2 3.2-9.7 5-17.6 5-4.2 0-11.3-.1-17.3-.2h-.1c-.3-.6.5-2.7 1-2.8 1.6-.2 2-.2 2.8-.6 1.3-.5 1.6-1.2 1.7-3.4.2-4.3.1-9.3.1-15.1 0-4.1.1-12.2-.1-14.7-.2-2.1-1.1-2.7-2.9-3.1-1.3-.3-2.6-.5-3.9-.6-.1-.4.9-2.3 1.3-2.7m60.6 3.5c-.3.1-.6.8-.6 1.1-.1 2.5-.1 8.9-.1 13.4 0 .2.2.3.3.3.9.1 3.1.1 5 .1 2.6 0 4.2-.3 5-.8 2.2-1.1 3.3-3.5 3.3-6.1 0-6-4.2-8.2-10.4-8.2-.8 0-1.6.1-2.5.2m15.8 27.5c0-6-4.5-9.5-12.6-9.5-.3 0-2.9-.1-3.5.1-.2 0-.3.2-.4.3 0 4.3-.1 11.3.1 14 .1 1.2 1 2.8 2 3.3 1.1.6 3.6.8 5.4.8 4.8 0 9-2.7 9-9m-28.3-30.9c.6 0 2.5.2 7.2.2 4.5 0 8.1-.1 12.4-.1 5.4 0 12.7 1.9 12.7 9.9 0 3.9-2.8 7.1-6.4 8.6-.2.1-.2.2 0 .3 5.1 1.3 9.7 4.5 9.7 10.5 0 5.9-3.7 9.6-9 12-3.3 1.4-7.3 1.9-11.4 1.9-3.1 0-11.5-.3-16.2-.3-.5-.2.4-2.4.9-2.8 1.1 0 2.1-.2 3.2-.5 1.7-.4 1.9-1 2.1-3.4.1-2.1.1-9.8.1-15.2 0-7.4.1-12.4 0-14.9-.1-1.9-.8-2.5-2.1-2.9-1-.2-2.8-.4-4.2-.6-.4-.3.6-2.4 1-2.7m-249.4 43c-.2-.4-.3-.9-.2-1.4 0-.3.1-.6.2-.9.9-.1 1.8-.3 2.7-.5 1.2-.3 1.7-1 1.8-2.5.2-3.7.2-10.7.1-15.5v-.1c0-.5 0-1.2-.6-1.7-1.1-.7-2.4-1.3-3.7-1.6-.6-.2-.9-.5-.9-.8 0-.4.4-.8 1.1-.9 2-.2 7.3-1.5 9.4-2.4.2.3.3.6.3 1 0 .2 0 .4-.1.7-.1.7-.1 1.5-.1 2.3 0 .3.3.5.5.4.1 0 .3-.1.4-.2 3.9-3.1 7.5-4.2 9.3-4.2 3 0 5.3 1.4 7.1 4.4.1.1.2.2.4.2s.3-.1.4-.2c3.6-2.8 7.2-4.4 9.6-4.4 5.7 0 9.1 4.3 9.1 11.4v12.6c0 .3.4 1.3 1.1 1.4.8.4 2 .6 3.6.9h.1c.1.4-.1 2-.4 2.3-.4 0-.9 0-1.5-.1-1.2-.1-2.8-.1-4.7-.1-3.8 0-5.8.1-7.6.2-.1-.5-.2-2 0-2.3.8-.1 1.5-.3 2.3-.5 1.2-.4 1.6-.9 1.6-2.5 0-1.1.2-11.1-.1-13.5-.3-2.5-2.2-5.3-6.3-5.3-1.5 0-3.9.6-6.3 2.4-.1.2-.2.4-.2.6.3 1.3.3 2.8.3 5v11.3c0 1.3.8 1.7 1.5 1.9.3.1.6.1.9.2.5.1 1.1.3 1.9.4.1.6.1 1.2 0 1.7 0 .2-.1.4-.2.6-2.1-.1-4.3-.1-7.4-.1-.9 0-2.5 0-3.8.1-1.1 0-2.1.1-2.7.1-.1-.4-.2-.8-.2-1.2 0-.4 0-.8.2-1.1l.8-.1c.7-.1 1.4-.2 2-.4 1-.3 1.4-.9 1.5-2.2.2-3.1.4-11.9-.1-14.1-.7-3.5-2.8-5.3-6-5.3-1.9 0-4.3.9-6.3 2.4-.4.4-.6.9-.6 1.4v3.6c0 4.4 0 9.9.1 12.3.1.7.3 1.6 1.7 1.9.3.1.8.2 1.4.3.3.1.7.1 1.1.2.1.8.1 1.6-.2 2.3-.6 0-1.4 0-2.2-.1-1.3-.1-2.9-.1-4.8-.1-2.2 0-3.7.1-4.9.1-.9-.3-1.6-.3-2.4-.3m69.8-25.7c-1.2 0-2.3.3-3.3.9-2.4 1.5-3.6 4.4-3.6 8.7 0 8.1 4 13.7 9.8 13.7 1.6.1 3.1-.5 4.2-1.5 1.8-1.4 2.7-4.4 2.7-8.6 0-7.9-3.9-13.2-9.8-13.2m1.1 26.3c-10.4 0-14.2-7.7-14.2-14.8 0-5 2-8.9 6.1-11.6 2.8-1.8 6.1-2.7 9.4-2.8 8 0 13.5 5.7 13.5 13.9 0 5.6-2.2 10-6.4 12.7-2 1.3-5.5 2.6-8.4 2.6m105.3-26.3c-1.2 0-2.3.3-3.3.9-2.4 1.5-3.6 4.4-3.6 8.7 0 8.1 4 13.7 9.8 13.7 1.6.1 3.1-.5 4.2-1.5 1.8-1.4 2.7-4.4 2.7-8.6 0-7.9-4-13.2-9.8-13.2m1.1 26.3c-10.4 0-14.2-7.7-14.2-14.8 0-5 2-8.9 6.1-11.6 2.8-1.8 6.1-2.7 9.4-2.8 8 0 13.5 5.7 13.5 13.9 0 5.6-2.2 10-6.4 12.7-2 1.3-5.5 2.6-8.4 2.6m-36.3-26.6c-3.2 0-5.3 2.5-5.3 6.5 0 3.9 1.8 8.6 6.8 8.6.9 0 2.4-.4 3.2-1.2 1.2-1.1 1.9-3.3 1.9-5.7.1-5.1-2.4-8.2-6.6-8.2m-.4 27.2c-.9 0-1.8.2-2.6.6-2.5 1.6-3.7 3.3-3.7 5.1 0 1.8.7 3.2 2.2 4.4 1.8 1.5 4.2 2.3 7.4 2.3 6.2 0 9-3.4 9-6.7 0-2.3-1.2-3.9-3.6-4.8-1.9-.6-5-.9-8.7-.9m.4 15.9c-3.7 0-6.5-.8-8.8-2.6-2.2-1.7-3.3-4.3-3.3-6.1 0-1.1.5-2.2 1.2-3.1.7-.7 2.2-2.1 5.7-4.5.1 0 .2-.2.2-.3 0-.1-.1-.3-.2-.3-2.9-1.1-3.7-2.9-4-3.9v-.2c-.1-.4-.2-.7.4-1.1.4-.3 1.1-.7 1.7-1.1 1-.5 1.9-1.1 2.8-1.8.2-.2.2-.5 0-.6l-.1-.1c-4.3-1.4-6.4-4.6-6.4-9.4 0-3.1 1.5-5.9 4-7.7 1.7-1.4 6-3 8.8-3h.2c2.9.1 4.5.7 6.7 1.5 1.3.5 2.6.7 4 .6 2.4 0 3.4-.8 4.3-1.6.1.4.2.8.2 1.2.1 1-.2 2-.8 2.8-.5.7-1.6 1.2-2.7 1.2h-.3c-.5 0-1.1-.1-1.6-.3l-.3.1c-.1.1 0 .3 0 .4v.1c.2.9.3 1.7.4 2.6 0 5.1-2 7.3-4.2 8.9-2.1 1.6-4.6 2.5-7.2 2.8-.1 0-.3 0-.8.1-.3 0-.8.1-.8.1h-.1c-.5.1-1.7.7-1.7 1.8 0 .9.6 2 3.2 2.2l1.7.1c3.5.2 7.8.5 9.9 1.2 2.8 1 4.6 3.6 4.6 6.6 0 4.5-3.2 8.8-8.6 11.4-2.5 1.4-5.3 2-8.1 2m-16-19.5c.3.5.1 2.3-.3 2.8-1 0-3.4-.2-7.2-.2-3.1 0-5.1.2-7 .2-.3-.4-.4-2.3 0-2.8 1.3-.1 2.4-.3 2.8-.6.9-.3 1.1-.9 1.1-3.4 0-4.6.1-9.8-.2-12.4-.1-1.5-.8-2.9-1.9-3.8-1.2-1-2.7-1.5-4.2-1.4-2 0-4.3.8-5.7 2.1-.4.3-.8 1-.8 2.3 0 4.7 0 11.5.1 14.8.1 1.2.3 1.8 1.5 2.1.9.2 1.9.4 2.9.4.3.4.1 2.3-.3 2.8-1 0-3.1-.2-7.2-.2-2.9 0-6.5.2-7.2.2-.3-.4-.3-2.4 0-2.8.9-.1 1.7-.3 2.6-.5h-.1c1.1-.3 1.5-.8 1.6-2.3.2-3.9.2-10.9.1-15.5 0-.6.1-1.2-.6-1.7-1.1-.7-2.3-1.2-3.6-1.6-1.6-.5-1.2-1.9.3-2.2 2-.2 7.5-1.5 9.5-2.5.3.3.5.8.5 1.3-.1.9-.2 2.2-.2 2.9 0 .7.4.2.5.2 3-2.5 6.6-4.4 9.3-4.4 3.1 0 5.4 1.4 7.1 3.7 1.4 2.1 1.9 5 1.9 8.3 0 4.1 0 10.2.1 12.4.1.4.2.7.5 1 1.5.4 2.6.6 4.1.8m9.7-60c.5 1.7 1.1 3 1.9 4 .3.5.7.9 1.1 1.2-.5.9-1 1.9-1.2 3-.8 3.7-.7 10.1-.5 13.4l-.7-.2c0-2.7-.2-9.8-2-15 0-.1 0-.1.1-.2 0-.1.1-.2.1-.3 0-.1.1-.2.1-.3 0-.1.1-.2.1-.3 0-.1.1-.2.1-.3 0-.1.1-.3.1-.4 0-.1.1-.2.1-.3.2-.6.3-1.3.5-2.1v-.2c0-.2.1-.5.1-.7 0-.1 0-.2.1-.4 0-.2.1-.5.1-.7-.2 0-.2-.1-.1-.2zm1.4-12.8c.1-1.6.2-3.2.3-4.7v-.2c.1-1.5.2-3 .2-4.5v-.6c.1-1.4.1-2.8.2-4.2v-1.1c0-1.2.1-2.5.1-3.7v-.7c0-1.4.1-2.7.1-4.1v-5.3c0-3-.1-6-.2-9V86.2c-.1-15.3-.3-30.1-.8-39.2.2.4.5.7.7 1 .6 1.2 1.8 2.5 3.7 4.4 5.8 6 17.8 18.4 23.6 44 5.9 34.5-12.2 55.5-20.3 62.9l-.2.2c-1.3 1.2-2.6 2.3-4 3.3-1.3-1.2-3.2-4.8-3.5-15.5.1-.1.1-.2.1-.3zm-3-.1c-.7 8.4-1.5 13.7-2.2 16.5-6.2-4.9-29.1-25.2-27.6-57.2 1.7-36 21.9-54.4 28-59.2l.2-.2c.5-.6 1-1.1 1.4-1.6.7 11.7.9 37 .9 51.9 0 6 0 10.3.1 11.9 0 1.6.1 3.1.1 4.7.2 11.1-.1 22.2-.9 33.2z"/>
</svg>
