<svg xmlns="http://www.w3.org/2000/svg" viewBox="0 0 300 300">
  <path d="M208 121.8c-1.9-.6-3.8-1.3-5.8-1.8.3-1.3.6-2.7.9-4 4.4-21.3 1.5-38.4-8.3-44.1-9.4-5.4-24.7.2-40.3 13.7-1.5 1.3-3 2.7-4.5 4.1-1-1-2-1.9-3-2.8-16.3-14.4-32.5-20.5-42.3-14.9-9.4 5.4-12.2 21.6-8.2 41.7.4 1.9.8 3.9 1.3 6-2.3.7-4.5 1.4-6.7 2.1-18.9 6.8-31.1 17.2-31.1 28 0 11.2 13.1 22.3 32.9 29.1 1.6.5 3.2 1 4.9 1.5-.5 2.2-1 4.3-1.4 6.4-3.8 19.8-.8 35.6 8.5 41 9.7 5.6 25.9-.2 41.7-14 1.2-1.1 2.5-2.2 3.8-3.5 1.6 1.6 3.3 3 4.9 4.4 15.3 13.2 30.4 18.5 39.8 13.1 9.7-5.6 12.8-22.5 8.7-43.1-.3-1.6-.7-3.2-1.1-4.8 1.1-.3 2.3-.7 3.3-1 20.6-6.8 34.1-17.9 34.1-29.2-.1-10.7-12.7-21.2-32.1-27.9zm-4.5 49.9l-3 .9c-2.3-7.2-5.4-14.9-9.1-22.8 3.6-7.7 6.5-15.3 8.8-22.5 1.8.5 3.6 1.1 5.4 1.7 16.7 5.7 26.8 14.2 26.8 20.7-.1 7.1-11.1 16.1-28.9 22zm-7.4 14.7c1.8 9.1 2.1 17.3.9 23.8-1.1 5.8-3.2 9.6-5.9 11.2-5.7 3.3-17.8-1-30.9-12.2-1.5-1.3-3-2.7-4.5-4.1 5.1-5.5 10.1-12 15.1-19.2 8.7-.8 16.9-2 24.4-3.8.3 1.4.6 2.9.9 4.3zm-74.7 34.4c-5.5 2-10 2-12.6.5-5.7-3.3-8-15.9-4.8-32.9.4-1.9.8-3.9 1.3-6 7.4 1.6 15.5 2.8 24.3 3.5 5 7 10.2 13.4 15.5 19.1-1.1 1.1-2.3 2.2-3.4 3.2-7.2 6-14.2 10.4-20.3 12.6zm-26-49.1c-8.8-3-16-6.9-21-11.2-4.5-3.8-6.7-7.6-6.7-10.7 0-6.6 9.8-14.9 26.1-20.6 2-.7 4-1.3 6.2-1.9 2.3 7.3 5.2 15 8.8 22.7-3.6 7.9-6.6 15.6-8.9 23.1-1.6-.4-3.1-.9-4.5-1.4zm8.7-59.2c-3.4-17.3-1.1-30.3 4.5-33.6 6-3.5 19.3 1.5 33.4 13.9.9.8 1.8 1.6 2.7 2.5-5.2 5.6-10.4 12-15.3 19-8.5.8-16.6 2-24 3.7-.5-1.9-.9-3.7-1.3-5.5zm77.6 19.1c-1.8-3.1-3.6-6.1-5.5-9 5.7.7 11.2 1.7 16.4 2.9-1.6 5-3.5 10.2-5.8 15.5-1.5-3.1-3.2-6.2-5.1-9.4zm-31.6-30.8c3.5 3.8 7.1 8.1 10.6 12.8-3.5-.2-7.1-.3-10.7-.3-3.6 0-7.1.1-10.6.2 3.5-4.5 7.1-8.8 10.7-12.7zm-31.9 30.9c-1.8 3.1-3.5 6.2-5.1 9.3-2.2-5.3-4.2-10.5-5.7-15.6 5.1-1.1 10.6-2.1 16.3-2.8-1.9 3-3.7 6-5.5 9.1zm5.7 45.9c-5.9-.7-11.5-1.5-16.6-2.7 1.6-5.1 3.5-10.5 5.8-15.9 1.6 3.1 3.3 6.2 5.1 9.3 1.9 3.2 3.8 6.3 5.7 9.3zm26.4 21.9c-3.6-3.9-7.3-8.3-10.8-13 3.4.1 7 .2 10.5.2 3.7 0 7.3-.1 10.9-.2-3.5 4.7-7.1 9.1-10.6 13zm36.7-40.7c2.4 5.5 4.4 10.8 6 15.8-5.2 1.2-10.9 2.1-16.8 2.9 1.9-3 3.7-6 5.5-9.2 1.9-3.1 3.7-6.3 5.3-9.5zm-11.9 5.7c-2.8 4.9-5.7 9.5-8.6 13.9-5.3.4-10.9.6-16.5.6s-11.1-.2-16.3-.5c-3.1-4.5-6-9.1-8.8-14-2.8-4.8-5.4-9.7-7.7-14.5 2.3-4.8 4.9-9.7 7.7-14.5 2.8-4.8 5.7-9.5 8.7-13.9 5.4-.4 10.8-.6 16.4-.6 5.6 0 11.1.2 16.4.6 3 4.4 5.9 9 8.7 13.8 2.8 4.9 5.4 9.7 7.8 14.4-2.4 4.9-5 9.8-7.8 14.7zM191 78.6c6 3.5 8.4 17.5 4.6 35.9-.2 1.2-.5 2.4-.8 3.6-7.5-1.7-15.6-3-24.1-3.8-4.9-7-10.1-13.4-15.2-19 1.4-1.3 2.8-2.6 4.1-3.8 13.3-11.6 25.7-16.1 31.4-12.9zm-41 55.2c8.9 0 16.1 7.2 16.1 16.1 0 8.9-7.2 16.1-16.1 16.1s-16.1-7.2-16.1-16.1c0-8.9 7.2-16.1 16.1-16.1"/>
</svg>
