<svg xmlns="http://www.w3.org/2000/svg" viewBox="0 0 300 300">
  <path d="M88.9 215.3h-9c-.3-15.2-1.2-29.6-2.6-43h-.1l-13.7 43h-6.9l-13.7-43h-.1c-1 12.9-1.7 27.2-1.9 43h-8.2c.5-19.2 1.9-37.2 4-53.9h11.2l13 39.6h.1l13-39.6h10.7c2.4 19.6 3.8 37.6 4.2 53.9m39.2-39.8h-8.6c-1.5 12.3-4.3 23.6-8.2 34 .3-2.1-.4-5.7-2-11l-7.1-23h-8.9l9.9 30.8c1.5 4.6 2.2 7.7 2.2 9.2 0 2.2-1 4.2-2.9 5.9-1.6 1.4-3.7 2.2-6.3 2.2-1.4 0-2.7-.1-3.8-.2v4.8c2.2.9 4 1.3 5.5 1.3 5.6 0 10.7-3.5 15.4-10.5 6.2-9 11.1-23.5 14.8-43.5zm120.1 39.8v-6.6h-17v-47.3h-8.6v53.9h25.6zm-64.4-10.8c2 3.3 5.2 4.9 9.5 4.9 8.3 0 12.4-6.8 12.4-20.5 0-7.7-1.1-13.3-3.3-16.8-2-3.2-5.2-4.9-9.5-4.9-8.3 0-12.4 6.8-12.4 20.4 0 7.8 1.1 13.4 3.3 16.9m32.1 12.1l-3.5 6.1-12.9-7.5c-2.1.6-4.5.9-7.1.9-6.9 0-12-2-15.4-6-3.7-4.4-5.6-11.4-5.6-20.9 0-9.6 2.1-16.9 6.3-21.9 3.8-4.5 9.2-6.8 16.1-6.8 14 0 21 8.9 21 26.8 0 9.7-2.1 17-6.3 22-.8.9-1.6 1.7-2.5 2.4l9.9 4.9zm-48.3-16.2c0-5.2-2.1-8.4-6.3-11.4 0 0-7.7-4.4-11.6-6.5-4.2-2.3-6.5-5.1-6.5-8.3 0-2.1.9-3.8 2.4-5.1 1.5-1.3 3.6-2 6.4-2 3.4 0 6.9.7 10.4 2.2l2.1-4.6c-4.1-2.7-8.7-4-13.7-4-4.8 0-8.8 1.3-11.9 4-3.1 2.7-4.6 6.2-4.6 10.6 0 5.3 2.1 8.5 6.2 11.5 0 0 7.6 4.3 11.3 6.4 4.1 2.3 6.3 5 6.3 8.2 0 2.5-1.1 4.6-2.9 6-1.8 1.4-4.4 2.2-7.6 2.2-3.5 0-7.3-1.1-11.6-3.2l-2.3 4.6c5 3.3 10.1 5 15.3 5 5.6 0 10.1-1.5 13.5-4.4 3.4-2.9 5.1-6.7 5.1-11.2m91.5-57.1c-5.2-.1-9.3.4-12.6 1.8-1 .4-2.5.4-2.7 1.6.5.5.6 1.4 1 2.1.8 1.3 2.1 3.1 3.4 4 1.4 1 2.7 2.1 4.2 3 2.5 1.6 5.4 2.5 7.9 4 1.4.9 2.9 2.1 4.3 3.1.7.5 1.2 1.4 2.1 1.7v-.2c-.5-.6-.6-1.4-1-2.1-.7-.6-1.3-1.2-2-1.9-1.9-2.5-4.2-4.8-6.8-6.6-2.1-1.4-6.7-3.4-7.5-5.8l-.1-.1c1.4-.1 3.1-.7 4.5-1 2.2-.6 4.2-.5 6.5-1 1-.3 2.1-.6 3.1-.9v-.6c-1.2-1.2-2-2.7-3.3-3.8-3.3-2.9-7-5.7-10.8-8-2-1.3-4.6-2.1-6.8-3.3-.8-.4-2.1-.6-2.5-1.2-1.2-1.4-1.8-3.3-2.7-5-1.9-3.6-3.7-7.6-5.3-11.3-1.2-2.5-1.9-5.1-3.3-7.4-6.7-11.1-14-17.8-25.2-24.4-2.4-1.4-5.3-2-8.3-2.7-1.6-.1-3.3-.2-4.9-.3-1-.5-2.1-1.7-3-2.3-3.7-2.3-13.3-7.4-16-.7-1.8 4.2 2.6 8.4 4.1 10.6 1.1 1.5 2.5 3.2 3.3 4.9.5 1.1.6 2.3 1 3.5 1 2.9 2 6.1 3.4 8.7.7 1.4 1.5 2.8 2.4 4 .5.7 1.4 1 1.6 2.2-.9 1.3-1 3.3-1.5 4.9-2.3 7.4-1.4 16.5 1.9 21.9 1 1.6 3.5 5.2 6.8 3.8 2.9-1.2 2.3-4.9 3.1-8.1.2-.8.1-1.3.5-1.8v.1l2.7 5.4c2 3.2 5.5 6.5 8.5 8.7 1.6 1.2 2.8 3.2 4.8 3.9v-.2h-.1c-.4-.6-1-.8-1.5-1.3-1.2-1.2-2.5-2.6-3.4-3.9-2.7-3.6-5.2-7.7-7.3-11.9-1-2-2-4.2-2.8-6.3-.4-.8-.4-2-1-2.3-1 1.4-2.4 2.7-3.1 4.4-1.2 2.8-1.4 6.3-1.8 9.8-.3.1-.1 0-.3.1-2.1-.5-2.8-2.7-3.6-4.5-2-4.6-2.3-12.1-.6-17.4.5-1.4 2.4-5.7 1.6-7-.4-1.2-1.7-2-2.4-2.9-.8-1.2-1.8-2.8-2.3-4.2-1.6-3.6-2.4-7.7-4-11.3-.8-1.7-2.2-3.5-3.3-5-1.2-1.8-2.6-3-3.6-5.1-.3-.7-.8-1.9-.3-2.7.1-.5.4-.7.9-.9.8-.7 3.3.2 4.1.6 2.4 1 4.4 1.9 6.5 3.3.9.7 1.9 1.9 3.1 2.2h1.4c2.1.5 4.4.1 6.4.7 3.5 1.1 6.6 2.7 9.4 4.5 8.5 5.4 15.6 13.1 20.3 22.3.8 1.5 1.1 2.9 1.8 4.4 1.4 3.2 3.1 6.5 4.4 9.6 1.4 3.1 2.7 6.2 4.6 8.7 1 1.4 4.9 2.1 6.6 2.8 1.3.6 3.3 1.1 4.5 1.8 2.2 1.4 4.4 2.9 6.5 4.4 1 1 4.3 2.6 4.5 3.9m-66.5-56.6c-1.1 0-1.9.1-2.7.3v.1h.1c.5 1 1.4 1.8 2.1 2.7.5 1 1 2.1 1.5 3.1l.1-.1c.9-.6 1.4-1.7 1.4-3.3-.4-.5-.5-.9-.8-1.4-.3-.6-1.2-.9-1.7-1.4m61.8 128.6v-5.5h-1.9v-1.1h5.2v1.1h-1.9v5.5h-1.4zm10.9 0v-5l-1.9 5h-1l-1.9-5h-.1v5h-1.3v-6.6h2l1.8 4.5 1.7-4.5h2v6.6h-1.3z"/>
</svg>
