<svg xmlns="http://www.w3.org/2000/svg" viewBox="0 0 300 300">
  <path d="M211.3 149.4l-41.6-25 53.8-.8c-2.5 7.5-6.4 16.1-12.2 25.8zM72.1 198.1c0 .8-.2 7.7 3 14.7l3.4-29.7-6.1 13.8-.3 1.2zm6.8-28c-1-1-1.8-2.1-2.5-3.3l-2.2 15.8 5.3-11.9-.6-.6zm28.3-2.1c12.1-4.6 25.4-13.7 37.3-25.6 11.9-11.9 21-25.1 25.6-37.3 4.3-11.4 4.1-20.7-.7-25.5-2.5-2.5-6.3-3.8-10.9-3.8-4.2 0-9.2 1-14.6 3.1-12.1 4.6-25.4 13.7-37.3 25.6-15 15-25 31.9-27.9 44.9l-.8 5.7c-.2 5.1.9 9.3 3.7 12.1 4.9 4.9 14.2 5.1 25.6.8zm66.6-61.4c-1.7 4.5-4 9.2-6.8 13.9l54.1-.8-43.9-31c.3 5-.8 11.1-3.4 17.9zm52.7-18.2c-.8-2.6-1.6-4.1-1.8-4.6-1-1.6-2.1-3.1-3.4-4.5-6.1-6.2-13.9-7-15.7-7.1l-24.2 10.6 45.1 5.6zm-64.3 39.3c-4.3 6-9.3 11.9-14.9 17.6-7.4 7.4-15.4 13.8-23.3 18.7l56.8 21.1-18.6-57.4zm36.3 40.8c4.1-5.5 7.7-10.7 10.7-15.7l-43-25.8 18.7 57.6c4.6-4.9 9.2-10.2 13.6-16.1zm-50 43.9c10.3-5.5 21.2-13.1 31.9-23.3l-56.5-21 24.6 44.3zm26.7-131.3l18.3-8-23.7 1.8c.8.6 1.6 1.2 2.3 1.9 1.4 1.2 2.4 2.7 3.1 4.3zm26.5 89.8c-4.8 6.4-9.7 12.2-14.7 17.3l32.5 27.9-8.6-58.4c-2.8 4.2-5.8 8.6-9.2 13.2zm-20.2-84.1l43.8 30.9c3.1-11.2 3-19.6 2.1-25.2l-45.9-5.7zM78.4 218.4c.5.6 1 1.2 1.6 1.8 4.3 4.4 10.3 7 17.8 7.6.3 0 1 0 2.2-.1l-17.1-48.4-4.5 39.1zM221.6 203l5.8-78.2c-2.8 8.1-7 17.3-13.3 27.7l7.5 50.5zm-68.3 11.3l63 4.4-32.2-27.7c-10.4 10.2-21 17.7-30.8 23.3zm-44.7-42.6c-5.9 2.3-11.4 3.4-16.1 3.4-2.7 0-5.2-.4-7.4-1.1l17.3 49.1 13.8-54.7c-2.4 1.2-5 2.4-7.6 3.3zm11.5-2L105.6 227c8.5-1.3 22.9-4.5 39.3-12.8l-24.8-44.5zm27 48c-5.1 2.6-9.8 4.6-14.1 6.3-2.2.8-4.2 1.5-6.2 2.2l67.5-5-47.2-3.3v-.2z"/>
</svg>
