<svg xmlns="http://www.w3.org/2000/svg" viewBox="0 0 300 300">
  <path d="M198 66.7h-96c-19.5 0-35.4 15.9-35.4 35.4v95.7c0 19.5 15.9 35.4 35.4 35.4h96.4c19.5 0 35.4-15.9 35.1-35.1v-96c-.1-19.4-16-35.4-35.5-35.4zm8.9 136.1c-8.1-15.9-24.4-9.9-30.5-6-14.5 7.8-34.4 8.5-54.2 0-16.7-7.1-30.5-19.5-39.3-33.7 4.6 3.5 9.2 6.4 14.5 8.9 20.9 9.9 42.2 9.2 57 0-21.3-16.3-39-37.6-52.4-54.9-2.8-3.2-5-6.4-7.1-9.6 15.9 14.9 41.8 33.3 51 38.6-19.8-20.6-36.8-46.1-36.1-45.4 30.8 30.8 59.2 48.5 59.2 48.5 1.1.7 1.8 1.1 2.5 1.4.4-1.4 1.1-2.8 1.4-4.6 5-18.1-.7-38.6-13.1-55.6 28.7 17 45.7 49.6 38.6 77.2 0 .4-.4 1.1-.4 1.8 14.2 17.8 10.3 36.6 8.9 33.4z"/>
</svg>
