<svg xmlns="http://www.w3.org/2000/svg" viewBox="0 0 300 300">
  <path d="M69 69h162v162H69V69zm42.6 135.4c3.6 7.6 10.7 13.9 22.8 13.9 13.5 0 22.7-7.2 22.7-22.9v-52h-15.2v51.8c0 7.6-3.2 9.6-8.2 9.6-5.2 0-7.4-3.6-9.8-7.8l-12.3 7.4m53.8-1.7c4.5 8.8 13.6 15.6 27.7 15.6 14.5 0 25.2-7.5 25.2-21.2 0-12.7-7.3-18.4-20.2-23.9l-3.8-1.6c-6.5-2.8-9.4-4.7-9.4-9.2 0-3.7 2.8-6.5 7.3-6.5 4.3 0 7.2 1.8 9.8 6.5l11.9-7.6c-5-8.8-12-12.2-21.6-12.2-13.6 0-22.3 8.7-22.3 20.1 0 12.4 7.3 18.3 18.3 22.9l3.8 1.6c7 3 11.1 4.9 11.1 10.1 0 4.3-4 7.5-10.3 7.5-7.5 0-11.7-3.9-15-9.2l-12.5 7.1"/>
</svg>
