<svg xmlns="http://www.w3.org/2000/svg" viewBox="0 0 150 150">
  <path fill="#f6494d" d="M0 0h150v150H0z"/>
  <path d="M62.91 40.59L59 36.65l-12.12 12.1L59 60.84l3.94-3.94-8.16-8.16zM91 36.65l-3.94 3.94 8.16 8.16-8.13 8.15L91 60.84l12.09-12.09zM72 65.59l-5.3-1.88 11.4-32.06 5.3 1.88z" fill="#f6f8fa"/>
  <path d="M52.3 115.93h5.9c3.28 0 5 1.34 5 3.91v.08a3.08 3.08 0 0 1-2.44 3.21 3.3 3.3 0 0 1 3 3.53v.08c0 2.75-1.81 4.2-5.27 4.2H52.3zm5.35 6.17c1.64 0 2.29-.59 2.29-1.93v-.08c0-1.26-.71-1.83-2.31-1.83h-2v3.84zm.29 6.49c1.68 0 2.44-.76 2.44-2.12v-.08c0-1.39-.76-2.1-2.6-2.1h-2.16v4.3zm7.29-.69c0-2.56 2.35-3.53 5.71-3.53h1.24v-.44c0-1.3-.4-2-1.78-2a1.66 1.66 0 0 0-1.87 1.55h-2.88c.19-2.6 2.25-3.76 4.93-3.76s4.6 1.09 4.6 4.07v7.16h-3v-1.32a3.73 3.73 0 0 1-3.32 1.55c-1.95 0-3.63-.97-3.63-3.28zm6.95-.8v-.92H71c-1.76 0-2.79.38-2.79 1.55 0 .8.48 1.32 1.6 1.32 1.34 0 2.37-.73 2.37-1.95zm4.82.4h2.83c.13 1 .61 1.55 1.93 1.55s1.72-.44 1.72-1.2-.65-1.07-2.23-1.3c-2.92-.44-4.05-1.28-4.05-3.42s2.1-3.42 4.35-3.42c2.44 0 4.26.88 4.54 3.4h-2.78a1.49 1.49 0 0 0-1.72-1.32c-1 0-1.55.46-1.55 1.13s.52 1 2.12 1.2c2.75.4 4.26 1.09 4.26 3.44s-1.72 3.61-4.62 3.61-4.69-1.3-4.8-3.67zm10.66-1.91v-.17a5.45 5.45 0 0 1 5.65-5.71c2.83 0 5.35 1.66 5.35 5.58v.84h-7.91c.08 1.83 1.07 2.88 2.73 2.88 1.41 0 2.1-.61 2.29-1.53h2.88c-.36 2.37-2.25 3.7-5.25 3.7-3.33 0-5.74-2.08-5.74-5.59zm8-1.32c-.1-1.66-.94-2.46-2.39-2.46a2.52 2.52 0 0 0-2.52 2.46z" fill="#fff"/>
</svg>
