<svg xmlns="http://www.w3.org/2000/svg" viewBox="0 0 928 235"><title>Intro</title><rect width="928" height="235" rx="5" ry="5" style="fill:#f6f8fa"/><rect x="642" y="110" width="177" height="30" rx="3" ry="3" style="fill:#f6f8fa"/><rect x="642" y="158" width="153" height="30" rx="3" ry="3" style="fill:#f6f8fa"/><path d="M649.59,35V25.58h7.09v1.77H652v1.77h4.14V30.9H652v2.36h4.73V35Z" style="fill:#1b1b1b"/><path d="M665.53,35l-1.58-2.94L662.41,35h-2.26l2.77-4.87-2.47-4.59h2.41l1.37,2.61,1.37-2.61h2.26l-2.6,4.57L667.83,35Z" style="fill:#1b1b1b"/><path d="M676.69,35l-.48-2.13h-2.68L673,35h-2.13l2.58-9.45h2.9L678.91,35Zm-.89-3.9-.86-3.85-1,3.85Z" style="fill:#1b1b1b"/><path d="M685,32.08,683.9,29l.26,6h-2.07V25.58h2.19L685.79,30l1.5-4.38h2.13V35h-2.07l.25-6-1.09,3Z" style="fill:#1b1b1b"/><path d="M693.08,35V25.58h3.69a4.23,4.23,0,0,1,2.49.65,2.35,2.35,0,0,1,.92,2.06V29.6a2.2,2.2,0,0,1-.9,2,4.37,4.37,0,0,1-2.49.61h-1.34V35Zm2.36-4.61h1.18a1.58,1.58,0,0,0,.89-.2.94.94,0,0,0,.3-.83v-1a1,1,0,0,0-.3-.86,1.45,1.45,0,0,0-.89-.22h-1.18Z" style="fill:#1b1b1b"/><path d="M704.54,35V25.58h2.36v7.68H711V35Z" style="fill:#1b1b1b"/><path d="M714.83,35V25.58h7.09v1.77h-4.73v1.77h4.14V30.9h-4.14v2.36h4.73V35Z" style="fill:#1b1b1b"/><path d="M729.14,35.16a6.56,6.56,0,0,1-2-.28,7.76,7.76,0,0,1-1.55-.68l.53-1.76a9.16,9.16,0,0,0,1.42.68,4.68,4.68,0,0,0,1.64.27,1.55,1.55,0,0,0,1-.26.87.87,0,0,0,.31-.7.76.76,0,0,0-.39-.74,6.17,6.17,0,0,0-1.35-.41,4.82,4.82,0,0,1-2.28-1,2.46,2.46,0,0,1-.66-1.84,2.86,2.86,0,0,1,.85-2.1,3.54,3.54,0,0,1,2.61-.86,5.23,5.23,0,0,1,1.72.3,8.08,8.08,0,0,1,1.38.6L732,28a10.52,10.52,0,0,0-1.34-.57,4.14,4.14,0,0,0-1.33-.21,1.32,1.32,0,0,0-.85.22.81.81,0,0,0-.27.66.84.84,0,0,0,.33.7,3.86,3.86,0,0,0,1.42.48,4.52,4.52,0,0,1,2.27,1,2.66,2.66,0,0,1,.66,2,2.51,2.51,0,0,1-1,2.12A4.4,4.4,0,0,1,729.14,35.16Z" style="fill:#1b1b1b"/><path d="M835.93,156.16a2.53,2.53,0,0,1-1.62-.52,1.83,1.83,0,0,1-.66-1.52,1.8,1.8,0,0,1,.66-1.5,2.63,2.63,0,0,1,1.69-.53h2v-.91a.93.93,0,0,0-.32-.78,1.54,1.54,0,0,0-1-.25,1.73,1.73,0,0,0-1,.22,1.47,1.47,0,0,0-.48.89l-1.48-.3a2.56,2.56,0,0,1,.93-1.64,3.46,3.46,0,0,1,2-.5,3.71,3.71,0,0,1,2.17.56,2,2,0,0,1,.79,1.73V154q0,.54.32.67a1.86,1.86,0,0,0,.92,0V156a2.68,2.68,0,0,1-1.48-.05,1.26,1.26,0,0,1-.77-1.06h-.3a3,3,0,0,1-1,.87A3,3,0,0,1,835.93,156.16Zm.39-1.22a2.6,2.6,0,0,0,.92-.16,2.26,2.26,0,0,0,.78-.5v-1.15h-1.77a1.13,1.13,0,0,0-.69.19,1.11,1.11,0,0,0,0,1.39A1.09,1.09,0,0,0,836.32,154.94Z" style="fill:#6d6d6d"/><path d="M846.65,156.16a3,3,0,0,1-2.05-.63,2.3,2.3,0,0,1-.73-1.84v-3.38H842v-1.36h1.83v-2.36h1.77v2.36h2.84v1.36h-2.84v3.16a1.33,1.33,0,0,0,.32,1,1.23,1.23,0,0,0,.9.31,5.31,5.31,0,0,0,.74-.05,3.81,3.81,0,0,0,.75-.18l.24,1.35a4.52,4.52,0,0,1-.82.2A7,7,0,0,1,846.65,156.16Z" style="fill:#6d6d6d"/><path d="M854.92,156.16a3,3,0,0,1-2.05-.63,2.3,2.3,0,0,1-.73-1.84v-3.38h-1.83v-1.36h1.83v-2.36h1.77v2.36h2.84v1.36h-2.84v3.16a1.33,1.33,0,0,0,.32,1,1.23,1.23,0,0,0,.9.31,5.31,5.31,0,0,0,.74-.05,3.81,3.81,0,0,0,.75-.18l.24,1.35a4.52,4.52,0,0,1-.82.2A7,7,0,0,1,854.92,156.16Z" style="fill:#6d6d6d"/><path d="M859.18,156v-7.09h1.77v1.24h.35a1.93,1.93,0,0,1,.8-1,2.44,2.44,0,0,1,1.28-.32,1.78,1.78,0,0,1,1.35.53,2.06,2.06,0,0,1,.5,1.48V152h-1.63v-.65a1.24,1.24,0,0,0-.24-.83,1,1,0,0,0-.79-.28,1.82,1.82,0,0,0-.89.23,2,2,0,0,0-.74.75V156Z" style="fill:#6d6d6d"/><path d="M867.09,156v-1.36h2.25v-4.37h-2.25v-1.36h4v5.73h2.25V156Zm3.2-8.27a2,2,0,0,1-.92-.18A.63.63,0,0,1,869,147v-.13a.65.65,0,0,1,.35-.63,2.38,2.38,0,0,1,1.83,0,.65.65,0,0,1,.35.63V147a.63.63,0,0,1-.35.61A2,2,0,0,1,870.3,147.76Z" style="fill:#6d6d6d"/><path d="M878.42,156.13a6,6,0,0,1-1.59-.22,6.4,6.4,0,0,1-1.52-.64v-8.69h1.77v3.6h.35a2.23,2.23,0,0,1,2.1-1.36,2,2,0,0,1,1.58.67,2.77,2.77,0,0,1,.57,1.86v2.09a2.43,2.43,0,0,1-.84,2A3.73,3.73,0,0,1,878.42,156.13Zm.06-1.36a1.57,1.57,0,0,0,1.08-.32,1.32,1.32,0,0,0,.36-1v-1.83a1.46,1.46,0,0,0-.29-1,1.06,1.06,0,0,0-.83-.32,1.79,1.79,0,0,0-.87.23,3.4,3.4,0,0,0-.84.69v3.22a2.72,2.72,0,0,0,.67.28A2.85,2.85,0,0,0,878.48,154.77Z" style="fill:#6d6d6d"/><path d="M885.72,156.16a2.08,2.08,0,0,1-1.53-.61,2.26,2.26,0,0,1-.61-1.67v-4.93h1.77v4.48a1.47,1.47,0,0,0,.27,1,1,1,0,0,0,.79.32,1.63,1.63,0,0,0,.9-.29,3.9,3.9,0,0,0,.88-.83v-4.63H890V156h-1.77V154.8h-.35a2,2,0,0,1-.89,1A2.46,2.46,0,0,1,885.72,156.16Z" style="fill:#6d6d6d"/><path d="M896.29,156.16a3,3,0,0,1-2.05-.63,2.3,2.3,0,0,1-.73-1.84v-3.38h-1.83v-1.36h1.83v-2.36h1.77v2.36h2.84v1.36h-2.84v3.16a1.33,1.33,0,0,0,.32,1,1.23,1.23,0,0,0,.9.31,5.31,5.31,0,0,0,.74-.05,3.81,3.81,0,0,0,.75-.18l.24,1.35a4.52,4.52,0,0,1-.82.2A7,7,0,0,1,896.29,156.16Z" style="fill:#6d6d6d"/><path d="M906.6,154.42a2.57,2.57,0,0,1-1.09,1.35,4.6,4.6,0,0,1-2.16.39,3.75,3.75,0,0,1-2.33-.68,2.39,2.39,0,0,1-.89-2v-1.89a2.46,2.46,0,0,1,.87-2,3.6,3.6,0,0,1,2.33-.7,3.53,3.53,0,0,1,2.33.71,2.54,2.54,0,0,1,.85,2.07v1.24H901.9v.69a1.39,1.39,0,0,0,.35,1,1.57,1.57,0,0,0,1.12.34,2.3,2.3,0,0,0,1.06-.2,1.5,1.5,0,0,0,.63-.72Zm-4.7-3v.37h2.84v-.26a1.66,1.66,0,0,0-.33-1.16,1.45,1.45,0,0,0-1.09-.35,1.5,1.5,0,0,0-1.09.33A1.48,1.48,0,0,0,901.9,151.44Z" style="fill:#6d6d6d"/><path d="M578.44,151v5h-1.5v-7.09h1.49v.95h.29a2.08,2.08,0,0,1,.56-.77,1.13,1.13,0,0,1,.73-.27,1.08,1.08,0,0,1,.73.27,1.42,1.42,0,0,1,.42.77h.3a1.82,1.82,0,0,1,.58-.77,1.35,1.35,0,0,1,.83-.27,1,1,0,0,1,.87.46,2.09,2.09,0,0,1,.33,1.23V156h-1.5v-5.19a1.37,1.37,0,0,0-.11-.61.33.33,0,0,0-.31-.21.67.67,0,0,0-.44.25,2.77,2.77,0,0,0-.47.7v5h-1.48v-5.19a1.3,1.3,0,0,0-.11-.61.34.34,0,0,0-.3-.21.66.66,0,0,0-.43.24A2.75,2.75,0,0,0,578.44,151Z" style="fill:#6d6d6d"/><path d="M588.77,156.16a3.56,3.56,0,0,1-2.35-.7,2.44,2.44,0,0,1-.84-2v-1.91a2.49,2.49,0,0,1,.84-2,3.54,3.54,0,0,1,2.36-.71,3.46,3.46,0,0,1,2.35.73,2.55,2.55,0,0,1,.83,2v1.91a2.41,2.41,0,0,1-.84,2A3.58,3.58,0,0,1,588.77,156.16Zm0-1.36a1.49,1.49,0,0,0,1.08-.34,1.41,1.41,0,0,0,.34-1v-1.81a1.53,1.53,0,0,0-2.49-1.08,1.45,1.45,0,0,0-.34,1.06v1.78a1.23,1.23,0,0,0,1.42,1.42Z" style="fill:#6d6d6d"/><path d="M598.11,154.8a2.34,2.34,0,0,1-.85,1,2.24,2.24,0,0,1-1.26.36,1.91,1.91,0,0,1-1.59-.71,2.84,2.84,0,0,1-.56-1.82v-2.09a2.51,2.51,0,0,1,.79-2,3.18,3.18,0,0,1,2.2-.71,4.59,4.59,0,0,1,.84.08,4.43,4.43,0,0,1,.78.22v-2.56h1.77V156h-1.77V154.8Zm-1.36-.09a1.8,1.8,0,0,0,.87-.22,3.34,3.34,0,0,0,.84-.69v-3.23a2.3,2.3,0,0,0-.65-.28,2.83,2.83,0,0,0-.73-.09,1.55,1.55,0,0,0-1.09.34,1.34,1.34,0,0,0-.36,1v1.84a1.44,1.44,0,0,0,.29,1A1.07,1.07,0,0,0,596.75,154.7Z" style="fill:#6d6d6d"/><path d="M604.27,156.16a2.07,2.07,0,0,1-1.53-.61,2.26,2.26,0,0,1-.61-1.67v-4.93h1.77v4.48a1.46,1.46,0,0,0,.27,1,1,1,0,0,0,.79.32,1.64,1.64,0,0,0,.9-.29,3.9,3.9,0,0,0,.88-.83v-4.63h1.77V156h-1.77V154.8h-.35a2,2,0,0,1-.89,1A2.46,2.46,0,0,1,604.27,156.16Z" style="fill:#6d6d6d"/><path d="M610.52,156v-1.36h2.3v-6.74h-2.3v-1.36h4.08v8.1h2.25V156Z" style="fill:#6d6d6d"/><path d="M625.15,154.42a2.57,2.57,0,0,1-1.09,1.35,4.6,4.6,0,0,1-2.16.39,3.75,3.75,0,0,1-2.33-.68,2.39,2.39,0,0,1-.89-2v-1.89a2.46,2.46,0,0,1,.87-2,3.6,3.6,0,0,1,2.33-.7,3.53,3.53,0,0,1,2.33.71,2.54,2.54,0,0,1,.85,2.07v1.24h-4.61v.69a1.39,1.39,0,0,0,.35,1,1.57,1.57,0,0,0,1.12.34,2.31,2.31,0,0,0,1.06-.2,1.5,1.5,0,0,0,.63-.72Zm-4.7-3v.37h2.84v-.26a1.66,1.66,0,0,0-.33-1.16,1.45,1.45,0,0,0-1.09-.35,1.49,1.49,0,0,0-1.09.33A1.48,1.48,0,0,0,620.45,151.44Z" style="fill:#6d6d6d"/><path d="M264.09,35.16a6.57,6.57,0,0,1-2-.28,7.76,7.76,0,0,1-1.55-.68l.53-1.76a9.15,9.15,0,0,0,1.42.68,4.68,4.68,0,0,0,1.64.27,1.55,1.55,0,0,0,1-.26.87.87,0,0,0,.31-.7.76.76,0,0,0-.39-.74,6.18,6.18,0,0,0-1.35-.41,4.81,4.81,0,0,1-2.27-1,2.46,2.46,0,0,1-.66-1.84,2.86,2.86,0,0,1,.85-2.1,3.54,3.54,0,0,1,2.61-.86,5.23,5.23,0,0,1,1.72.3,8.09,8.09,0,0,1,1.38.6L266.92,28a10.5,10.5,0,0,0-1.34-.57,4.13,4.13,0,0,0-1.33-.21,1.33,1.33,0,0,0-.85.22.81.81,0,0,0-.27.66.84.84,0,0,0,.33.7,3.86,3.86,0,0,0,1.42.48,4.52,4.52,0,0,1,2.27,1,2.66,2.66,0,0,1,.66,2,2.51,2.51,0,0,1-1,2.12A4.4,4.4,0,0,1,264.09,35.16Z" style="fill:#1b1b1b"/><path d="M273.89,35V27.36h-2.6V25.58h7.56v1.77h-2.6V35Z" style="fill:#1b1b1b"/><path d="M287.13,35h-2.36V31.49L282,25.58h2.35l1.61,3.9,1.63-3.9h2.34l-2.78,5.91Z" style="fill:#1b1b1b"/><path d="M293.86,35V25.58h2.36v7.68h4.14V35Z" style="fill:#1b1b1b"/><path d="M304.14,35V25.58h7.09v1.77h-4.73v1.77h4.14V30.9h-4.14v2.36h4.73V35Z" style="fill:#1b1b1b"/><path d="M329.55,35.16a4.22,4.22,0,0,1-2.75-.76,2.79,2.79,0,0,1-.92-2.27V28.55a2.84,2.84,0,0,1,.92-2.32,4.22,4.22,0,0,1,2.75-.77,3.86,3.86,0,0,1,2.72.8,3.74,3.74,0,0,1,.93,2.64l-2.36.12a3,3,0,0,0-.33-1.44,1.15,1.15,0,0,0-1-.34,1.23,1.23,0,0,0-1,.36,1.88,1.88,0,0,0-.3,1.2v3.08a1.76,1.76,0,0,0,.3,1.15,1.26,1.26,0,0,0,1,.35,1.15,1.15,0,0,0,1-.34,3,3,0,0,0,.34-1.4l2.36.12a3.65,3.65,0,0,1-.93,2.61A3.94,3.94,0,0,1,329.55,35.16Z" style="fill:#1b1b1b"/><path d="M342.12,35l-.48-2.13h-2.68L338.42,35h-2.13l2.58-9.45h2.9L344.34,35Zm-.89-3.9-.86-3.85-1,3.85Z" style="fill:#1b1b1b"/><path d="M350,35V27.36h-2.6V25.58H355v1.77h-2.6V35Z" style="fill:#1b1b1b"/><path d="M358.51,35V25.58h7.09v1.77h-4.73v1.77H365V30.9h-4.14v2.36h4.73V35Z" style="fill:#1b1b1b"/><path d="M372.95,35.16a3.78,3.78,0,0,1-2.65-.85,3.13,3.13,0,0,1-.92-2.43v-3.1a3.21,3.21,0,0,1,.92-2.46,3.73,3.73,0,0,1,2.64-.86,3.79,3.79,0,0,1,2.59.77,3,3,0,0,1,.95,2.2l-2.36.12a1.79,1.79,0,0,0-.31-1,1.37,1.37,0,0,0-1.78.1,2.62,2.62,0,0,0-.27,1.4v2.62A2.59,2.59,0,0,0,372,33a1,1,0,0,0,.93.37,1.08,1.08,0,0,0,.93-.36,2.28,2.28,0,0,0,.25-1.29h-1.18V30h3.54v1.93a3.15,3.15,0,0,1-.91,2.43A3.7,3.7,0,0,1,372.95,35.16Z" style="fill:#1b1b1b"/><path d="M383.8,35.16a3.86,3.86,0,0,1-2.64-.8,2.83,2.83,0,0,1-.9-2.23V28.55a2.9,2.9,0,0,1,.91-2.26,3.83,3.83,0,0,1,2.65-.82,3.78,3.78,0,0,1,2.63.82,2.91,2.91,0,0,1,.9,2.26v3.57a2.83,2.83,0,0,1-.9,2.23A3.85,3.85,0,0,1,383.8,35.16Zm0-1.77a1.09,1.09,0,0,0,.91-.34,1.89,1.89,0,0,0,.27-1.16v-3.1a2,2,0,0,0-.27-1.18,1.31,1.31,0,0,0-1.82,0,2,2,0,0,0-.27,1.18v3.1a1.89,1.89,0,0,0,.27,1.16A1.09,1.09,0,0,0,383.8,33.38Z" style="fill:#1b1b1b"/><path d="M393.49,35h-2.36V25.58H395a3.37,3.37,0,0,1,2.32.67,2.49,2.49,0,0,1,.74,1.94V29a2.87,2.87,0,0,1-.41,1.6,2.19,2.19,0,0,1-1.21.89l2,3.51H396l-1.83-3.31h-.65Zm0-5.08h1.18a1.53,1.53,0,0,0,.92-.21,1,1,0,0,0,.26-.77v-.64a1,1,0,0,0-.26-.76,1.47,1.47,0,0,0-.92-.22h-1.18Z" style="fill:#1b1b1b"/><path d="M402,35V33.26h2.36V27.36H402V25.58h7.09v1.77h-2.36v5.91h2.36V35Z" style="fill:#1b1b1b"/><path d="M412.87,35V25.58H420v1.77h-4.73v1.77h4.14V30.9h-4.14v2.36H420V35Z" style="fill:#1b1b1b"/><path d="M427.18,35.16a6.57,6.57,0,0,1-2-.28,7.75,7.75,0,0,1-1.55-.68l.53-1.76a9.16,9.16,0,0,0,1.42.68,4.68,4.68,0,0,0,1.64.27,1.55,1.55,0,0,0,1-.26.87.87,0,0,0,.31-.7.76.76,0,0,0-.39-.74,6.17,6.17,0,0,0-1.35-.41,4.82,4.82,0,0,1-2.27-1,2.46,2.46,0,0,1-.66-1.84,2.87,2.87,0,0,1,.85-2.1,3.54,3.54,0,0,1,2.61-.86,5.23,5.23,0,0,1,1.72.3,8.08,8.08,0,0,1,1.38.6L430,28a10.47,10.47,0,0,0-1.34-.57,4.13,4.13,0,0,0-1.33-.21,1.32,1.32,0,0,0-.85.22.81.81,0,0,0-.27.66.84.84,0,0,0,.33.7,3.86,3.86,0,0,0,1.42.48,4.52,4.52,0,0,1,2.28,1,2.66,2.66,0,0,1,.66,2,2.51,2.51,0,0,1-1,2.12A4.4,4.4,0,0,1,427.18,35.16Z" style="fill:#1b1b1b"/><path d="M197,87.16,111.64,38.69,26.27,87.16l85.36,48.77L197,87.16" style="fill:#dd2f3b"/><path d="M111.64,144.33,54.08,111.45l-27.8,15.79L111.64,176,197,127.23l-27.81-15.79-57.56,32.88" style="fill:#f6494d"/><path d="M111.64,184.4,54.08,151.51,26.27,167.3l85.36,48.77L197,167.3l-27.81-15.79L111.64,184.4" style="fill:#ff6d6a"/><path d="M261.17,155.88h5.11c2.71,0,3.86,1.22,3.86,3v.06a2.36,2.36,0,0,1-1.94,2.46,2.49,2.49,0,0,1,2.29,2.67v.06c0,2-1.33,3.19-4.16,3.19h-5.15Zm4.45,4.55c1,0,1.41-.35,1.41-1.17v-.06c0-.78-.42-1.14-1.41-1.14h-1.25v2.37Zm.11,4.71c1,0,1.52-.48,1.52-1.33v-.06c0-.86-.46-1.31-1.62-1.31h-1.26v2.71Z" style="fill:#dd2f3b"/><path d="M271.4,165c0-2,1.66-2.74,4.45-2.74h.8v-.19c0-.8-.19-1.33-1.1-1.33a1,1,0,0,0-1.14,1h-2.69c.13-2,1.71-3,4-3s3.78.94,3.78,3.17v5.43h-2.79v-1a2.75,2.75,0,0,1-2.48,1.17C272.72,167.51,271.4,166.78,271.4,165Zm5.25-.61v-.51h-.75c-1.15,0-1.66.22-1.66.91,0,.48.32.78,1,.78A1.26,1.26,0,0,0,276.65,164.39Z" style="fill:#dd2f3b"/><path d="M280.63,164.67h2.64c.1.61.37.94,1.18.94s1-.27,1-.69-.4-.59-1.55-.75c-2.24-.29-3.19-.94-3.19-2.69s1.65-2.75,3.59-2.75,3.51.7,3.7,2.71h-2.59a.94.94,0,0,0-1.07-.83c-.62,0-.94.27-.94.66s.38.56,1.41.69c2.32.29,3.44.9,3.44,2.69,0,2-1.47,2.88-3.79,2.88S280.7,166.52,280.63,164.67Z" style="fill:#dd2f3b"/><path d="M289,163.24v-.13a4.28,4.28,0,0,1,4.53-4.39,4,4,0,0,1,4.26,4.32v.75H291.9a1.67,1.67,0,0,0,1.74,1.74c.94,0,1.34-.43,1.46-1h2.69c-.26,1.89-1.71,3-4.24,3S289,166,289,163.24Zm6-1.06c0-1-.54-1.57-1.47-1.57a1.59,1.59,0,0,0-1.6,1.57Z" style="fill:#dd2f3b"/><path d="M261.5,171.88h1.39v5.19h6v-5.19h1.39v11.44h-1.39v-5.09h-6v5.09H261.5Z" style="fill:#dd2f3b"/><path d="M275.43,173H272.1v-1.14h8.05V173h-3.33v10.31h-1.39Z" style="fill:#dd2f3b"/><path d="M281.94,171.88h1.94l3.54,8.92,3.43-8.92h1.92v11.44h-1.39v-9.64l-3.79,9.64h-.43l-3.92-9.64v9.64h-1.28Z" style="fill:#dd2f3b"/><path d="M295.68,171.88h1.39v10.31h5.23v1.14h-6.63Z" style="fill:#dd2f3b"/><path d="M307.76,179.22v-.13c0-2.53,1.62-4.29,3.92-4.29,1.94,0,3.76,1.17,3.76,4.16v.43h-6.31c.06,1.9,1,3,2.69,3,1.3,0,2-.48,2.22-1.46h1.33c-.29,1.68-1.68,2.56-3.57,2.56A3.93,3.93,0,0,1,307.76,179.22Zm6.32-.9c-.13-1.73-1-2.42-2.4-2.42a2.51,2.51,0,0,0-2.5,2.42Z" style="fill:#dd2f3b"/><path d="M317.43,170.95h1.34v12.37h-1.34Z" style="fill:#dd2f3b"/><path d="M320.74,179.22v-.13c0-2.53,1.62-4.29,3.92-4.29,1.94,0,3.76,1.17,3.76,4.16v.43h-6.31c.06,1.9,1,3,2.69,3,1.3,0,2-.48,2.22-1.46h1.33c-.29,1.68-1.68,2.56-3.57,2.56A3.93,3.93,0,0,1,320.74,179.22Zm6.32-.9c-.13-1.73-1-2.42-2.4-2.42a2.51,2.51,0,0,0-2.5,2.42Z" style="fill:#dd2f3b"/><path d="M330.37,175h1.33v1.28a2.73,2.73,0,0,1,2.5-1.42,2.43,2.43,0,0,1,2.45,1.57,3.24,3.24,0,0,1,2.87-1.57c1.5,0,2.82.9,2.82,3.33v5.19H341V178c0-1.47-.62-2.08-1.78-2.08A2.14,2.14,0,0,0,337,178.2v5.12h-1.33V178c0-1.47-.62-2.08-1.78-2.08a2.14,2.14,0,0,0-2.21,2.24v5.12h-1.33Z" style="fill:#dd2f3b"/><path d="M344.22,179.22v-.13c0-2.53,1.62-4.29,3.92-4.29,1.94,0,3.76,1.17,3.76,4.16v.43H345.6c.06,1.9,1,3,2.69,3,1.3,0,2-.48,2.22-1.46h1.33c-.29,1.68-1.68,2.56-3.57,2.56A3.93,3.93,0,0,1,344.22,179.22Zm6.32-.9c-.13-1.73-1-2.42-2.4-2.42a2.51,2.51,0,0,0-2.5,2.42Z" style="fill:#dd2f3b"/><path d="M353.86,175h1.33v1.33a2.88,2.88,0,0,1,2.69-1.47c1.73,0,2.94.94,2.94,3.38v5.14H359.5v-5.23c0-1.47-.62-2.13-2-2.13a2.2,2.2,0,0,0-2.34,2.29v5.07h-1.33Z" style="fill:#dd2f3b"/><path d="M363.41,181.23v-5.15h-1.2V175h1.2V173h1.33V175h2v1.12h-2v5c0,.82.37,1.22,1,1.22a2.73,2.73,0,0,0,1-.18v1.12a3.16,3.16,0,0,1-1.14.18A2,2,0,0,1,363.41,181.23Z" style="fill:#dd2f3b"/><path d="M368,180.75h1.3c.1,1,.62,1.62,2,1.62s1.82-.43,1.82-1.33-.66-1.17-2-1.41c-2.18-.4-2.91-1-2.91-2.47s1.52-2.35,2.83-2.35c1.5,0,2.8.61,3,2.42h-1.28c-.19-.91-.7-1.31-1.76-1.31s-1.58.48-1.58,1.2.42,1.06,2,1.33c1.73.32,2.95.7,2.95,2.48,0,1.52-1,2.54-3.07,2.54S368.09,182.46,368,180.75Z" style="fill:#dd2f3b"/><path d="M379.93,181c0-1.94,2-2.59,4.19-2.59h1.2v-.61c0-1.33-.51-1.89-1.79-1.89s-1.79.48-1.92,1.5h-1.33c.18-1.9,1.7-2.61,3.31-2.61s3.06.66,3.06,3v5.52h-1.33v-1.06a3,3,0,0,1-2.61,1.2C381.17,183.47,379.93,182.71,379.93,181Zm5.39-.61v-1h-1.15c-1.68,0-2.91.42-2.91,1.65,0,.86.42,1.41,1.58,1.41C384.26,182.41,385.33,181.69,385.33,180.39Z" style="fill:#dd2f3b"/><path d="M389.07,175h1.33v1.33a2.88,2.88,0,0,1,2.69-1.47c1.73,0,2.94.94,2.94,3.38v5.14H394.7v-5.23c0-1.47-.62-2.13-2-2.13a2.2,2.2,0,0,0-2.34,2.29v5.07h-1.33Z" style="fill:#dd2f3b"/><path d="M397.91,179.3v-.13c0-2.56,1.6-4.37,3.91-4.37a3,3,0,0,1,2.74,1.49v-5.35h1.33v12.37h-1.33v-1.44a3.53,3.53,0,0,1-2.86,1.58C399.49,183.47,397.91,181.91,397.91,179.3Zm6.69-.11v-.13c0-2.14-1-3.15-2.66-3.15s-2.66,1.17-2.66,3.2v.13c0,2.11,1.14,3.12,2.55,3.12S404.6,181.34,404.6,179.19Z" style="fill:#dd2f3b"/><path d="M412.12,180.75h1.3c.1,1,.62,1.62,2,1.62s1.82-.43,1.82-1.33-.66-1.17-2-1.41c-2.18-.4-2.91-1-2.91-2.47s1.52-2.35,2.83-2.35c1.5,0,2.8.61,3,2.42h-1.28c-.19-.91-.7-1.31-1.76-1.31s-1.58.48-1.58,1.2.42,1.06,2,1.33c1.73.32,2.95.7,2.95,2.48,0,1.52-1,2.54-3.07,2.54S412.2,182.46,412.12,180.75Z" style="fill:#dd2f3b"/><path d="M420.66,181.23v-5.15h-1.2V175h1.2V173H422V175h2v1.12h-2v5c0,.82.37,1.22,1,1.22a2.73,2.73,0,0,0,1-.18v1.12a3.16,3.16,0,0,1-1.14.18A2,2,0,0,1,420.66,181.23Z" style="fill:#dd2f3b"/><path d="M428.5,182.46,425.22,175h1.42l2.56,6,2.32-6h1.36l-4.63,11.28h-1.34Z" style="fill:#dd2f3b"/><path d="M434.47,170.95h1.34v12.37h-1.34Z" style="fill:#dd2f3b"/><path d="M437.78,179.22v-.13c0-2.53,1.62-4.29,3.92-4.29,1.94,0,3.76,1.17,3.76,4.16v.43h-6.31c.06,1.9,1,3,2.69,3,1.3,0,2-.48,2.22-1.46h1.33c-.29,1.68-1.68,2.56-3.57,2.56A3.93,3.93,0,0,1,437.78,179.22Zm6.32-.9c-.13-1.73-1-2.42-2.4-2.42a2.51,2.51,0,0,0-2.5,2.42Z" style="fill:#dd2f3b"/><path d="M446.8,180.75h1.3c.1,1,.62,1.62,2,1.62s1.82-.43,1.82-1.33-.66-1.17-2-1.41c-2.18-.4-2.91-1-2.91-2.47s1.52-2.35,2.83-2.35c1.5,0,2.8.61,3,2.42H451.6c-.19-.91-.7-1.31-1.76-1.31s-1.58.48-1.58,1.2.42,1.06,2,1.33c1.73.32,2.95.7,2.95,2.48,0,1.52-1,2.54-3.07,2.54S446.88,182.46,446.8,180.75Z" style="fill:#dd2f3b"/><path d="M261.17,113.36h4.27l2.19,6.1,2.19-6.1H274v11.44h-3.27v-7.12l-2.8,7.12h-1.09l-2.77-7.12v7.12h-2.93Z" style="fill:#dd2f3b"/><path d="M275.54,120.72v-.13a4.3,4.3,0,0,1,4.59-4.39,4.24,4.24,0,0,1,4.56,4.31v.13a4.25,4.25,0,0,1-4.58,4.35C277.54,125,275.54,123.43,275.54,120.72Zm6.24,0v-.13c0-1.41-.56-2.19-1.65-2.19s-1.66.75-1.66,2.16v.13c0,1.44.56,2.22,1.66,2.22S281.78,122.07,281.78,120.68Z" style="fill:#dd2f3b"/><path d="M285.56,120.71v-.13c0-2.85,1.57-4.37,3.55-4.37a2.71,2.71,0,0,1,2.58,1.41v-4.87h2.87v12.05h-2.87v-1.36a2.82,2.82,0,0,1-2.61,1.55C287.14,125,285.56,123.61,285.56,120.71Zm6.21,0v-.13c0-1.41-.59-2.16-1.65-2.16s-1.65.72-1.65,2.18v.13c0,1.41.62,2.13,1.62,2.13S291.77,122.08,291.77,120.66Z" style="fill:#dd2f3b"/><path d="M296.2,121.89v-5.46h2.87v5c0,.94.37,1.41,1.18,1.41s1.42-.51,1.42-1.58v-4.82h2.87v8.37h-2.87v-1.3A2.75,2.75,0,0,1,299,125C297.4,125,296.2,124,296.2,121.89Z" style="fill:#dd2f3b"/><path d="M306.26,112.75h2.85v12.05h-2.85Z" style="fill:#dd2f3b"/><path d="M310.38,120.72v-.13a4.28,4.28,0,0,1,4.53-4.39,4,4,0,0,1,4.26,4.32v.75h-5.89A1.67,1.67,0,0,0,315,123c.94,0,1.34-.43,1.46-1h2.69c-.26,1.89-1.71,3-4.24,3S310.38,123.46,310.38,120.72Zm6-1.06c0-1-.54-1.57-1.47-1.57a1.59,1.59,0,0,0-1.6,1.57Z" style="fill:#dd2f3b"/><path d="M261.41,136.63v-7.27h1.39v7.11c0,2.4.85,3.33,2.75,3.33s2.91-.74,2.91-3.54v-6.9h1.39v7.09c0,2.78-1.39,4.5-4.34,4.5C262.9,141,261.41,139.41,261.41,136.63Z" style="fill:#dd2f3b"/><path d="M272.74,129.36h1.39v11.44h-1.39Z" style="fill:#dd2f3b"/><path d="M282.57,139.43v1.38h-1.33V128.43h1.33v5.41a3.44,3.44,0,0,1,2.83-1.55c2.19,0,3.81,1.6,3.81,4.21v.13c0,2.56-1.5,4.32-3.81,4.32A3.19,3.19,0,0,1,282.57,139.43Zm5.27-2.74v-.13c0-2.11-1.17-3.17-2.58-3.17s-2.74,1-2.74,3.17v.13c0,2.15,1.12,3.15,2.75,3.15S287.83,138.73,287.83,136.69Z" style="fill:#dd2f3b"/><path d="M291.1,137.73v-5.3h1.33v5.23c0,1.47.62,2.13,1.94,2.13a2.2,2.2,0,0,0,2.31-2.29v-5.07H298v8.37h-1.33v-1.33A2.86,2.86,0,0,1,294,141C292.35,141,291.1,140,291.1,137.73Z" style="fill:#dd2f3b"/><path d="M300.24,129.81a.88.88,0,1,1,.88.88A.89.89,0,0,1,300.24,129.81Zm.24,2.63h1.33v8.37h-1.33Z" style="fill:#dd2f3b"/><path d="M304.3,128.43h1.34v12.37H304.3Z" style="fill:#dd2f3b"/><path d="M307.6,136.79v-.13c0-2.56,1.6-4.37,3.91-4.37a3,3,0,0,1,2.74,1.49v-5.35h1.33v12.37h-1.33v-1.44a3.53,3.53,0,0,1-2.86,1.58C309.19,141,307.6,139.4,307.6,136.79Zm6.69-.11v-.13c0-2.14-1-3.15-2.66-3.15s-2.66,1.17-2.66,3.2v.13c0,2.11,1.14,3.12,2.55,3.12S314.29,138.82,314.29,136.68Z" style="fill:#dd2f3b"/><path d="M317.82,129.81a.88.88,0,1,1,.88.88A.89.89,0,0,1,317.82,129.81Zm.24,2.63h1.33v8.37h-1.33Z" style="fill:#dd2f3b"/><path d="M321.87,132.43h1.33v1.33a2.88,2.88,0,0,1,2.69-1.47c1.73,0,2.94.94,2.94,3.38v5.14H327.5v-5.23c0-1.47-.62-2.13-2-2.13a2.2,2.2,0,0,0-2.34,2.29v5.07h-1.33Z" style="fill:#dd2f3b"/><path d="M330.83,141.29h1.36c.19,1,1,1.46,2.42,1.46,1.65,0,2.69-.78,2.69-2.58v-1.22a3.47,3.47,0,0,1-2.83,1.58,3.77,3.77,0,0,1-3.81-4v-.11a4,4,0,0,1,3.91-4.16,3,3,0,0,1,2.74,1.49v-1.34h1.33v7.81c0,2.43-1.66,3.62-4,3.62S331.05,142.69,330.83,141.29Zm6.51-4.82v-.11c0-1.87-1-3-2.66-3s-2.66,1.23-2.66,3v.13a2.64,2.64,0,0,0,2.58,2.91A2.69,2.69,0,0,0,337.34,136.47Z" style="fill:#dd2f3b"/><path d="M346.88,139.43v1.38h-1.33V128.43h1.33v5.41a3.44,3.44,0,0,1,2.83-1.55c2.19,0,3.81,1.6,3.81,4.21v.13c0,2.56-1.5,4.32-3.81,4.32A3.19,3.19,0,0,1,346.88,139.43Zm5.27-2.74v-.13c0-2.11-1.17-3.17-2.58-3.17s-2.74,1-2.74,3.17v.13c0,2.15,1.12,3.15,2.75,3.15S352.14,138.73,352.14,136.69Z" style="fill:#dd2f3b"/><path d="M355.5,128.43h1.34v12.37H355.5Z" style="fill:#dd2f3b"/><path d="M358.79,136.69v-.13a4.12,4.12,0,1,1,8.23,0v.13a4.12,4.12,0,1,1-8.23,0Zm6.85,0v-.11c0-1.94-1.07-3.19-2.74-3.19s-2.74,1.25-2.74,3.17v.13c0,1.9,1,3.15,2.74,3.15S365.64,138.58,365.64,136.69Z" style="fill:#dd2f3b"/><path d="M368.43,136.71v-.13a4.07,4.07,0,0,1,4.07-4.29c1.74,0,3.38.8,3.63,2.93h-1.31a2.09,2.09,0,0,0-2.32-1.82c-1.52,0-2.69,1.22-2.69,3.19v.13c0,2,1.12,3.14,2.74,3.14a2.26,2.26,0,0,0,2.4-2h1.23a3.49,3.49,0,0,1-3.65,3.15A4,4,0,0,1,368.43,136.71Z" style="fill:#dd2f3b"/><path d="M378,128.43h1.33v7.86l3.47-3.86h1.55l-3.59,3.89,3.89,4.48h-1.62l-3.71-4.34v4.34H378Z" style="fill:#dd2f3b"/><path d="M385.29,138.23h1.3c.1,1,.62,1.62,2,1.62s1.82-.43,1.82-1.33-.66-1.17-2-1.41c-2.18-.4-2.91-1-2.91-2.47s1.52-2.35,2.83-2.35c1.5,0,2.8.61,3,2.42H390.1c-.19-.91-.7-1.31-1.76-1.31s-1.58.48-1.58,1.2.42,1.06,2,1.33c1.73.32,2.95.7,2.95,2.48,0,1.52-1,2.54-3.07,2.54S385.37,139.94,385.29,138.23Z" style="fill:#dd2f3b"/><path d="M261.17,71.11h4.35c3.14,0,4.59,1.39,4.59,3.83V75c0,2.4-1.62,3.7-4.45,3.7h-1.23v3.86h-3.27Zm4.21,5.35c1.06,0,1.62-.5,1.62-1.44v-.06c0-1-.58-1.38-1.6-1.38h-1v2.88Z" style="fill:#dd2f3b"/><path d="M270.66,80.23c0-2,1.66-2.74,4.45-2.74h.8V77.3c0-.8-.19-1.33-1.1-1.33a1,1,0,0,0-1.14,1H271c.13-2,1.71-3,4-3s3.78.94,3.78,3.17v5.43H276v-1a2.75,2.75,0,0,1-2.48,1.17C272,82.74,270.66,82,270.66,80.23Zm5.25-.61v-.51h-.75c-1.15,0-1.66.22-1.66.91,0,.48.32.78,1,.78A1.26,1.26,0,0,0,275.91,79.62Z" style="fill:#dd2f3b"/><path d="M279.94,82.55h2.85c.13.61.5,1.09,1.54,1.09a1.58,1.58,0,0,0,1.78-1.76V80.6a2.94,2.94,0,0,1-2.59,1.54c-2,0-3.55-1.44-3.55-4V78c0-2.46,1.58-4,3.55-4a2.72,2.72,0,0,1,2.59,1.41V74.18H289v7.67c0,2.5-1.65,3.81-4.64,3.81S280.16,84.46,279.94,82.55Zm6.24-4.45V78c0-1.15-.59-1.89-1.65-1.89s-1.65.75-1.65,1.9v.13c0,1.15.61,1.89,1.63,1.89S286.18,79.29,286.18,78.1Z" style="fill:#dd2f3b"/><path d="M290.23,78.47v-.13A4.28,4.28,0,0,1,294.76,74,4,4,0,0,1,299,78.28V79h-5.89a1.67,1.67,0,0,0,1.74,1.74c.94,0,1.34-.43,1.46-1H299c-.26,1.89-1.71,3-4.24,3S290.23,81.21,290.23,78.47Zm6-1.06c0-1-.54-1.57-1.47-1.57a1.59,1.59,0,0,0-1.6,1.57Z" style="fill:#dd2f3b"/><path d="M299.81,79.89h2.64c.1.61.37.94,1.18.94s1-.27,1-.69-.4-.59-1.55-.75c-2.24-.29-3.19-.94-3.19-2.69S301.57,74,303.5,74s3.51.7,3.7,2.71h-2.59a.94.94,0,0,0-1.07-.83c-.62,0-.94.27-.94.66s.38.56,1.41.69c2.32.29,3.44.9,3.44,2.69,0,2-1.47,2.88-3.79,2.88S299.87,81.75,299.81,79.89Z" style="fill:#dd2f3b"/><path d="M260.94,92.9v-.13c0-3.39,2.27-5.84,5.38-5.84,2.39,0,4.4,1.26,4.64,3.75h-1.38A2.88,2.88,0,0,0,266.34,88c-2.37,0-4,1.84-4,4.72v.13c0,2.91,1.47,4.67,3.94,4.67a3.16,3.16,0,0,0,3.46-2.8h1.3c-.4,2.64-2.23,3.94-4.79,3.94C263,98.7,260.94,96.42,260.94,92.9Z" style="fill:#dd2f3b"/><path d="M272.55,94.44v-.13a4.12,4.12,0,1,1,8.23,0v.13a4.12,4.12,0,1,1-8.23,0Zm6.85,0v-.11c0-1.94-1.07-3.19-2.74-3.19s-2.74,1.25-2.74,3.17v.13c0,1.9,1,3.15,2.74,3.15S279.4,96.33,279.4,94.44Z" style="fill:#dd2f3b"/><path d="M282.72,90.18H284v1.33A2.88,2.88,0,0,1,286.73,90c1.73,0,2.94.94,2.94,3.38v5.14h-1.33V93.32c0-1.47-.62-2.13-2-2.13A2.2,2.2,0,0,0,284,93.48v5.07h-1.33Z" style="fill:#dd2f3b"/><path d="M292.26,96.46V91.3h-1.2V90.18h1.2v-1.9h1.33v1.9h2V91.3h-2v5c0,.82.37,1.22,1,1.22a2.73,2.73,0,0,0,1-.18v1.12a3.16,3.16,0,0,1-1.14.18A2,2,0,0,1,292.26,96.46Z" style="fill:#dd2f3b"/><path d="M296.64,94.45v-.13c0-2.53,1.62-4.29,3.92-4.29,1.94,0,3.76,1.17,3.76,4.16v.43H298c.06,1.9,1,3,2.69,3,1.3,0,2-.48,2.22-1.46h1.33c-.29,1.68-1.68,2.56-3.57,2.56A3.93,3.93,0,0,1,296.64,94.45Zm6.32-.9c-.13-1.73-1-2.42-2.4-2.42a2.51,2.51,0,0,0-2.5,2.42Z" style="fill:#dd2f3b"/><path d="M308.07,94.25l-2.8-4.07h1.55l2,3,2-3h1.44l-2.77,4,3.06,4.4h-1.57l-2.26-3.38-2.31,3.38h-1.42Z" style="fill:#dd2f3b"/><path d="M314.83,96.46V91.3h-1.2V90.18h1.2v-1.9h1.33v1.9h2V91.3h-2v5c0,.82.37,1.22,1,1.22a2.73,2.73,0,0,0,1-.18v1.12a3.16,3.16,0,0,1-1.14.18A2,2,0,0,1,314.83,96.46Z" style="fill:#dd2f3b"/><path d="M319.81,95.48v-5.3h1.33v5.23c0,1.47.62,2.13,1.94,2.13a2.2,2.2,0,0,0,2.31-2.29V90.18h1.33v8.37h-1.33V97.22a2.86,2.86,0,0,1-2.66,1.47C321.06,98.7,319.81,97.78,319.81,95.48Z" style="fill:#dd2f3b"/><path d="M328.6,96.23c0-1.94,2-2.59,4.19-2.59H334V93c0-1.33-.51-1.89-1.79-1.89s-1.79.48-1.92,1.5h-1.33c.18-1.9,1.7-2.61,3.31-2.61s3.06.66,3.06,3v5.52H334V97.5a3,3,0,0,1-2.61,1.2C329.83,98.7,328.6,97.94,328.6,96.23Zm5.39-.61v-1h-1.15c-1.68,0-2.91.42-2.91,1.65,0,.86.42,1.41,1.58,1.41C332.92,97.64,334,96.92,334,95.62Z" style="fill:#dd2f3b"/><path d="M337.75,86.18h1.34V98.55h-1.34Z" style="fill:#dd2f3b"/><path d="M345.37,96h1.3c.1,1,.62,1.62,2,1.62s1.82-.43,1.82-1.33-.66-1.17-2-1.41c-2.18-.4-2.91-1-2.91-2.47S347.11,90,348.42,90c1.5,0,2.8.61,3,2.42h-1.28c-.19-.91-.7-1.31-1.76-1.31s-1.58.48-1.58,1.2.42,1.06,2,1.33c1.73.32,2.95.7,2.95,2.48,0,1.52-1,2.54-3.07,2.54S345.45,97.69,345.37,96Z" style="fill:#dd2f3b"/><path d="M353.91,96.46V91.3h-1.2V90.18h1.2v-1.9h1.33v1.9h2V91.3h-2v5c0,.82.37,1.22,1,1.22a2.73,2.73,0,0,0,1-.18v1.12a3.16,3.16,0,0,1-1.14.18A2,2,0,0,1,353.91,96.46Z" style="fill:#dd2f3b"/><path d="M361.75,97.69l-3.28-7.51h1.42l2.56,6,2.32-6h1.36l-4.63,11.28h-1.34Z" style="fill:#dd2f3b"/><path d="M367.72,86.18h1.34V98.55h-1.34Z" style="fill:#dd2f3b"/><path d="M371,94.45v-.13c0-2.53,1.62-4.29,3.92-4.29,1.94,0,3.76,1.17,3.76,4.16v.43H372.4c.06,1.9,1,3,2.69,3,1.3,0,2-.48,2.22-1.46h1.33c-.29,1.68-1.68,2.56-3.57,2.56A3.93,3.93,0,0,1,371,94.45Zm6.32-.9c-.13-1.73-1-2.42-2.4-2.42a2.51,2.51,0,0,0-2.5,2.42Z" style="fill:#dd2f3b"/><path d="M380,96h1.3c.1,1,.62,1.62,2,1.62s1.82-.43,1.82-1.33-.66-1.17-2-1.41c-2.18-.4-2.91-1-2.91-2.47S381.79,90,383.1,90c1.5,0,2.8.61,3,2.42h-1.28c-.19-.91-.7-1.31-1.76-1.31s-1.58.48-1.58,1.2.42,1.06,2,1.33c1.73.32,2.95.7,2.95,2.48,0,1.52-1,2.54-3.07,2.54S380.13,97.69,380,96Z" style="fill:#dd2f3b"/><path d="M653.95,129.73a2,2,0,0,1-1.21-.33,1.13,1.13,0,0,1-.46-1v-.73a1.17,1.17,0,0,1,.46-1,2,2,0,0,1,1.21-.34,1.93,1.93,0,0,1,1.2.34,1.17,1.17,0,0,1,.45,1v.73a1.13,1.13,0,0,1-.46,1A2,2,0,0,1,653.95,129.73Z" style="fill:#795fa3"/><path d="M659.47,129.6v-1.46h2.42v-4.71h-2.42V122h4.33v6.17h2.42v1.46Zm3.45-8.91a2.19,2.19,0,0,1-1-.19.68.68,0,0,1-.37-.66v-.14a.7.7,0,0,1,.38-.68,2.56,2.56,0,0,1,2,0,.7.7,0,0,1,.38.68v.14a.68.68,0,0,1-.38.66A2.19,2.19,0,0,1,662.92,120.69Z" style="fill:#795fa3"/><path d="M671.9,129.73a4.11,4.11,0,0,1-2.67-.76,2.69,2.69,0,0,1-.92-2.2v-2a2.69,2.69,0,0,1,.92-2.2,4.08,4.08,0,0,1,2.66-.76,3.58,3.58,0,0,1,2.42.71,3,3,0,0,1,.95,2l-1.85.14a1.54,1.54,0,0,0-.43-1.09,1.71,1.71,0,0,0-1.15-.33,1.74,1.74,0,0,0-1.23.37,1.61,1.61,0,0,0-.39,1.21v1.83a1.56,1.56,0,0,0,.39,1.18,1.78,1.78,0,0,0,1.25.37A1.9,1.9,0,0,0,673,128a1.17,1.17,0,0,0,.42-.9l1.85.14a2.53,2.53,0,0,1-.86,1.85A3.89,3.89,0,0,1,671.9,129.73Z" style="fill:#795fa3"/><path d="M680.66,129.73a3.83,3.83,0,0,1-2.53-.76,2.63,2.63,0,0,1-.9-2.13v-2.06a2.69,2.69,0,0,1,.91-2.17,3.81,3.81,0,0,1,2.54-.77,3.72,3.72,0,0,1,2.53.78,2.74,2.74,0,0,1,.9,2.18v2.06a2.59,2.59,0,0,1-.9,2.11A3.86,3.86,0,0,1,680.66,129.73Zm0-1.46a1.6,1.6,0,0,0,1.16-.36,1.52,1.52,0,0,0,.37-1.13v-1.95a1.65,1.65,0,0,0-2.69-1.16,1.56,1.56,0,0,0-.37,1.15v1.92a1.32,1.32,0,0,0,1.53,1.53Z" style="fill:#795fa3"/><path d="M686.13,129.6V122H688v1.34h.38a2.28,2.28,0,0,1,.92-1.08,2.67,2.67,0,0,1,1.43-.39,2.09,2.09,0,0,1,1.64.66,2.59,2.59,0,0,1,.59,1.8v5.31H691.1v-5a1.35,1.35,0,0,0-.29-.93,1.06,1.06,0,0,0-.83-.32,2.1,2.1,0,0,0-1,.27,3.09,3.09,0,0,0-.94.82v5.12Z" style="fill:#795fa3"/><path d="M698.49,129.73a2,2,0,0,1-1.21-.33,1.13,1.13,0,0,1-.46-1v-.73a1.17,1.17,0,0,1,.46-1,2,2,0,0,1,1.21-.34,1.93,1.93,0,0,1,1.2.34,1.17,1.17,0,0,1,.45,1v.73a1.13,1.13,0,0,1-.46,1A2,2,0,0,1,698.49,129.73Z" style="fill:#795fa3"/><path d="M707.39,129.73a3.84,3.84,0,0,1-2.53-.76,2.63,2.63,0,0,1-.9-2.13v-2.06a2.69,2.69,0,0,1,.91-2.17,3.81,3.81,0,0,1,2.54-.77,3.72,3.72,0,0,1,2.53.78,2.74,2.74,0,0,1,.9,2.18v2.06a2.6,2.6,0,0,1-.9,2.11A3.86,3.86,0,0,1,707.39,129.73Zm0-1.46a1.6,1.6,0,0,0,1.16-.36,1.52,1.52,0,0,0,.37-1.13v-1.95a1.65,1.65,0,0,0-2.69-1.16,1.56,1.56,0,0,0-.37,1.15v1.92a1.32,1.32,0,0,0,1.53,1.53Z" style="fill:#795fa3"/><path d="M714.83,129.6v-6.17h-2.1V122h2.1v-.46a2.08,2.08,0,0,1,.85-1.77,3.63,3.63,0,0,1,2.23-.64,6.17,6.17,0,0,1,1.06.09,7.17,7.17,0,0,1,.94.23l-.25,1.34a5.45,5.45,0,0,0-.75-.18,4.71,4.71,0,0,0-.83-.07,1.57,1.57,0,0,0-1,.27,1,1,0,0,0-.36.83V122h3v1.46h-3v6.17Z" style="fill:#795fa3"/><path d="M721.58,126v-1.72h7.25V126Z" style="fill:#795fa3"/><path d="M730.8,129.6v-1.46h2.48v-7.25H730.8v-1.46h4.39v8.72h2.42v1.46Z" style="fill:#795fa3"/><path d="M743,129.73a3.83,3.83,0,0,1-2.53-.76,2.62,2.62,0,0,1-.9-2.13v-2.06a2.68,2.68,0,0,1,.91-2.17,3.81,3.81,0,0,1,2.54-.77,3.72,3.72,0,0,1,2.53.78,2.74,2.74,0,0,1,.9,2.18v2.06a2.59,2.59,0,0,1-.9,2.11A3.85,3.85,0,0,1,743,129.73Zm0-1.46a1.6,1.6,0,0,0,1.16-.36,1.52,1.52,0,0,0,.37-1.13v-1.95a1.65,1.65,0,0,0-2.69-1.16,1.56,1.56,0,0,0-.37,1.15v1.92a1.32,1.32,0,0,0,1.53,1.53Z" style="fill:#795fa3"/><path d="M755.88,130.07a1.91,1.91,0,0,1-.78,1.62,3.26,3.26,0,0,1-2,.58h-2.29a3.76,3.76,0,0,1-2.08-.49,1.52,1.52,0,0,1-.74-1.33,1.38,1.38,0,0,1,.37-1,1.51,1.51,0,0,1,1-.45v-.25a1.66,1.66,0,0,1-.76-.41,1.2,1.2,0,0,1-.31-.9,1.48,1.48,0,0,1,.43-1.08,1.87,1.87,0,0,1,1.2-.51v-.24a1.62,1.62,0,0,1-.93-.58,1.47,1.47,0,0,1-.29-.87V124a1.69,1.69,0,0,1,.8-1.47,3.69,3.69,0,0,1,2.1-.54h4.16v1.27l-2-.27v.24a1.37,1.37,0,0,1,.77.5,1.29,1.29,0,0,1,.29.79v.19a1.65,1.65,0,0,1-.77,1.44,3.81,3.81,0,0,1-2.16.52h-1.32a1,1,0,0,0-.59.15.61.61,0,0,0-.21.52.59.59,0,0,0,.24.52,1.23,1.23,0,0,0,.7.17h2.57a3.42,3.42,0,0,1,1.93.5A1.73,1.73,0,0,1,755.88,130.07Zm-5.07,1h2.36a1.73,1.73,0,0,0,.81-.17.65.65,0,0,0,.31-.64.67.67,0,0,0-.29-.64,1.56,1.56,0,0,0-.76-.17h-3.41v.74a.81.81,0,0,0,.25.65A1.11,1.11,0,0,0,750.81,131.06Zm.9-5.46a1.5,1.5,0,0,0,1-.25.88.88,0,0,0,.31-.73v-.52a.83.83,0,0,0-.32-.7,2,2,0,0,0-1.92,0,.83.83,0,0,0-.31.7v.52a.88.88,0,0,0,.31.73A1.5,1.5,0,0,0,751.71,125.6Z" style="fill:#795fa3"/><path d="M757.47,129.6v-1.46h2.42v-4.71h-2.42V122h4.33v6.17h2.42v1.46Zm3.45-8.91a2.19,2.19,0,0,1-1-.19.68.68,0,0,1-.37-.66v-.14a.7.7,0,0,1,.38-.68,2.56,2.56,0,0,1,2,0,.7.7,0,0,1,.38.68v.14a.68.68,0,0,1-.38.66A2.19,2.19,0,0,1,760.92,120.69Z" style="fill:#795fa3"/><path d="M766.31,129.6V122h1.91v1.34h.38a2.29,2.29,0,0,1,.92-1.08,2.67,2.67,0,0,1,1.43-.39,2.09,2.09,0,0,1,1.63.66,2.59,2.59,0,0,1,.59,1.8v5.31h-1.91v-5a1.34,1.34,0,0,0-.29-.93,1.07,1.07,0,0,0-.83-.32,2.1,2.1,0,0,0-1,.27,3.07,3.07,0,0,0-.94.82v5.12Z" style="fill:#795fa3"/><path d="M790.43,132.27a13.18,13.18,0,0,1-4.39-.45,1.74,1.74,0,0,1-1.34-1.67,2,2,0,0,1,.22-1,3.2,3.2,0,0,1,.6-.77q.4-.37.62-.62a.78.78,0,0,0,.22-.51.87.87,0,0,0-.63-.85,7.6,7.6,0,0,0-2.3-.29v-1a7.83,7.83,0,0,0,2.3-.28.85.85,0,0,0,.63-.83.65.65,0,0,0-.21-.46,5.69,5.69,0,0,0-.61-.5,2.57,2.57,0,0,1-.62-.66,1.83,1.83,0,0,1,1.11-2.63,12.9,12.9,0,0,1,4.39-.46v1.46a12.54,12.54,0,0,0-3,.18q-.83.22-.83.78a.84.84,0,0,0,.18.5,3.41,3.41,0,0,0,.66.6,2.86,2.86,0,0,1,.64.63,1.2,1.2,0,0,1,.18.67,1.15,1.15,0,0,1-.71,1.09,6.22,6.22,0,0,1-2.37.4v.06a6.68,6.68,0,0,1,2.37.5,1.22,1.22,0,0,1,.53,1.76,3,3,0,0,1-.66.65,2.82,2.82,0,0,0-.64.6,1.07,1.07,0,0,0-.18.62q0,.6.83.83a11.89,11.89,0,0,0,3,.2Z"/><path d="M793.45,129.71a1,1,0,0,1-.71-.26,1.07,1.07,0,0,1-.27-.81v-1.2a1.11,1.11,0,0,1,.27-.83,1,1,0,0,1,.71-.27.92.92,0,0,1,.69.27,1.14,1.14,0,0,1,.26.83v1.2a1.09,1.09,0,0,1-.27.81A1,1,0,0,1,793.45,129.71Zm3,0a1,1,0,0,1-.7-.26,1.09,1.09,0,0,1-.27-.81v-1.2a1.13,1.13,0,0,1,.27-.83,1,1,0,0,1,1.4,0,1.13,1.13,0,0,1,.27.83v1.2a1.07,1.07,0,0,1-.27.81A1,1,0,0,1,796.48,129.71Zm3,0a1,1,0,0,1-.7-.26,1.08,1.08,0,0,1-.27-.81v-1.2a1.12,1.12,0,0,1,.27-.83,1,1,0,0,1,1.4,0,1.12,1.12,0,0,1,.27.83v1.2a1.06,1.06,0,0,1-.27.81A1,1,0,0,1,799.52,129.71Z"/><path d="M808.25,130.16a1.74,1.74,0,0,1-1.34,1.67,13.17,13.17,0,0,1-4.39.45v-1.44a11.89,11.89,0,0,0,3-.2q.83-.23.83-.83a1.09,1.09,0,0,0-.17-.62,2.66,2.66,0,0,0-.64-.6,3,3,0,0,1-.66-.65,1.22,1.22,0,0,1,.54-1.76,6.69,6.69,0,0,1,2.36-.5v-.06a6.22,6.22,0,0,1-2.36-.4,1.14,1.14,0,0,1-.72-1.09,1.2,1.2,0,0,1,.18-.67,2.78,2.78,0,0,1,.65-.63,3.23,3.23,0,0,0,.65-.6.86.86,0,0,0,.18-.5q0-.56-.83-.78a12.54,12.54,0,0,0-3-.18v-1.46a12.89,12.89,0,0,1,4.39.46,1.76,1.76,0,0,1,1.34,1.69,1.81,1.81,0,0,1-.22.94,2.47,2.47,0,0,1-.61.66,6.3,6.3,0,0,0-.61.5.64.64,0,0,0-.22.46.85.85,0,0,0,.64.83,7.84,7.84,0,0,0,2.29.28v1a7.62,7.62,0,0,0-2.29.29.87.87,0,0,0-.64.85.78.78,0,0,0,.22.51c.15.17.36.38.62.62a3.16,3.16,0,0,1,.6.77A2.06,2.06,0,0,1,808.25,130.16Z"/><path d="M653.95,81.73a2,2,0,0,1-1.21-.33,1.13,1.13,0,0,1-.46-1v-.73a1.17,1.17,0,0,1,.46-1,2,2,0,0,1,1.21-.34,1.93,1.93,0,0,1,1.2.34,1.17,1.17,0,0,1,.45,1v.73a1.13,1.13,0,0,1-.46,1A2,2,0,0,1,653.95,81.73Z" style="fill:#795fa3"/><path d="M663.06,81.7a5,5,0,0,1-.89-.08,4.11,4.11,0,0,1-.85-.25v2.77h-1.91V74h1.91V75.3h.38A2.47,2.47,0,0,1,664,73.83a2.1,2.1,0,0,1,1.69.73,3,3,0,0,1,.63,2v2.25a2.7,2.7,0,0,1-.87,2.11A3.38,3.38,0,0,1,663.06,81.7Zm-.24-1.46a1.71,1.71,0,0,0,1.18-.34,1.45,1.45,0,0,0,.38-1.12v-2a1.57,1.57,0,0,0-.3-1.07,1.15,1.15,0,0,0-.9-.34,1.92,1.92,0,0,0-.94.24,3.77,3.77,0,0,0-.91.75v3.45a3.28,3.28,0,0,0,.7.3A2.85,2.85,0,0,0,662.82,80.24Z" style="fill:#795fa3"/><path d="M670.45,81.73a2.72,2.72,0,0,1-1.75-.56,2,2,0,0,1-.71-1.64,1.94,1.94,0,0,1,.71-1.61,2.84,2.84,0,0,1,1.82-.57h2.18v-1a1,1,0,0,0-.34-.84,1.66,1.66,0,0,0-1-.27,1.86,1.86,0,0,0-1,.24,1.59,1.59,0,0,0-.52,1l-1.59-.32a2.76,2.76,0,0,1,1-1.76,3.72,3.72,0,0,1,2.19-.54,4,4,0,0,1,2.34.6,2.12,2.12,0,0,1,.85,1.86v3.08c0,.39.12.63.34.72a2,2,0,0,0,1,.05v1.44a2.89,2.89,0,0,1-1.6-.06,1.36,1.36,0,0,1-.83-1.14h-.32a3.18,3.18,0,0,1-1.1.94A3.23,3.23,0,0,1,670.45,81.73Zm.42-1.31a2.79,2.79,0,0,0,1-.17,2.42,2.42,0,0,0,.84-.54V78.47H670.8a1.22,1.22,0,0,0-.75.2,1.19,1.19,0,0,0,0,1.5A1.18,1.18,0,0,0,670.87,80.42Z" style="fill:#795fa3"/><path d="M684.61,82.07a1.91,1.91,0,0,1-.78,1.62,3.26,3.26,0,0,1-2,.58h-2.29a3.76,3.76,0,0,1-2.08-.49,1.52,1.52,0,0,1-.74-1.33,1.38,1.38,0,0,1,.37-1,1.51,1.51,0,0,1,1-.45v-.25a1.66,1.66,0,0,1-.76-.41,1.2,1.2,0,0,1-.31-.9,1.48,1.48,0,0,1,.43-1.08,1.87,1.87,0,0,1,1.2-.51V77.6a1.62,1.62,0,0,1-.93-.58,1.47,1.47,0,0,1-.29-.87V76a1.69,1.69,0,0,1,.8-1.47,3.69,3.69,0,0,1,2.1-.54h4.16v1.27l-2-.27v.24a1.37,1.37,0,0,1,.77.5,1.29,1.29,0,0,1,.29.79v.19a1.65,1.65,0,0,1-.77,1.44,3.81,3.81,0,0,1-2.16.52h-1.32a1,1,0,0,0-.59.15.61.61,0,0,0-.21.52.59.59,0,0,0,.24.52,1.23,1.23,0,0,0,.7.17h2.57a3.42,3.42,0,0,1,1.93.5A1.73,1.73,0,0,1,684.61,82.07Zm-5.07,1h2.36a1.73,1.73,0,0,0,.81-.17.65.65,0,0,0,.31-.64.67.67,0,0,0-.29-.64,1.56,1.56,0,0,0-.76-.17h-3.41v.74a.81.81,0,0,0,.25.65A1.11,1.11,0,0,0,679.54,83.06Zm.9-5.46a1.5,1.5,0,0,0,1-.25.88.88,0,0,0,.31-.73V76.1a.83.83,0,0,0-.32-.7,2,2,0,0,0-1.92,0,.83.83,0,0,0-.31.7v.52a.88.88,0,0,0,.31.73A1.5,1.5,0,0,0,680.44,77.6Z" style="fill:#795fa3"/><path d="M693.11,79.86a2.76,2.76,0,0,1-1.18,1.45,5,5,0,0,1-2.32.42,4,4,0,0,1-2.51-.73,2.57,2.57,0,0,1-1-2.18v-2a2.64,2.64,0,0,1,.94-2.18,3.88,3.88,0,0,1,2.51-.76,3.8,3.8,0,0,1,2.51.76,2.74,2.74,0,0,1,.92,2.23v1.34h-5v.74a1.49,1.49,0,0,0,.38,1.12,1.69,1.69,0,0,0,1.21.37,2.49,2.49,0,0,0,1.14-.22,1.63,1.63,0,0,0,.68-.78ZM688,76.65V77h3.05v-.28a1.8,1.8,0,0,0-.36-1.25,1.56,1.56,0,0,0-1.17-.37,1.6,1.6,0,0,0-1.17.36A1.59,1.59,0,0,0,688,76.65Z" style="fill:#795fa3"/><path d="M694.85,78V76.25h7.25V78Z" style="fill:#795fa3"/><path d="M704.08,81.6V80.13h2.48V72.88h-2.48V71.42h4.39v8.72h2.42V81.6Z" style="fill:#795fa3"/><path d="M716.29,81.73a3.83,3.83,0,0,1-2.53-.76,2.63,2.63,0,0,1-.9-2.13V76.78a2.68,2.68,0,0,1,.91-2.17,3.81,3.81,0,0,1,2.54-.77,3.71,3.71,0,0,1,2.53.78,2.74,2.74,0,0,1,.9,2.18v2.06a2.6,2.6,0,0,1-.9,2.11A3.86,3.86,0,0,1,716.29,81.73Zm0-1.46a1.6,1.6,0,0,0,1.16-.36,1.52,1.52,0,0,0,.37-1.13V76.83a1.65,1.65,0,0,0-2.69-1.16,1.56,1.56,0,0,0-.37,1.15v1.92a1.32,1.32,0,0,0,1.53,1.53Z" style="fill:#795fa3"/><path d="M729.15,82.07a1.91,1.91,0,0,1-.78,1.62,3.26,3.26,0,0,1-2,.58h-2.29a3.76,3.76,0,0,1-2.08-.49,1.52,1.52,0,0,1-.74-1.33,1.38,1.38,0,0,1,.37-1,1.51,1.51,0,0,1,1-.45v-.25a1.66,1.66,0,0,1-.76-.41,1.2,1.2,0,0,1-.31-.9,1.48,1.48,0,0,1,.43-1.08,1.87,1.87,0,0,1,1.2-.51V77.6a1.62,1.62,0,0,1-.93-.58,1.47,1.47,0,0,1-.29-.87V76a1.69,1.69,0,0,1,.8-1.47,3.69,3.69,0,0,1,2.1-.54H729v1.27L727,75v.24a1.37,1.37,0,0,1,.77.5,1.29,1.29,0,0,1,.29.79v.19a1.65,1.65,0,0,1-.77,1.44,3.81,3.81,0,0,1-2.16.52h-1.32a1,1,0,0,0-.59.15.61.61,0,0,0-.21.52.59.59,0,0,0,.24.52,1.23,1.23,0,0,0,.7.17h2.57a3.42,3.42,0,0,1,1.93.5A1.73,1.73,0,0,1,729.15,82.07Zm-5.07,1h2.36a1.73,1.73,0,0,0,.81-.17.65.65,0,0,0,.31-.64.67.67,0,0,0-.29-.64,1.56,1.56,0,0,0-.76-.17h-3.41v.74a.81.81,0,0,0,.25.65A1.11,1.11,0,0,0,724.08,83.06Zm.9-5.46a1.5,1.5,0,0,0,1-.25.88.88,0,0,0,.31-.73V76.1a.83.83,0,0,0-.32-.7,2,2,0,0,0-1.92,0,.83.83,0,0,0-.31.7v.52a.88.88,0,0,0,.31.73A1.5,1.5,0,0,0,725,77.6Z" style="fill:#795fa3"/><path d="M730.74,81.6V80.13h2.42V75.43h-2.42V74h4.33v6.17h2.42V81.6Zm3.45-8.91a2.19,2.19,0,0,1-1-.19.68.68,0,0,1-.37-.66V71.7a.7.7,0,0,1,.38-.68,2.56,2.56,0,0,1,2,0,.7.7,0,0,1,.38.68v.14a.68.68,0,0,1-.38.66A2.19,2.19,0,0,1,734.19,72.69Z" style="fill:#795fa3"/><path d="M739.59,81.6V74h1.91V75.3h.38a2.29,2.29,0,0,1,.92-1.08,2.67,2.67,0,0,1,1.43-.39,2.09,2.09,0,0,1,1.64.66,2.59,2.59,0,0,1,.59,1.8V81.6h-1.91v-5a1.35,1.35,0,0,0-.29-.93,1.07,1.07,0,0,0-.83-.32,2.1,2.1,0,0,0-1,.27,3.07,3.07,0,0,0-.94.82V81.6Z" style="fill:#795fa3"/><path d="M763.7,84.27a13.18,13.18,0,0,1-4.39-.45A1.74,1.74,0,0,1,758,82.16a2,2,0,0,1,.22-1,3.2,3.2,0,0,1,.6-.77q.4-.37.62-.62a.78.78,0,0,0,.22-.51.87.87,0,0,0-.63-.85,7.6,7.6,0,0,0-2.3-.29v-1a7.83,7.83,0,0,0,2.3-.28.85.85,0,0,0,.63-.83.65.65,0,0,0-.21-.46,5.69,5.69,0,0,0-.61-.5,2.57,2.57,0,0,1-.62-.66,1.83,1.83,0,0,1,1.11-2.63,12.9,12.9,0,0,1,4.39-.46v1.46a12.54,12.54,0,0,0-3,.18q-.83.22-.83.78a.84.84,0,0,0,.18.5,3.41,3.41,0,0,0,.66.6,2.86,2.86,0,0,1,.64.63,1.2,1.2,0,0,1,.18.67,1.15,1.15,0,0,1-.71,1.09,6.22,6.22,0,0,1-2.37.4v.06a6.68,6.68,0,0,1,2.37.5,1.22,1.22,0,0,1,.53,1.76,3,3,0,0,1-.66.65,2.82,2.82,0,0,0-.64.6,1.07,1.07,0,0,0-.18.62q0,.6.83.83a11.89,11.89,0,0,0,3,.2Z"/><path d="M766.72,81.71a1,1,0,0,1-.71-.26,1.07,1.07,0,0,1-.27-.81v-1.2a1.11,1.11,0,0,1,.27-.83,1,1,0,0,1,.71-.27.92.92,0,0,1,.69.27,1.14,1.14,0,0,1,.26.83v1.2a1.09,1.09,0,0,1-.27.81A1,1,0,0,1,766.72,81.71Zm3,0a1,1,0,0,1-.7-.26,1.09,1.09,0,0,1-.27-.81v-1.2a1.13,1.13,0,0,1,.27-.83,1,1,0,0,1,1.4,0,1.13,1.13,0,0,1,.27.83v1.2a1.07,1.07,0,0,1-.27.81A1,1,0,0,1,769.75,81.71Zm3,0a1,1,0,0,1-.7-.26,1.08,1.08,0,0,1-.27-.81v-1.2a1.12,1.12,0,0,1,.27-.83,1,1,0,0,1,1.4,0,1.12,1.12,0,0,1,.27.83v1.2a1.06,1.06,0,0,1-.27.81A1,1,0,0,1,772.79,81.71Z"/><path d="M781.52,82.16a1.74,1.74,0,0,1-1.34,1.67,13.17,13.17,0,0,1-4.39.45V82.83a11.88,11.88,0,0,0,3-.2q.83-.23.83-.83a1.1,1.1,0,0,0-.17-.62,2.68,2.68,0,0,0-.64-.6,3,3,0,0,1-.66-.65,1.22,1.22,0,0,1,.54-1.76,6.68,6.68,0,0,1,2.36-.5v-.06a6.21,6.21,0,0,1-2.36-.4,1.14,1.14,0,0,1-.72-1.09,1.2,1.2,0,0,1,.18-.67,2.75,2.75,0,0,1,.65-.63,3.2,3.2,0,0,0,.65-.6.86.86,0,0,0,.18-.5q0-.56-.83-.78a12.53,12.53,0,0,0-3-.18V71.29a12.89,12.89,0,0,1,4.39.46,1.76,1.76,0,0,1,1.34,1.69,1.81,1.81,0,0,1-.22.94,2.47,2.47,0,0,1-.61.66,6.39,6.39,0,0,0-.61.5.64.64,0,0,0-.22.46.85.85,0,0,0,.64.83,7.84,7.84,0,0,0,2.29.28v1a7.62,7.62,0,0,0-2.29.29.87.87,0,0,0-.64.85.78.78,0,0,0,.22.51q.22.25.62.62a3.18,3.18,0,0,1,.6.77A2.06,2.06,0,0,1,781.52,82.16Z"/><path d="M826,153.5c-25.5-16-70.5,1-92-18.5" style="fill:none;stroke:#b7b6b6;stroke-miterlimit:10"/><path d="M629,153.5S668.19,156,677,135" style="fill:none;stroke:#b7b6b6;stroke-miterlimit:10"/><path d="M555.88,113.13a4.65,4.65,0,0,1-.83-.08,3.75,3.75,0,0,1-.79-.23v2.58h-1.77v-9.45h1.77v1.24h.35a2.29,2.29,0,0,1,2.1-1.36,2,2,0,0,1,1.57.68,2.76,2.76,0,0,1,.58,1.85v2.09a2.51,2.51,0,0,1-.8,2A3.14,3.14,0,0,1,555.88,113.13Zm-.22-1.36a1.59,1.59,0,0,0,1.09-.32,1.35,1.35,0,0,0,.35-1v-1.84a1.45,1.45,0,0,0-.28-1,1.06,1.06,0,0,0-.84-.32,1.78,1.78,0,0,0-.87.22,3.49,3.49,0,0,0-.84.7v3.21a3,3,0,0,0,.65.28A2.63,2.63,0,0,0,555.66,111.77Z" style="fill:#6d6d6d"/><path d="M562.75,113.16a2.53,2.53,0,0,1-1.62-.52,1.83,1.83,0,0,1-.66-1.52,1.8,1.8,0,0,1,.66-1.5,2.63,2.63,0,0,1,1.69-.53h2v-.91a.93.93,0,0,0-.32-.78,1.54,1.54,0,0,0-1-.25,1.73,1.73,0,0,0-1,.22,1.47,1.47,0,0,0-.48.89l-1.48-.3a2.56,2.56,0,0,1,.93-1.64,3.46,3.46,0,0,1,2-.5,3.71,3.71,0,0,1,2.17.56,2,2,0,0,1,.79,1.73V111q0,.54.32.67a1.86,1.86,0,0,0,.92,0V113a2.68,2.68,0,0,1-1.48-.05,1.26,1.26,0,0,1-.77-1.06h-.3a3,3,0,0,1-1,.87A3,3,0,0,1,562.75,113.16Zm.39-1.22a2.6,2.6,0,0,0,.92-.16,2.26,2.26,0,0,0,.78-.5v-1.15h-1.77a1.13,1.13,0,0,0-.69.19,1.11,1.11,0,0,0,0,1.39A1.09,1.09,0,0,0,563.14,111.94Z" style="fill:#6d6d6d"/><path d="M575.89,113.48a1.77,1.77,0,0,1-.72,1.51,3,3,0,0,1-1.86.54h-2.13a3.49,3.49,0,0,1-1.93-.46,1.41,1.41,0,0,1-.69-1.23,1.29,1.29,0,0,1,.34-.93,1.41,1.41,0,0,1,.9-.41v-.24a1.54,1.54,0,0,1-.71-.38,1.12,1.12,0,0,1-.28-.84,1.38,1.38,0,0,1,.4-1,1.74,1.74,0,0,1,1.12-.48v-.22a1.51,1.51,0,0,1-.87-.54,1.36,1.36,0,0,1-.27-.81v-.17a1.57,1.57,0,0,1,.75-1.37,3.43,3.43,0,0,1,1.95-.5h3.87v1.18l-1.89-.25v.22a1.28,1.28,0,0,1,.72.47,1.2,1.2,0,0,1,.27.74v.18a1.53,1.53,0,0,1-.71,1.34,3.55,3.55,0,0,1-2,.48h-1.23a.92.92,0,0,0-.55.14.56.56,0,0,0-.2.48.55.55,0,0,0,.22.48,1.15,1.15,0,0,0,.65.15h2.39a3.17,3.17,0,0,1,1.79.46A1.61,1.61,0,0,1,575.89,113.48Zm-4.7.92h2.19a1.6,1.6,0,0,0,.75-.15.61.61,0,0,0,.29-.59.62.62,0,0,0-.27-.59,1.44,1.44,0,0,0-.71-.15h-3.17v.69a.76.76,0,0,0,.23.6A1,1,0,0,0,571.19,114.4Zm.84-5.07a1.39,1.39,0,0,0,.89-.24.82.82,0,0,0,.29-.67v-.48a.77.77,0,0,0-.3-.65,1.87,1.87,0,0,0-1.78,0,.77.77,0,0,0-.29.65v.48a.82.82,0,0,0,.29.67A1.4,1.4,0,0,0,572,109.33Z" style="fill:#6d6d6d"/><path d="M583.79,111.42a2.57,2.57,0,0,1-1.09,1.35,4.6,4.6,0,0,1-2.16.39,3.75,3.75,0,0,1-2.33-.68,2.39,2.39,0,0,1-.89-2v-1.89a2.46,2.46,0,0,1,.87-2,3.6,3.6,0,0,1,2.33-.7,3.53,3.53,0,0,1,2.33.71,2.54,2.54,0,0,1,.85,2.07v1.24h-4.61v.69a1.39,1.39,0,0,0,.35,1,1.57,1.57,0,0,0,1.12.34,2.31,2.31,0,0,0,1.06-.2,1.5,1.5,0,0,0,.63-.72Zm-4.7-3v.37h2.84v-.26a1.66,1.66,0,0,0-.33-1.16,1.45,1.45,0,0,0-1.09-.35,1.49,1.49,0,0,0-1.09.33A1.48,1.48,0,0,0,579.08,108.44Z" style="fill:#6d6d6d"/><path d="M593.85,113v-7.09h1.77v1.24H596a2.12,2.12,0,0,1,.86-1,2.48,2.48,0,0,1,1.33-.36,1.94,1.94,0,0,1,1.52.61,2.41,2.41,0,0,1,.55,1.67V113h-1.77v-4.61a1.25,1.25,0,0,0-.27-.86,1,1,0,0,0-.77-.3,1.94,1.94,0,0,0-.92.25,2.85,2.85,0,0,0-.87.76V113Z" style="fill:#6d6d6d"/><path d="M604.11,113.16a2.53,2.53,0,0,1-1.62-.52,1.83,1.83,0,0,1-.66-1.52,1.8,1.8,0,0,1,.66-1.5,2.63,2.63,0,0,1,1.69-.53h2v-.91a.93.93,0,0,0-.32-.78,1.54,1.54,0,0,0-1-.25,1.73,1.73,0,0,0-1,.22,1.47,1.47,0,0,0-.48.89L602,108a2.56,2.56,0,0,1,.93-1.64,3.46,3.46,0,0,1,2-.5,3.71,3.71,0,0,1,2.17.56,2,2,0,0,1,.79,1.73V111q0,.54.32.67a1.86,1.86,0,0,0,.92,0V113a2.68,2.68,0,0,1-1.48-.05,1.26,1.26,0,0,1-.77-1.06h-.3a3,3,0,0,1-1,.87A3,3,0,0,1,604.11,113.16Zm.39-1.22a2.6,2.6,0,0,0,.92-.16,2.26,2.26,0,0,0,.78-.5v-1.15h-1.77a1.13,1.13,0,0,0-.69.19,1.11,1.11,0,0,0,0,1.39A1.09,1.09,0,0,0,604.5,111.94Z" style="fill:#6d6d6d"/><path d="M611.54,108v5H610v-7.09h1.49v.95h.29a2.08,2.08,0,0,1,.56-.77,1.13,1.13,0,0,1,.73-.27,1.08,1.08,0,0,1,.73.27,1.42,1.42,0,0,1,.42.77h.3a1.82,1.82,0,0,1,.58-.77,1.35,1.35,0,0,1,.83-.27,1,1,0,0,1,.87.46,2.09,2.09,0,0,1,.33,1.23V113h-1.5v-5.19a1.37,1.37,0,0,0-.11-.61.33.33,0,0,0-.31-.21.67.67,0,0,0-.44.25,2.77,2.77,0,0,0-.47.7v5h-1.48v-5.19a1.3,1.3,0,0,0-.11-.61.34.34,0,0,0-.3-.21.66.66,0,0,0-.43.24A2.75,2.75,0,0,0,611.54,108Z" style="fill:#6d6d6d"/><path d="M625.15,111.42a2.57,2.57,0,0,1-1.09,1.35,4.6,4.6,0,0,1-2.16.39,3.75,3.75,0,0,1-2.33-.68,2.39,2.39,0,0,1-.89-2v-1.89a2.46,2.46,0,0,1,.87-2,3.6,3.6,0,0,1,2.33-.7,3.53,3.53,0,0,1,2.33.71,2.54,2.54,0,0,1,.85,2.07v1.24h-4.61v.69a1.39,1.39,0,0,0,.35,1,1.57,1.57,0,0,0,1.12.34,2.3,2.3,0,0,0,1.06-.2,1.5,1.5,0,0,0,.63-.72Zm-4.7-3v.37h2.84v-.26a1.66,1.66,0,0,0-.33-1.16,1.45,1.45,0,0,0-1.09-.35,1.5,1.5,0,0,0-1.09.33A1.48,1.48,0,0,0,620.45,108.44Z" style="fill:#6d6d6d"/><path d="M629,110.5S668.19,113,677,92" style="fill:none;stroke:#b7b6b6;stroke-miterlimit:10"/><path d="M231.78,142.56h0l-.07,0h0l-15.22-8-.08-.06h0l0,0,0,0h0l-.07-.06a.7.7,0,0,1-.11-.15l-.07-.13,0-.11,0-.19v-6.08l0-.17,0-.06h0l0-.09.08-.1.06-.07.07-.06h0l0,0,13.1-9.3.18-.09.09,0,.18,0h.16l.09,0h0a.75.75,0,0,1,.21.08l15.17,8,.1.07.06,0,.07.07.1.14a.55.55,0,0,1,.05.11l0,0,0,.11v0l0,.21v6h0l0,.19a.79.79,0,0,1-.06.15l-.09.13-.13.13h0l0,0-13.08,9.3h0l-.07,0a.86.86,0,0,1-.41.1Zm-.6-2.24v-4l-13.45-7.09v4Zm1.73-.24L244.27,132v-3.81l-11.36,8.06Zm-.93-5.29,11.5-8.16L238,123.76l.07.49v3.23l0,.11-.3,1v0l-.12.23-.7.91,0,0-.07.07-.08.07-1.06.76h0l-.14.08-1.35.57-.08,0-.08,0-1.52.33-.12,0h-.06l-1.6.08h-.1l-1.66-.18h-.13l-1.49-.44-.06,0,0,0-.06,0L226,130.5l-.09-.06-.08-.05-.94-.82-.15-.17h0l0,0-.55-.95-.11-.32-.13-1V123.9h0v0l-5.38,3.82Zm-1.26-4.67,1.49-.08,1.39-.31,1.18-.5.87-.62.52-.68.21-.69-.66.48,0,0-.05,0-.09.06-1.34.57h-.09l-.07,0-1.52.33-.1,0h-.07l-1.6.09h-.15l-1.6-.18-.17,0-1.45-.41-.07,0h0l-.06,0-1.26-.65-.09-.06-.1-.07-.11-.1.05.38.39.67.75.65,1.08.56,1.32.39Zm0-3,1.49-.08,1.39-.31,1.18-.5.87-.64.52-.68.2-.66-.09-.63-.4-.67-.75-.66-1.07-.56-1.32-.39-1.47-.16-1.48.08-1.39.31-1.19.5-.87.62-.52.68-.19.65.09.65.39.67.75.65,1.08.56,1.32.38Zm-.76-7.59h.11l-.06,0Z" style="fill:#f6494d"/><path d="M231,72.93h-8V94.83h16V81Zm.76,7.28V76.15l4.06,4.06Zm5.62,1.54V93.17H224.66V74.59h5.52v7.16Z" style="fill:#f6494d"/><path d="M225.14,166.77l-1.91-1.91-5.86,5.86,5.86,5.86,1.91-1.91-3.95-3.95Zm13.62-1.91-1.91,1.91,3.95,3.95-3.95,3.95,1.91,1.91,5.86-5.86Zm-9.22,14L227,178l5.52-15.53,2.57.91Z" style="fill:#f6494d"/><rect x="642" y="158" width="133" height="30" rx="3" ry="3" style="fill:#f6f8fa"/><path d="M835.93,202.16a2.53,2.53,0,0,1-1.62-.52,1.83,1.83,0,0,1-.66-1.52,1.8,1.8,0,0,1,.66-1.5,2.63,2.63,0,0,1,1.69-.53h2v-.91a.93.93,0,0,0-.32-.78,1.54,1.54,0,0,0-1-.25,1.73,1.73,0,0,0-1,.22,1.47,1.47,0,0,0-.48.89l-1.48-.3a2.56,2.56,0,0,1,.93-1.64,3.46,3.46,0,0,1,2-.5,3.71,3.71,0,0,1,2.17.56,2,2,0,0,1,.79,1.73V200q0,.54.32.67a1.86,1.86,0,0,0,.92,0V202a2.68,2.68,0,0,1-1.48-.05,1.26,1.26,0,0,1-.77-1.06h-.3a3,3,0,0,1-1,.87A3,3,0,0,1,835.93,202.16Zm.39-1.22a2.6,2.6,0,0,0,.92-.16,2.26,2.26,0,0,0,.78-.5v-1.15h-1.77a1.13,1.13,0,0,0-.69.19,1.11,1.11,0,0,0,0,1.39A1.09,1.09,0,0,0,836.32,200.94Z" style="fill:#6d6d6d"/><path d="M846.65,202.16a3,3,0,0,1-2.05-.63,2.3,2.3,0,0,1-.73-1.84v-3.38H842v-1.36h1.83v-2.36h1.77v2.36h2.84v1.36h-2.84v3.16a1.33,1.33,0,0,0,.32,1,1.23,1.23,0,0,0,.9.31,5.31,5.31,0,0,0,.74-.05,3.81,3.81,0,0,0,.75-.18l.24,1.35a4.52,4.52,0,0,1-.82.2A7,7,0,0,1,846.65,202.16Z" style="fill:#6d6d6d"/><path d="M854.92,202.16a3,3,0,0,1-2.05-.63,2.3,2.3,0,0,1-.73-1.84v-3.38h-1.83v-1.36h1.83v-2.36h1.77v2.36h2.84v1.36h-2.84v3.16a1.33,1.33,0,0,0,.32,1,1.23,1.23,0,0,0,.9.31,5.31,5.31,0,0,0,.74-.05,3.81,3.81,0,0,0,.75-.18l.24,1.35a4.52,4.52,0,0,1-.82.2A7,7,0,0,1,854.92,202.16Z" style="fill:#6d6d6d"/><path d="M859.18,202v-7.09h1.77v1.24h.35a1.93,1.93,0,0,1,.8-1,2.44,2.44,0,0,1,1.28-.32,1.78,1.78,0,0,1,1.35.53,2.06,2.06,0,0,1,.5,1.48V198h-1.63v-.65a1.24,1.24,0,0,0-.24-.83,1,1,0,0,0-.79-.28,1.82,1.82,0,0,0-.89.23,2,2,0,0,0-.74.75V202Z" style="fill:#6d6d6d"/><path d="M867.09,202v-1.36h2.25v-4.37h-2.25v-1.36h4v5.73h2.25V202Zm3.2-8.27a2,2,0,0,1-.92-.18A.63.63,0,0,1,869,193v-.13a.65.65,0,0,1,.35-.63,2.38,2.38,0,0,1,1.83,0,.65.65,0,0,1,.35.63V193a.63.63,0,0,1-.35.61A2,2,0,0,1,870.3,193.76Z" style="fill:#6d6d6d"/><path d="M878.42,202.13a6,6,0,0,1-1.59-.22,6.4,6.4,0,0,1-1.52-.64v-8.69h1.77v3.6h.35a2.23,2.23,0,0,1,2.1-1.36,2,2,0,0,1,1.58.67,2.77,2.77,0,0,1,.57,1.86v2.09a2.43,2.43,0,0,1-.84,2A3.73,3.73,0,0,1,878.42,202.13Zm.06-1.36a1.57,1.57,0,0,0,1.08-.32,1.32,1.32,0,0,0,.36-1v-1.83a1.46,1.46,0,0,0-.29-1,1.06,1.06,0,0,0-.83-.32,1.79,1.79,0,0,0-.87.23,3.4,3.4,0,0,0-.84.69v3.22a2.72,2.72,0,0,0,.67.28A2.85,2.85,0,0,0,878.48,200.77Z" style="fill:#6d6d6d"/><path d="M885.72,202.16a2.08,2.08,0,0,1-1.53-.61,2.26,2.26,0,0,1-.61-1.67v-4.93h1.77v4.48a1.47,1.47,0,0,0,.27,1,1,1,0,0,0,.79.32,1.63,1.63,0,0,0,.9-.29,3.9,3.9,0,0,0,.88-.83v-4.63H890V202h-1.77V200.8h-.35a2,2,0,0,1-.89,1A2.46,2.46,0,0,1,885.72,202.16Z" style="fill:#6d6d6d"/><path d="M896.29,202.16a3,3,0,0,1-2.05-.63,2.3,2.3,0,0,1-.73-1.84v-3.38h-1.83v-1.36h1.83v-2.36h1.77v2.36h2.84v1.36h-2.84v3.16a1.33,1.33,0,0,0,.32,1,1.23,1.23,0,0,0,.9.31,5.31,5.31,0,0,0,.74-.05,3.81,3.81,0,0,0,.75-.18l.24,1.35a4.52,4.52,0,0,1-.82.2A7,7,0,0,1,896.29,202.16Z" style="fill:#6d6d6d"/><path d="M906.6,200.42a2.57,2.57,0,0,1-1.09,1.35,4.6,4.6,0,0,1-2.16.39,3.75,3.75,0,0,1-2.33-.68,2.39,2.39,0,0,1-.89-2v-1.89a2.46,2.46,0,0,1,.87-2,3.6,3.6,0,0,1,2.33-.7,3.53,3.53,0,0,1,2.33.71,2.54,2.54,0,0,1,.85,2.07v1.24H901.9v.69a1.39,1.39,0,0,0,.35,1,1.57,1.57,0,0,0,1.12.34,2.3,2.3,0,0,0,1.06-.2,1.5,1.5,0,0,0,.63-.72Zm-4.7-3v.37h2.84v-.26a1.66,1.66,0,0,0-.33-1.16,1.45,1.45,0,0,0-1.09-.35,1.5,1.5,0,0,0-1.09.33A1.48,1.48,0,0,0,901.9,197.44Z" style="fill:#6d6d6d"/><path d="M654.15,177.7a5,5,0,0,1-.89-.08,4,4,0,0,1-.85-.25v2.77H650.5V170h1.91v1.34h.38a2.47,2.47,0,0,1,2.27-1.46,2.11,2.11,0,0,1,1.69.73,3,3,0,0,1,.62,2v2.25a2.7,2.7,0,0,1-.87,2.11A3.38,3.38,0,0,1,654.15,177.7Zm-.24-1.46a1.71,1.71,0,0,0,1.18-.34,1.45,1.45,0,0,0,.38-1.12v-2a1.57,1.57,0,0,0-.31-1.07,1.14,1.14,0,0,0-.9-.34,1.91,1.91,0,0,0-.94.24,3.73,3.73,0,0,0-.91.75v3.45a3.26,3.26,0,0,0,.7.3A2.82,2.82,0,0,0,653.91,176.24Z" style="fill:#64a25d"/><path d="M662.86,177.73a2,2,0,0,1-1.21-.33,1.13,1.13,0,0,1-.46-1v-.73a1.16,1.16,0,0,1,.46-1,2,2,0,0,1,1.21-.34,1.94,1.94,0,0,1,1.2.34,1.17,1.17,0,0,1,.45,1v.73a1.13,1.13,0,0,1-.46,1A2,2,0,0,1,662.86,177.73Z" style="fill:#795fa3"/><path d="M668.38,177.6v-1.46h2.42v-4.71h-2.42V170h4.33v6.17h2.42v1.46Zm3.45-8.91a2.18,2.18,0,0,1-1-.19.68.68,0,0,1-.38-.66v-.14a.7.7,0,0,1,.38-.68,2.56,2.56,0,0,1,2,0,.7.7,0,0,1,.38.68v.14a.68.68,0,0,1-.38.66A2.18,2.18,0,0,1,671.83,168.69Z" style="fill:#795fa3"/><path d="M680.72,177.7a7,7,0,0,1-1.94-.27,5.41,5.41,0,0,1-1.69-.81l.57-1.26a5.33,5.33,0,0,0,1.51.75,5.25,5.25,0,0,0,1.57.26,2.54,2.54,0,0,0,1-.19.69.69,0,0,0,.41-.7.71.71,0,0,0-.38-.68,4.37,4.37,0,0,0-1.36-.33,5.8,5.8,0,0,1-2.31-.64,1.69,1.69,0,0,1-.8-1.57,2.07,2.07,0,0,1,.88-1.78,3.73,3.73,0,0,1,2.23-.64,5.65,5.65,0,0,1,1.69.27,6,6,0,0,1,1.55.74l-.51,1.21a5.67,5.67,0,0,0-1.34-.65,4.34,4.34,0,0,0-1.35-.22,1.87,1.87,0,0,0-.91.2.7.7,0,0,0-.36.67.68.68,0,0,0,.43.67,5.69,5.69,0,0,0,1.5.32,4.65,4.65,0,0,1,2.2.72,1.8,1.8,0,0,1,.72,1.53,2,2,0,0,1-.95,1.8A4.37,4.37,0,0,1,680.72,177.7Z" style="fill:#795fa3"/><path d="M685.94,174v-1.72h7.25V174Z" style="fill:#795fa3"/><path d="M695.17,177.6v-1.46h2.48v-7.25h-2.48v-1.46h4.39v8.72H702v1.46Z" style="fill:#795fa3"/><path d="M710.92,175.86a2.77,2.77,0,0,1-1.18,1.45,5,5,0,0,1-2.32.42,4,4,0,0,1-2.51-.73,2.57,2.57,0,0,1-1-2.18v-2a2.64,2.64,0,0,1,.94-2.18,3.88,3.88,0,0,1,2.51-.76,3.79,3.79,0,0,1,2.51.76,2.73,2.73,0,0,1,.92,2.23v1.34h-5v.74a1.49,1.49,0,0,0,.38,1.12,1.69,1.69,0,0,0,1.21.37,2.49,2.49,0,0,0,1.14-.22,1.62,1.62,0,0,0,.68-.78Zm-5.07-3.21V173h3.05v-.28a1.79,1.79,0,0,0-.36-1.25,1.56,1.56,0,0,0-1.17-.38,1.61,1.61,0,0,0-1.17.36A1.59,1.59,0,0,0,705.86,172.65Z" style="fill:#795fa3"/><path d="M715,177.73a2.73,2.73,0,0,1-1.75-.56,2,2,0,0,1-.71-1.64,1.93,1.93,0,0,1,.71-1.61,2.83,2.83,0,0,1,1.82-.57h2.18v-1a1,1,0,0,0-.34-.84,1.66,1.66,0,0,0-1-.27,1.86,1.86,0,0,0-1,.24,1.58,1.58,0,0,0-.52,1l-1.59-.32a2.76,2.76,0,0,1,1-1.76,3.72,3.72,0,0,1,2.19-.54,4,4,0,0,1,2.33.6,2.12,2.12,0,0,1,.85,1.86v3.08c0,.39.11.63.34.73a2,2,0,0,0,1,.05v1.44a2.9,2.9,0,0,1-1.6-.06,1.36,1.36,0,0,1-.83-1.14h-.32a3.19,3.19,0,0,1-1.09.94A3.23,3.23,0,0,1,715,177.73Zm.42-1.31a2.81,2.81,0,0,0,1-.17,2.44,2.44,0,0,0,.84-.54v-1.23h-1.91a1.23,1.23,0,0,0-.75.2,1.19,1.19,0,0,0,0,1.5A1.18,1.18,0,0,0,715.42,176.42Z" style="fill:#795fa3"/><path d="M726.35,176.26a2.52,2.52,0,0,1-.91,1.08,2.41,2.41,0,0,1-1.36.39,2.06,2.06,0,0,1-1.71-.76,3.06,3.06,0,0,1-.61-2v-2.25a2.71,2.71,0,0,1,.85-2.12,3.42,3.42,0,0,1,2.37-.76,4.9,4.9,0,0,1,.9.08,4.6,4.6,0,0,1,.84.24v-2.76h1.91V177.6h-1.91v-1.34Zm-1.46-.1a1.94,1.94,0,0,0,.94-.24,3.64,3.64,0,0,0,.9-.74v-3.47a2.47,2.47,0,0,0-.7-.31,3,3,0,0,0-.79-.1,1.67,1.67,0,0,0-1.18.36,1.44,1.44,0,0,0-.39,1.1v2a1.55,1.55,0,0,0,.31,1.07A1.15,1.15,0,0,0,724.89,176.16Z" style="fill:#795fa3"/><path d="M745.89,180.27a13.2,13.2,0,0,1-4.39-.45,1.73,1.73,0,0,1-1.34-1.67,2.05,2.05,0,0,1,.22-1,3.19,3.19,0,0,1,.6-.77c.26-.25.47-.45.62-.62a.78.78,0,0,0,.22-.51.87.87,0,0,0-.63-.85,7.64,7.64,0,0,0-2.3-.29v-1a7.84,7.84,0,0,0,2.3-.28.85.85,0,0,0,.63-.83.65.65,0,0,0-.21-.46,5.64,5.64,0,0,0-.6-.5,2.58,2.58,0,0,1-.62-.66,1.83,1.83,0,0,1,1.11-2.63,12.93,12.93,0,0,1,4.39-.46v1.46a12.52,12.52,0,0,0-3,.18q-.83.22-.83.78a.83.83,0,0,0,.18.5,3.36,3.36,0,0,0,.66.6,2.92,2.92,0,0,1,.64.63,1.21,1.21,0,0,1,.18.67,1.15,1.15,0,0,1-.71,1.09,6.23,6.23,0,0,1-2.37.4v.06a6.65,6.65,0,0,1,2.37.5,1.22,1.22,0,0,1,.53,1.76,3,3,0,0,1-.66.65,2.87,2.87,0,0,0-.64.6,1.06,1.06,0,0,0-.18.62q0,.6.83.83a11.89,11.89,0,0,0,3,.2Z"/><path d="M748.9,177.71a1,1,0,0,1-.71-.26,1.07,1.07,0,0,1-.27-.81v-1.2a1.12,1.12,0,0,1,.27-.83,1,1,0,0,1,.71-.27.93.93,0,0,1,.69.27,1.15,1.15,0,0,1,.26.83v1.2a1.09,1.09,0,0,1-.27.81A1,1,0,0,1,748.9,177.71Zm3,0a1,1,0,0,1-.7-.26,1.09,1.09,0,0,1-.27-.81v-1.2a1.13,1.13,0,0,1,.27-.83,1,1,0,0,1,1.4,0,1.13,1.13,0,0,1,.27.83v1.2a1.07,1.07,0,0,1-.27.81A1,1,0,0,1,751.93,177.71Zm3,0a1,1,0,0,1-.7-.26,1.08,1.08,0,0,1-.27-.81v-1.2a1.13,1.13,0,0,1,.27-.83,1,1,0,0,1,1.4,0,1.13,1.13,0,0,1,.27.83v1.2a1.07,1.07,0,0,1-.27.81A1,1,0,0,1,755,177.71Z"/><path d="M763.7,178.16a1.74,1.74,0,0,1-1.34,1.67,13.19,13.19,0,0,1-4.39.45v-1.44a11.89,11.89,0,0,0,3-.2q.83-.24.83-.83a1.09,1.09,0,0,0-.17-.62,2.68,2.68,0,0,0-.64-.6,3,3,0,0,1-.66-.65,1.22,1.22,0,0,1,.54-1.76,6.67,6.67,0,0,1,2.36-.5v-.06a6.24,6.24,0,0,1-2.36-.4,1.15,1.15,0,0,1-.72-1.09,1.2,1.2,0,0,1,.18-.67,2.82,2.82,0,0,1,.65-.63,3.2,3.2,0,0,0,.65-.6.86.86,0,0,0,.18-.5q0-.56-.83-.78a12.52,12.52,0,0,0-3-.18v-1.46a12.92,12.92,0,0,1,4.39.46,1.76,1.76,0,0,1,1.34,1.69,1.8,1.8,0,0,1-.22.94,2.48,2.48,0,0,1-.61.66,6.16,6.16,0,0,0-.61.5.64.64,0,0,0-.22.46.85.85,0,0,0,.64.83,7.85,7.85,0,0,0,2.29.28v1a7.66,7.66,0,0,0-2.29.29.87.87,0,0,0-.64.85.78.78,0,0,0,.22.51c.15.17.36.38.62.62a3.15,3.15,0,0,1,.6.77A2.06,2.06,0,0,1,763.7,178.16Z"/><path d="M826.5,199.5c-36-20-93,6-124.5-18.5" style="fill:none;stroke:#b7b6b6;stroke-miterlimit:10"/><path d="M597,201.13a6,6,0,0,1-1.59-.22,6.4,6.4,0,0,1-1.52-.64v-8.69h1.77v3.6H596a2.23,2.23,0,0,1,2.1-1.36,2,2,0,0,1,1.58.67,2.77,2.77,0,0,1,.57,1.86v2.09a2.43,2.43,0,0,1-.84,2A3.73,3.73,0,0,1,597,201.13Zm.06-1.36a1.57,1.57,0,0,0,1.08-.32,1.32,1.32,0,0,0,.36-1v-1.83a1.46,1.46,0,0,0-.29-1,1.06,1.06,0,0,0-.83-.32,1.79,1.79,0,0,0-.87.23,3.4,3.4,0,0,0-.84.69v3.22a2.72,2.72,0,0,0,.67.28A2.85,2.85,0,0,0,597,199.77Z" style="fill:#6d6d6d"/><path d="M604.11,201.16a2.53,2.53,0,0,1-1.62-.52,1.83,1.83,0,0,1-.66-1.52,1.8,1.8,0,0,1,.66-1.5,2.63,2.63,0,0,1,1.69-.53h2v-.91a.93.93,0,0,0-.32-.78,1.54,1.54,0,0,0-1-.25,1.73,1.73,0,0,0-1,.22,1.47,1.47,0,0,0-.48.89L602,196a2.56,2.56,0,0,1,.93-1.64,3.46,3.46,0,0,1,2-.5,3.71,3.71,0,0,1,2.17.56,2,2,0,0,1,.79,1.73V199q0,.54.32.67a1.86,1.86,0,0,0,.92,0V201a2.68,2.68,0,0,1-1.48-.05,1.26,1.26,0,0,1-.77-1.06h-.3a3,3,0,0,1-1,.87A3,3,0,0,1,604.11,201.16Zm.39-1.22a2.6,2.6,0,0,0,.92-.16,2.27,2.27,0,0,0,.78-.5v-1.15h-1.77a1.14,1.14,0,0,0-.69.19,1.11,1.11,0,0,0,0,1.39A1.09,1.09,0,0,0,604.5,199.94Z" style="fill:#6d6d6d"/><path d="M613.65,201.13a6.47,6.47,0,0,1-1.8-.25,5,5,0,0,1-1.57-.75l.53-1.17a5,5,0,0,0,1.4.69,4.86,4.86,0,0,0,1.46.24,2.35,2.35,0,0,0,1-.17.65.65,0,0,0,.38-.65.66.66,0,0,0-.35-.63,4.09,4.09,0,0,0-1.26-.31,5.39,5.39,0,0,1-2.15-.6,1.57,1.57,0,0,1-.74-1.46,1.92,1.92,0,0,1,.82-1.65,3.46,3.46,0,0,1,2.07-.59,5.24,5.24,0,0,1,1.57.25,5.54,5.54,0,0,1,1.44.68l-.47,1.12a5.26,5.26,0,0,0-1.24-.6,4,4,0,0,0-1.25-.21,1.74,1.74,0,0,0-.84.18.65.65,0,0,0-.34.62.63.63,0,0,0,.4.62,5.31,5.31,0,0,0,1.39.3,4.31,4.31,0,0,1,2,.67,1.67,1.67,0,0,1,.67,1.42,1.87,1.87,0,0,1-.88,1.67A4.05,4.05,0,0,1,613.65,201.13Z" style="fill:#6d6d6d"/><path d="M625.15,199.42a2.57,2.57,0,0,1-1.09,1.35,4.6,4.6,0,0,1-2.16.39,3.75,3.75,0,0,1-2.33-.68,2.39,2.39,0,0,1-.89-2v-1.89a2.46,2.46,0,0,1,.87-2,3.6,3.6,0,0,1,2.33-.7,3.53,3.53,0,0,1,2.33.71,2.54,2.54,0,0,1,.85,2.07v1.24h-4.61v.69a1.39,1.39,0,0,0,.35,1,1.57,1.57,0,0,0,1.12.34,2.3,2.3,0,0,0,1.06-.2,1.5,1.5,0,0,0,.63-.72Zm-4.7-3v.37h2.84v-.26a1.66,1.66,0,0,0-.33-1.16,1.45,1.45,0,0,0-1.09-.35,1.5,1.5,0,0,0-1.09.33A1.48,1.48,0,0,0,620.45,196.44Z" style="fill:#6d6d6d"/><path d="M629,198.5s20.5,0,25.44-15.5" style="fill:none;stroke:#b7b6b6;stroke-miterlimit:10"/></svg>