<svg xmlns="http://www.w3.org/2000/svg" viewBox="0 0 150 150">
  <path fill="#f6494d" d="M0 0h150v150H0z"/>
  <path d="M78.27 78.62l-.15-.06h-.06L44.76 61l-.18-.13-.1-.08-.08-.06-.16-.14a1.54 1.54 0 0 1-.23-.32l-.14-.3-.06-.25-.06-.41V46.05l.09-.37.05-.14.1-.2.17-.23.13-.14.15-.13 28.74-20.38.39-.2.19-.07.4-.06h.35l.21.05a1.64 1.64 0 0 1 .46.17l33.19 17.51.21.15.13.09.16.14.23.3a1.19 1.19 0 0 1 .12.23v.08l.08.25v.07-.1l.07.46v13.16l-.08.41a1.74 1.74 0 0 1-.14.33l-.19.29-.29.29-.08.08L79.95 78.4l-.16.11a1.89 1.89 0 0 1-.89.23zM77 73.71V65L47.54 49.46v8.73zm3.79-.53l24.84-17.66v-8.33L80.75 64.81zm-2-11.57l25.16-17.86L92 37.48l.15 1.06v7.31L91.41 48v.05l-.27.51-1.53 2-.06.06-.16.16-.17.16-2.31 1.66h-.05l-.31.18-2.95 1.25-.18.05-.18.06-3.36.86h-.39l-3.5.19h-.23l-3.62-.39h-.28l-3.26-1-.14-.06h-.23l-2.7-1.41-.19-.13-.16-.2-2-1.79-.32-.37-.08-.09-1.2-2.08-.28-.67-.3-2.23v-7.04l-11.75 8.35zM75.95 51.4l3.27-.17 3-.67 2.59-1.09 1.9-1.36 1.14-1.49.45-1.51-1.45 1.06h-.08l-.11.07-.2.12-2.92 1.24h-.21l-.16.06-3.33.73h-.39L76 48.7h-.33l-3.51-.4-.37-.08-3.17-.91-.15-.07h-.18l-2.75-1.43-.19-.13-.22-.15-.25-.21.11.84.86 1.48L67.5 49l2.36 1.23 2.89.86zm0-6.49l3.26-.17 3-.67L84.84 43l1.91-1.39 1.14-1.48.43-1.44-.19-1.39-.87-1.47-1.64-1.44-2.35-1.22-2.89-.86-3.21-.34-3.24.17-3 .67-2.6 1.1-1.9 1.36-1.14 1.48-.42 1.42.13 1.41.86 1.47 1.64 1.43 2.35 1.23 2.9.83zM74.3 28.3h.25l-.13-.07zm-41.08 87.63h4.49l3.51 9.34 3.46-9.34h4.41v15h-3.38V120.4l-4.16 10.54h-1.11l-4.18-10.54v10.54h-3zm18.15 9.64v-.17a5.51 5.51 0 0 1 5.79-5.69 5.45 5.45 0 0 1 5.77 5.63v.17a5.48 5.48 0 0 1-5.79 5.67 5.45 5.45 0 0 1-5.77-5.61zm8.48 0v-.15c0-2.1-1-3.36-2.69-3.36s-2.69 1.22-2.69 3.32v.17c0 2.1 1 3.36 2.69 3.36s2.7-1.3 2.7-3.38zm4.51.04v-.17c0-3.61 2.08-5.73 4.83-5.73a3.66 3.66 0 0 1 3.46 1.89V115h3v16h-3v-1.83a4 4 0 0 1-3.53 2.06c-2.66-.05-4.76-1.97-4.76-5.62zm8.38-.1v-.17c0-2.18-1-3.3-2.62-3.3s-2.65 1.15-2.65 3.34v.17c0 2.18 1 3.25 2.56 3.25s2.71-1.07 2.71-3.29zm5.47 1.49v-7h3v6.66c0 1.49.61 2.2 1.91 2.2a2.18 2.18 0 0 0 2.29-2.41V120h3v11h-3v-1.72a3.64 3.64 0 0 1-3.49 2c-2.12-.1-3.71-1.36-3.71-4.28zm12.85-12h3v16h-3zm5.02 10.59v-.17a5.45 5.45 0 0 1 5.65-5.71c2.83 0 5.35 1.66 5.35 5.58v.84h-7.91c.08 1.83 1.07 2.88 2.73 2.88 1.41 0 2.1-.61 2.29-1.53h2.88c-.36 2.37-2.25 3.7-5.25 3.7-3.32 0-5.74-2.08-5.74-5.59zm8-1.32c-.1-1.66-.94-2.46-2.39-2.46a2.52 2.52 0 0 0-2.52 2.46zm4.32 3.23h2.83c.13 1 .61 1.55 1.93 1.55s1.72-.44 1.72-1.2-.65-1.07-2.23-1.3c-2.92-.44-4.05-1.28-4.05-3.42s2.1-3.42 4.35-3.42c2.44 0 4.26.88 4.54 3.4h-2.79a1.49 1.49 0 0 0-1.72-1.32c-1 0-1.55.46-1.55 1.13s.52 1 2.12 1.2c2.75.4 4.26 1.09 4.26 3.44s-1.72 3.61-4.62 3.61-4.68-1.3-4.79-3.67z" fill="#fff"/>
</svg>
