<svg xmlns="http://www.w3.org/2000/svg" viewBox="0 0 64 64" width="64" height="64">
  <path d="M33.31 52.9h-.11L7.55 39.35l-.14-.1-.07-.06h-.06L7.15 39a1.18 1.18 0 0 1-.15-.2l-.11-.23V27.8l.07-.28v-.1l.04-.11.13-.18.1-.11.11-.1 22-15.64.3-.16.14-.05H30.52a1.26 1.26 0 0 1 .35.13l25.58 13.43.16.11.1.07.12.11.18.23a.92.92 0 0 1 .09.18v.06l.06.19v.06-.08l.05.35v10.12l-.06.32a1.33 1.33 0 0 1-.1.25l-.15.22-.22.22-.07.06-22 15.64-.12.08a1.45 1.45 0 0 1-.69.17zm-1-3.77v-6.72L9.69 30.48v6.71zm2.91-.41l19.1-13.58v-6.41l-19.1 13.55zm-1.57-8.9L53 26.1l-9.14-4.82.11.82v5.62l-.51 1.68-.21.39L42 31.38l-.12.12-.13.13-1.78 1.27-.24.14-2.26 1h-.28l-2.56.56H34.34l-2.69.14h-.18l-2.78-.3h-.21l-2.5-.74h-.27l-2.07-1.08-.14-.1-.14-.09L21.68 31l-.25-.29-.06-.07-.93-1.6-.18-.53-.26-1.63v-5.36l-9 6.42zM31.53 32l2.47-.16 2.34-.51 2-.84 1.46-1 .87-1.14.35-1.16-1.12.81h-.06l-.09.05-.16.09-2.25 1h-.28l-2.56.56h-.3l-2.69.14h-.25l-2.7-.31-.28-.06-2.43-.7-.11-.05h-.1l-2.11-1.1-.14-.1-.17-.12-.22-.17.09.64.68 1.13L25 30.11l1.81.95 2.22.66zm0-5l2.47-.15 2.34-.51 2-.84 1.47-1.07.88-1.14.31-1.11-.15-1.07-.63-1.11L39 18.87l-1.8-.94-2.22-.66-2.52-.27-2.46.15-2.34.51-2 .84-1.46 1-.87 1.14-.33 1.15.14 1.1.63 1.11L25 25.12l1.81.94 2.23.64zm-1.27-12.78h.19l-.1-.05z" fill="#f6494d"/>
</svg>
