<svg xmlns="http://www.w3.org/2000/svg" viewBox="0 0 150 150">
  <path fill="#f6494d" d="M0 0h150v150H0z"/>
  <path d="M76.76 22.5h-21.9v60.22h44V44.61zm2.09 20V31.35L90 42.52zm15.46 4.25v31.42h-34.9V27.06H74.6v19.7z" fill="#f6f8fa"/>
  <path d="M46.16 115.93h5.19c3.65 0 5.73 1.62 5.73 4.79v.08c0 3.17-2.2 4.68-5.63 4.68h-1.91v5.46h-3.38zm5.1 7.18c1.66 0 2.54-.8 2.54-2.29v-.08c0-1.6-.92-2.23-2.54-2.23h-1.72v4.6zM58 127.9c0-2.56 2.35-3.53 5.71-3.53H65v-.44c0-1.3-.4-2-1.78-2a1.66 1.66 0 0 0-1.87 1.55h-2.9c.19-2.6 2.25-3.76 4.93-3.76s4.6 1.09 4.6 4.07v7.16H65v-1.32a3.73 3.73 0 0 1-3.32 1.55c-1.97 0-3.68-.97-3.68-3.28zm7-.8v-.92h-1.2c-1.76 0-2.79.38-2.79 1.55 0 .8.48 1.32 1.6 1.32 1.39 0 2.39-.73 2.39-1.95zm4.91 4.08h3c.19 1 .88 1.6 2.44 1.6a2.44 2.44 0 0 0 2.77-2.69v-1.66a4.12 4.12 0 0 1-3.53 2c-2.67 0-4.79-2-4.79-5.25v-.15c0-3.15 2.1-5.35 4.83-5.35a3.69 3.69 0 0 1 3.49 1.89V120h3v10.12c0 3.25-2.18 4.91-5.79 4.91s-5.12-1.59-5.42-3.85zm8.31-6V125c0-1.87-1-3-2.65-3s-2.64 1.22-2.64 3v.17c0 1.83 1.07 3 2.58 3a2.69 2.69 0 0 0 2.72-3zm4.92.41v-.17a5.45 5.45 0 0 1 5.65-5.71c2.83 0 5.35 1.66 5.35 5.58v.84h-7.91C86.31 128 87.3 129 89 129c1.41 0 2.1-.61 2.29-1.53h2.88c-.36 2.37-2.25 3.7-5.25 3.7-3.37.01-5.78-2.07-5.78-5.58zm8-1.32c-.1-1.66-.94-2.46-2.39-2.46a2.52 2.52 0 0 0-2.52 2.46zm4.32 3.23h2.83c.13 1 .61 1.55 1.93 1.55s1.72-.44 1.72-1.2-.65-1.07-2.23-1.3c-2.92-.44-4.05-1.28-4.05-3.42s2.1-3.42 4.35-3.42c2.44 0 4.26.88 4.54 3.4h-2.79a1.49 1.49 0 0 0-1.72-1.32c-1 0-1.55.46-1.55 1.13s.53 1 2.12 1.2c2.75.4 4.26 1.09 4.26 3.44s-1.72 3.61-4.62 3.61-4.69-1.3-4.79-3.67z" fill="#fff"/>
</svg>
